<?xml version="1.0" encoding="utf-8"?>
<!-- Generator: Adobe Illustrator 28.0.0, SVG Export Plug-In . SVG Version: 6.00 Build 0)  -->
<svg version="1.1" id="OBJECTS" xmlns="http://www.w3.org/2000/svg" xmlns:xlink="http://www.w3.org/1999/xlink" x="0px" y="0px"
	 width="500px" height="500px" viewBox="0 0 500 500" enable-background="new 0 0 500 500" xml:space="preserve">
<g id="g446" transform="matrix(0.82894289,0,0,0.82894289,144.75853,40.385279)">
	<path id="path392" fill="#EF5A58" d="M124.6,429.8c-74.7,0-165.2-10.8-220.2-27.3c-55.1-16.5-54-66.6-51.4-146.9h271.6h271.6
		c2.6,80.3,3.7,130.4-51.4,146.9C289.8,419,199.3,429.8,124.6,429.8L124.6,429.8z"/>
	<path id="path393" fill="#FA6F6B" d="M124.6,75.9c-74.7,0-165.2,10.8-220.2,27.3c-55.1,16.5-54,66.6-51.4,146.9h271.6h271.6
		c2.6-80.3,3.7-130.4-51.4-146.9C289.8,86.8,199.3,75.9,124.6,75.9L124.6,75.9z"/>
	<path id="path394" fill="#EF5A58" d="M100.5,135.7c-6.6,0.1-13.1,0.9-19.3,3c-13.6,4.5-23.5,20.7-38.9,20.7
		c-13.1,0-15-18.3-31.1-13c-12,4-17.3,15.1-26,19.4c-5.5,2.7-13.9-10.1-20.8-7.8c-10.3,3.4-17.6,13.7-24.7,20.7
		c-1.6,1.6-8.2-4.2-13-2.6c-6.5,2.2-7.6,10.3-13,13c-7.9,4-16.1-8.8-20.8-6.5c-10.6,5.3-14,20.6-16.9,22c-8,4-16-9.2-23.7-13.9
		c-0.7,17.4-0.1,37.2,0.6,59.2h271.6h271.6c0.7-22.1,1.3-41.8,0.6-59.2c-7.8,4.7-15.8,17.9-23.7,13.9c-2.9-1.4-6.2-16.7-16.9-22
		c-4.7-2.3-12.8,10.4-20.8,6.5c-5.4-2.7-6.5-10.8-13-13c-4.8-1.6-11.4,4.2-13,2.6c-7-7-14.4-17.3-24.7-20.7
		c-6.9-2.3-15.3,10.5-20.8,7.8c-8.6-4.3-14-15.5-26-19.4c-16.2-5.4-18.1,13-31.1,13c-15.5,0-25.3-16.2-38.9-20.7
		c-6.2-2.1-12.7-2.9-19.3-3c-8.1-0.1-16.2,0.9-24.1,1.9C116.7,136.5,108.5,135.6,100.5,135.7L100.5,135.7z"/>
	<path id="path395" fill="#A01515" d="M-136.2,263.3c0,0,4.7-8.1,11.3-10.1c6.6-2,189.8-31,233.6-10.8c20.7,3.4,24,8.1,24.4,12.8
		c0.5,4.7-0.5,16.2-0.5,16.2S-113.7,283.5-136.2,263.3L-136.2,263.3z"/>
	<path id="path420" fill="#A01515" d="M390.2,267c0,0-4.6-5.5-11-6.9c-6.4-1.4-185.3-21.1-228-7.3c-20.2,2.3-23.4,5.5-23.9,8.7
		c-0.5,3.2,0.5,11,0.5,11S368.2,280.8,390.2,267L390.2,267z"/>
	<path id="path445" fill="#FA6F6B" d="M-123.1,320c0,0-12.8,7.3-5.5,29.3c7.3,22,38.5,36.7,60.6,45.8c22,9.2,205.5,22,260.6,18.3
		c55.1-3.7,150.5-12.8,165.2-29.3c14.7-16.5,27.5-44,14.7-49.5c-12.8-5.5-18.4-14.7-44,1.8c-25.7,16.5-44,9.2-69.7,18.3
		c-25.7,9.2-44,12.8-75.2,14.7c-31.2,1.8-53.2,0-91.8,1.8c-38.5,1.8-64.2-3.7-115.6-11C-75.4,353-97.5,307.2-123.1,320L-123.1,320z"
		/>
	<path id="path446" opacity="0.15" fill="#FFFFFF" d="M-106.6,131c16.5-12.8,64.2-20.2,104.6-27.5s190.9-12.8,229.4-9.2
		c38.5,3.7,124.8,22,126.6,31.2c1.8,9.2,1.8,22-23.9,11c-25.7-11-135.8-34.8-223.9-29.3s-128.5,16.5-176.2,27.5
		C-117.7,145.7-115.8,156.7-106.6,131z"/>
	<g>
		<path fill="#FFFFFF" d="M393.5,265.9c4.1-1.1,7.1-3.4,7.9-6.8c1.4-5.9,0-41.2-11-44.4c-11-3.1-18.8,11.4-18.8,11.4v0
			c0,0-0.3,1.7-0.8,4.3c-1.5-12.4-4.6-24.7-10.3-26.7c-11-3.8-18.8,13.8-18.8,13.8s-1.1,7.2-2.1,15.6c-1.2-15.4-4.3-32.8-10.9-35.2
			c-8.4-3.1-14.8,7.2-17.5,12.3c-2-11.7-5.4-21.9-10.4-25.9h0c-9.2-7.3-17.4-7.3-28.4,2.8c-3.8,3.5-6,12.1-7.2,22.2
			c-2.4-14.5-6.9-27.6-13.8-32.6c-17.5-7.1-33-3.9-41.2,11c-3,5.3-5.1,15.8-6.3,27.3c-0.3-46.1-12.9-59.8-46.7-56.7
			c-28.5,2.6-37.5,46.7-40.3,76.5c1.5-29.8-0.7-73.9-26.2-76.5c-28.1-2.8-41.6,8.7-48.7,46.7c-1.1-7.4-2.6-13.6-4.4-17.4
			c-7.3-14.8-21.1-18-36.7-11h0c-6,4.9-10,17.6-12.2,31.8c-1.2-9.8-3.4-18-7.1-21.4c-11-10.1-19.3-10.1-28.4-2.8h0
			c-5,4.1-8.4,14.2-10.4,25.9c-2.7-5.2-9.1-15.5-17.5-12.3c-6.5,2.4-9.7,19.8-10.9,35.2c-1-8.4-2.1-15.6-2.1-15.6
			s-7.8-17.6-18.8-13.8c-5.7,1.9-8.8,14.2-10.3,26.7c-0.4-2.6-0.8-4.3-0.8-4.3v0c0,0-7.8-14.6-18.8-11.4c-11,3.1-12.4,38.5-11,44.4
			c0.8,3.4,3.8,5.7,7.9,6.8c-4.1,0.8-7.1,2.6-7.9,5.3c-1.4,4.6,0,32,11,34.4c11,2.4,18.8-8.9,18.8-8.9s0.3-1.3,0.8-3.4
			c1.5,9.7,4.6,19.2,10.3,20.7c11,2.9,18.8-10.8,18.8-10.8s1.3-6.7,2.4-14c1,12.4,4.2,27.2,11,29.2c11,3.2,18.8-11.7,18.8-11.7
			s0.7-4.1,1.6-9.5c1.2,13.3,5.1,26.9,12.1,31.4h0c9.2,5.7,17.4,5.7,28.4-2.1c3.5-2.5,5.7-8.5,7-15.8c4.6,27.9,16.6,34.6,40.9,32.5
			c17.3-1.5,23.4-21,25.3-39.3c4,35.3,15.9,46.2,41.7,43.9c18.2-1.7,24-25.5,25.5-46.7c1.6,21.3,7.4,45.1,25.5,46.7
			c25.8,2.4,37.7-8.5,41.7-43.8c1.9,18.3,8,37.8,25.3,39.3c24.3,2.1,36.3-4.6,40.9-32.5c1.2,7.2,3.4,13.2,7,15.8
			c11,7.8,19.3,7.8,28.4,2.1l0,0c7-4.4,10.9-18,12.1-31.4c0.8,5.4,1.6,9.5,1.6,9.5s7.8,14.9,18.8,11.7c6.9-2,10-16.9,11-29.2
			c1.1,7.3,2.4,14,2.4,14s7.8,13.7,18.8,10.8c5.7-1.5,8.8-11.1,10.3-20.7c0.4,2,0.8,3.4,0.8,3.4s7.8,11.3,18.8,8.9
			c11-2.4,12.4-29.9,11-34.4C400.6,268.5,397.6,266.7,393.5,265.9z M38.8,263.5c0.2,0.1,0.3,0.2,0.5,0.3c-0.3,0-0.7-0.1-1-0.1
			C38.5,263.7,38.7,263.6,38.8,263.5z M-115.4,268.8c-2.4-1.5-5.4-1.8-12.8-2.9c7.4-1.4,10.4-1.9,12.8-3.8c1.5,1.8,3.6,3.1,6.1,3.8
			C-111.8,266.4-114,267.4-115.4,268.8z M-84.4,270.7c-0.1-0.1-0.1-0.2-0.2-0.3c-2.7-2.6-5.5-2.9-14.5-4.5c8.9-2,11.7-2.5,14.4-5.8
			c1.5,2.9,4.1,4.9,7.5,5.9C-80.4,266.8-83,268.4-84.4,270.7z M-52.3,270.9C-52.3,270.9-52.3,270.9-52.3,270.9
			c-2.8-2.9-5.5-3.3-14.7-5c-0.1,0-0.2,0-0.3,0c5.9-1.5,9.1-2.2,11.4-3.5c0.5,0.9,1.1,1.6,1.7,1.9c1.8,0.8,4.6,1.4,7.8,1.8
			c-1,0.2-2,0.4-2.8,0.7C-50.4,267.2-51.5,268.7-52.3,270.9z M-8.6,270.6c-0.1-0.1-0.1-0.2-0.2-0.3c-2-2.8-8.4-4.4-15.7-5
			c5-1.1,9.1-2.9,10.6-5.6c0.7-1.2,1.3-3.4,1.8-6.2c0.7,3.5,1.6,6,2.8,6.9c2.4,1.9,8,3.3,14.6,4.3C-1.8,265.8-7.1,267.8-8.6,270.6z
			 M56.9,267.8c0.4,0,0.8,0.1,1.2,0.1c0,0.2,0,0.4,0,0.7C57.8,268.3,57.3,268.1,56.9,267.8z M104.6,265.8c5.5-1.1,9.3-2.5,9.8-4
			c0,0,0.8-5.2,1.5-13.3c-0.4,8.1-0.3,13.3-0.3,13.3c0.5,2.1,7.8,4,18,5.2c-3.9,0.4-6.2,0.7-6.2,0.7s-0.2,1.6-0.3,4.2
			c-0.2-2.6-0.3-4.2-0.3-4.2S117.5,266.4,104.6,265.8z M195.9,268.6c0-0.3,0-0.6,0-1c-2.6-0.4-5.2-0.8-7.9-1.1
			c7-1.2,12.1-3.1,13.6-5.8c0.5-6,1-11.6,1.3-17c0.4,9.7,1.8,17.2,4.3,18.9c0.9,0.6,2.2,1.1,3.8,1.6
			C204.1,265.2,198.5,266.6,195.9,268.6z M262.8,270.3c-0.1,0.1-0.1,0.2-0.2,0.3c-1.6-3-7.3-5-14.9-6.2c6.8-0.9,12.4-2.3,15-4.1
			c1.4-0.9,2.5-3.6,3.2-7.3c0.5,3,1.2,5.4,1.9,6.6c1.5,2.7,5.6,4.5,10.6,5.6C271.2,265.9,264.8,267.5,262.8,270.3z M306.3,270.9
			C306.3,270.9,306.3,270.9,306.3,270.9c-0.8-2.2-1.9-3.7-3.1-4.1c-0.8-0.3-1.7-0.5-2.8-0.7c3.2-0.4,6-1,7.8-1.8
			c0.6-0.3,1.2-0.9,1.7-1.9c2.3,1.3,5.5,2,11.4,3.5c-0.1,0-0.2,0-0.3,0C311.8,267.7,309,268,306.3,270.9z M338.5,270.4
			c-0.1,0.1-0.1,0.2-0.2,0.3c-1.4-2.3-4-4-7.3-4.8c3.3-0.9,6-2.9,7.5-5.9c2.7,3.3,5.5,3.7,14.4,5.8
			C344,267.5,341.3,267.8,338.5,270.4z M369.4,268.8c-1.5-1.4-3.6-2.4-6.1-2.9c2.5-0.7,4.7-2,6.1-3.8c2.4,1.9,5.4,2.4,12.8,3.8
			C374.8,267,371.8,267.4,369.4,268.8z"/>
		<path opacity="0.32" fill="#E0DCDC" d="M393.5,265.9c4.1-1.1,7.1-3.4,7.9-6.8c1.4-5.9,0-41.2-11-44.4c-11-3.1-18.8,11.4-18.8,11.4
			v0c0,0-0.3,1.7-0.8,4.3c-1.5-12.4-4.6-24.7-10.3-26.7c-11-3.8-18.8,13.8-18.8,13.8s-1.1,7.2-2.1,15.6
			c-1.2-15.4-4.3-32.8-10.9-35.2c-8.4-3.1-14.8,7.2-17.5,12.3c-2-11.7-5.4-21.9-10.4-25.9h0c-9.2-7.3-17.4-7.3-28.4,2.8
			c-3.8,3.5-6,12.1-7.2,22.2c-2.4-14.5-6.9-27.6-13.8-32.6c-17.5-7.1-33-3.9-41.2,11c-3,5.3-5.1,15.8-6.3,27.3
			c-0.3-46.1-12.9-59.8-46.7-56.7c-28.5,2.6-37.5,46.7-40.3,76.5c1.5-29.8-0.7-73.9-26.2-76.5c-28.1-2.8-41.6,8.7-48.7,46.7
			c-1.1-7.4-2.6-13.6-4.4-17.4c-7.3-14.8-21.1-18-36.7-11h0c-6,4.9-10,17.6-12.2,31.8c-1.2-9.8-3.4-18-7.1-21.4
			c-11-10.1-19.3-10.1-28.4-2.8h0c-5,4.1-8.4,14.2-10.4,25.9c-2.7-5.2-9.1-15.5-17.5-12.3c-6.5,2.4-9.7,19.8-10.9,35.2
			c-1-8.4-2.1-15.6-2.1-15.6s-7.8-17.6-18.8-13.8c-5.7,1.9-8.8,14.2-10.3,26.7c-0.4-2.6-0.8-4.3-0.8-4.3v0c0,0-7.8-14.6-18.8-11.4
			c-11,3.1-12.4,38.5-11,44.4c0.8,3.4,3.8,5.7,7.9,6.8c-4.1,0.8-7.1,2.6-7.9,5.3c-1.4,4.6,0,32,11,34.4c11,2.4,18.8-8.9,18.8-8.9
			s0.3-1.3,0.8-3.4c1.5,9.7,4.6,19.2,10.3,20.7c11,2.9,18.8-10.8,18.8-10.8s1.3-6.7,2.4-14c1,12.4,4.2,27.2,11,29.2
			c11,3.2,18.8-11.7,18.8-11.7s0.7-4.1,1.6-9.5c1.2,13.3,5.1,26.9,12.1,31.4h0c9.2,5.7,17.4,5.7,28.4-2.1c3.5-2.5,5.7-8.5,7-15.8
			c4.6,27.9,16.6,34.6,40.9,32.5c17.3-1.5,23.4-21,25.3-39.3c4,35.3,15.9,46.2,41.7,43.9c18.2-1.7,24-25.5,25.5-46.7
			c1.6,21.3,7.4,45.1,25.5,46.7c25.8,2.4,37.7-8.5,41.7-43.8c1.9,18.3,8,37.8,25.3,39.3c24.3,2.1,36.3-4.6,40.9-32.5
			c1.2,7.2,3.4,13.2,7,15.8c11,7.8,19.3,7.8,28.4,2.1l0,0c7-4.4,10.9-18,12.1-31.4c0.8,5.4,1.6,9.5,1.6,9.5s7.8,14.9,18.8,11.7
			c6.9-2,10-16.9,11-29.2c1.1,7.3,2.4,14,2.4,14s7.8,13.7,18.8,10.8c5.7-1.5,8.8-11.1,10.3-20.7c0.4,2,0.8,3.4,0.8,3.4
			s7.8,11.3,18.8,8.9c11-2.4,12.4-29.9,11-34.4C400.6,268.5,397.6,266.7,393.5,265.9z M38.8,263.5c0.2,0.1,0.3,0.2,0.5,0.3
			c-0.3,0-0.7-0.1-1-0.1C38.5,263.7,38.7,263.6,38.8,263.5z M-115.4,268.8c-2.4-1.5-5.4-1.8-12.8-2.9c7.4-1.4,10.4-1.9,12.8-3.8
			c1.5,1.8,3.6,3.1,6.1,3.8C-111.8,266.4-114,267.4-115.4,268.8z M-84.4,270.7c-0.1-0.1-0.1-0.2-0.2-0.3c-2.7-2.6-5.5-2.9-14.5-4.5
			c8.9-2,11.7-2.5,14.4-5.8c1.5,2.9,4.1,4.9,7.5,5.9C-80.4,266.8-83,268.4-84.4,270.7z M-52.3,270.9
			C-52.3,270.9-52.3,270.9-52.3,270.9c-2.8-2.9-5.5-3.3-14.7-5c-0.1,0-0.2,0-0.3,0c5.9-1.5,9.1-2.2,11.4-3.5
			c0.5,0.9,1.1,1.6,1.7,1.9c1.8,0.8,4.6,1.4,7.8,1.8c-1,0.2-2,0.4-2.8,0.7C-50.4,267.2-51.5,268.7-52.3,270.9z M-8.6,270.6
			c-0.1-0.1-0.1-0.2-0.2-0.3c-2-2.8-8.4-4.4-15.7-5c5-1.1,9.1-2.9,10.6-5.6c0.7-1.2,1.3-3.4,1.8-6.2c0.7,3.5,1.6,6,2.8,6.9
			c2.4,1.9,8,3.3,14.6,4.3C-1.8,265.8-7.1,267.8-8.6,270.6z M56.9,267.8c0.4,0,0.8,0.1,1.2,0.1c0,0.2,0,0.4,0,0.7
			C57.8,268.3,57.3,268.1,56.9,267.8z M104.6,265.8c5.5-1.1,9.3-2.5,9.8-4c0,0,0.8-5.2,1.5-13.3c-0.4,8.1-0.3,13.3-0.3,13.3
			c0.5,2.1,7.8,4,18,5.2c-3.9,0.4-6.2,0.7-6.2,0.7s-0.2,1.6-0.3,4.2c-0.2-2.6-0.3-4.2-0.3-4.2S117.5,266.4,104.6,265.8z
			 M195.9,268.6c0-0.3,0-0.6,0-1c-2.6-0.4-5.2-0.8-7.9-1.1c7-1.2,12.1-3.1,13.6-5.8c0.5-6,1-11.6,1.3-17c0.4,9.7,1.8,17.2,4.3,18.9
			c0.9,0.6,2.2,1.1,3.8,1.6C204.1,265.2,198.5,266.6,195.9,268.6z M262.8,270.3c-0.1,0.1-0.1,0.2-0.2,0.3c-1.6-3-7.3-5-14.9-6.2
			c6.8-0.9,12.4-2.3,15-4.1c1.4-0.9,2.5-3.6,3.2-7.3c0.5,3,1.2,5.4,1.9,6.6c1.5,2.7,5.6,4.5,10.6,5.6
			C271.2,265.9,264.8,267.5,262.8,270.3z M306.3,270.9C306.3,270.9,306.3,270.9,306.3,270.9c-0.8-2.2-1.9-3.7-3.1-4.1
			c-0.8-0.3-1.7-0.5-2.8-0.7c3.2-0.4,6-1,7.8-1.8c0.6-0.3,1.2-0.9,1.7-1.9c2.3,1.3,5.5,2,11.4,3.5c-0.1,0-0.2,0-0.3,0
			C311.8,267.7,309,268,306.3,270.9z M338.5,270.4c-0.1,0.1-0.1,0.2-0.2,0.3c-1.4-2.3-4-4-7.3-4.8c3.3-0.9,6-2.9,7.5-5.9
			c2.7,3.3,5.5,3.7,14.4,5.8C344,267.5,341.3,267.8,338.5,270.4z M369.4,268.8c-1.5-1.4-3.6-2.4-6.1-2.9c2.5-0.7,4.7-2,6.1-3.8
			c2.4,1.9,5.4,2.4,12.8,3.8C374.8,267,371.8,267.4,369.4,268.8z"/>
		<path id="path399" fill="#FFFFFF" d="M76.4,163.6c-13.3,7.3-20.4,24.8-22.5,34.8c-2.1,10.1-8.9,50.4-1.4,52.3
			c7.5,1.8,48.2,6.4,51-2.8c2.8-9.2,4.6-55-2.1-70.6C94.7,161.7,84.2,159,76.4,163.6L76.4,163.6z"/>
		<path id="path400" fill="#FFFFFF" d="M10,179.4c-12.8,9.2-22,55.9-15.6,66c6.4,10.1,19.3,7.3,27.5-0.9
			C30.2,236.2,29.3,172,10,179.4z"/>
		<path id="path402" fill="#FFFFFF" d="M-38.7,185.4c-13.8,8.3-14.7,30.3-14.7,46.8s0.9,24.8,15.6,19.3
			c14.7-5.5,15.5-35.1,13.8-48.6C-25.1,194.9-28.7,179-38.7,185.4L-38.7,185.4z"/>
		<path id="path403" fill="#FFFFFF" d="M-73,200c-5.5,4.6-11.9,48.6-5.5,50.9c6.4,2.3,13.3,4.1,15.1-3.2
			C-61.5,240.4-61.5,199.1-73,200L-73,200z"/>
		<path id="path405" fill="#FFFFFF" d="M-109.1,211.1c-3.8,5.8-5.4,36.9-2.1,39.5c3.4,2.6,8,5.2,8.8-3.9
			C-101.5,237.6-102.4,205.2-109.1,211.1z"/>
		<path id="path407" fill="#FFFFFF" d="M-138.6,220.7c-4.1,4.8-5.9,30.5-2.3,32.7s8.6,4.3,9.5-3.2
			C-130.4,242.7-131.3,215.9-138.6,220.7z"/>
		<path id="path410" fill="#FFFFFF" d="M89,333c-10.8-5.1-15.8-17.2-17.1-24.3c-1.3-7-5.1-35.1,1.3-36.4c6.3-1.3,40.5-4.5,42.4,1.9
			c1.9,6.4,1.3,38.3-5.1,49.2C104.2,334.3,95.4,336.2,89,333z"/>
		<path id="path412" fill="#FFFFFF" d="M-33.7,327.9c-13.8-6.4-14.7-23.5-14.7-36.3s0.9-19.2,15.6-14.9
			c14.7,4.3,15.5,27.2,13.8,37.7C-20,320.6-23.6,332.9-33.7,327.9L-33.7,327.9z"/>
		<path id="path413" fill="#FFFFFF" d="M-72.5,317c-5.5-3.6-11.9-37.7-5.5-39.5c6.4-1.8,13.3-3.2,15.1,2.5
			C-61,285.7-61,317.7-72.5,317z"/>
		<path id="path415" fill="#FFFFFF" d="M-109.1,308.5c-3.8-4.5-5.4-28.7-2.1-30.7c3.4-2,8-4,8.8,3
			C-101.5,287.8-102.4,313-109.1,308.5z"/>
		<path id="path417" fill="#FFFFFF" d="M-138.6,301c-4.1-3.7-5.9-23.7-2.3-25.4c3.6-1.7,8.6-3.3,9.5,2.5
			C-130.4,283.9-131.3,304.7-138.6,301L-138.6,301z"/>
		<path id="path419" fill="#FFFFFF" d="M22,329.1c-10.8-4.9-15.8-16.5-17.1-23.2c-1.3-6.7-5.1-33.6,1.3-34.8
			c6.3-1.2,40.5-4.3,42.4,1.8c1.9,6.1,1.3,36.6-5.1,47C37.2,330.3,28.4,332.1,22,329.1L22,329.1z"/>
		<path id="path424" fill="#FFFFFF" d="M172,163.6c13.5,7.3,18.6,24.8,19.4,34.8s2.2,50.4-6.3,52.3c-8.5,1.8-53.9,6.4-55.6-2.8
			c-1.7-9.2,3.2-55,12.9-70.6C152.2,161.7,164.1,159,172,163.6L172,163.6z"/>
		<path id="path425" fill="#FFFFFF" d="M241.1,179.4c14.4,9.2,24.7,55.9,17.5,66c-7.2,10.1-21.6,7.3-30.9-0.9
			C218.5,236.2,219.5,172,241.1,179.4z"/>
		<path id="path427" fill="#FFFFFF" d="M292.7,185.4c13.8,8.3,14.7,30.3,14.7,46.8s-0.9,24.8-15.6,19.3
			c-14.7-5.5-15.5-35.1-13.8-48.6C279.1,194.9,282.6,179,292.7,185.4L292.7,185.4z"/>
		<path id="path428" fill="#FFFFFF" d="M326.9,200c5.5,4.6,11.9,48.6,5.5,50.9c-6.4,2.3-13.3,4.1-15.1-3.2
			C315.4,240.4,315.4,199.1,326.9,200L326.9,200z"/>
		<path id="path430" fill="#FFFFFF" d="M363,211.1c3.8,5.8,5.4,36.9,2.1,39.5c-3.4,2.6-8,5.2-8.8-3.9
			C355.5,237.6,356.3,205.2,363,211.1z"/>
		<path id="path432" fill="#FFFFFF" d="M392.5,220.7c4.1,4.8,5.9,30.5,2.3,32.7s-8.6,4.3-9.5-3.2
			C384.4,242.7,385.3,215.9,392.5,220.7z"/>
		<path id="path435" fill="#FFFFFF" d="M164.9,333c10.8-5.1,15.8-17.2,17.1-24.3c1.3-7,5.1-35.1-1.3-36.4
			c-6.3-1.3-40.5-4.5-42.4,1.9c-1.9,6.4-1.3,38.3,5.1,49.2C149.7,334.3,158.6,336.2,164.9,333z"/>
		<path id="path437" fill="#FFFFFF" d="M287.7,327.9c13.8-6.4,14.7-23.5,14.7-36.3s-0.9-19.2-15.6-14.9
			c-14.7,4.3-15.5,27.2-13.8,37.7C274,320.6,277.6,332.9,287.7,327.9L287.7,327.9z"/>
		<path id="path438" fill="#FFFFFF" d="M326.5,317c5.5-3.6,11.9-37.7,5.5-39.5c-6.4-1.8-13.3-3.2-15.1,2.5
			C315,285.7,315,317.7,326.5,317z"/>
		<path id="path440" fill="#FFFFFF" d="M363,308.5c3.8-4.5,5.4-28.7,2.1-30.7c-3.4-2-8-4-8.8,3C355.5,287.8,356.3,313,363,308.5z"/>
		<path id="path442" fill="#FFFFFF" d="M392.5,301c4.1-3.7,5.9-23.7,2.3-25.4c-3.6-1.7-8.6-3.3-9.5,2.5
			C384.4,283.9,385.3,304.7,392.5,301L392.5,301z"/>
		<path id="path444" fill="#FFFFFF" d="M231.9,329.1c10.8-4.9,15.8-16.5,17.1-23.2c1.3-6.7,5.1-33.6-1.3-34.8
			c-6.3-1.2-40.5-4.3-42.4,1.8c-1.9,6.1-1.3,36.6,5.1,47C216.7,330.3,225.6,332.1,231.9,329.1L231.9,329.1z"/>
		<path id="path1093" fill="#E0DCDC" d="M116.6,231.8c0.7,0,0.8,6.2-0.3,13.5c0,0.3-0.1,0.7-0.2,1l0,0c-1.1,6.9-2,12.1-2.7,12.1
			s-0.9-5.7,0.1-12.5l0,0c0-0.3,0.1-0.7,0.1-1C114.8,237.5,115.9,231.7,116.6,231.8L116.6,231.8z"/>
		<path id="path1094" fill="#E0DCDC" d="M41.4,264.6c0.2-0.3,3.3,1,8.7,2.1c5.8,1.1,12.5,1.6,21.5,1c0.3,0,0.6,0,0.9-0.1
			c8.2-0.6,15.7-1.7,21.1-1.9c5.5-0.2,8.8,0.1,8.8,0.5c0,0.4-3.3,0.6-8.6,1.3c-3.3,0.4-14.7,2.2-21.1,2.7c-0.3,0-0.6,0-1,0.1
			c-9,0.6-16.3-0.2-22.1-1.8C44.3,266.9,41.3,264.9,41.4,264.6L41.4,264.6z"/>
		<path id="path1095" fill="#E0DCDC" d="M136.9,266.2c0.1-0.4,2.6-0.1,6.5,0c5,0.1,8.5,0,15.7-0.2c0.8,0,1.6-0.1,2.5-0.1l0,0
			c4.7-0.1,8.5-0.3,12-0.3l0,0c4.8,0,7.9,0.2,7.9,0.6c0,0.4-3,0.8-7.8,1.4l0,0c-3.2,0.4-7.5,0.7-12,0.9l0,0c-0.8,0-1.6,0.1-2.5,0.1
			c-6.6,0.2-11.5,0.1-15.9-0.5C139.3,267.4,136.8,266.5,136.9,266.2L136.9,266.2z"/>
		<path id="path1096" fill="#E0DCDC" d="M212.1,265.4c0-0.7,8.5-0.7,18.7-0.2c0.4,0,0.8,0,1.3,0.1c3.8,0.1,6.6,0.2,9.4-0.1
			c4.6-0.4,7.2-1.7,7.4-1.3c0.3,0.4-2.2,2.5-7.2,3.4c-2.9,0.5-6.1,0.7-9.8,0.6c-0.4,0-0.9,0-1.3,0
			C220.2,267.3,212,266.1,212.1,265.4z"/>
		<path id="path1097" fill="#E0DCDC" d="M204.2,217.7c0.3,0,1,1.9,1,5.3c0,4-0.8,7.3-1.8,12.7c0,0.2-0.1,0.3-0.1,0.5
			c-0.6,3.4-1.1,6-1.1,8.8c0,4.7,1.6,7.7,1.2,7.9c-0.3,0.2-3-2.3-3.4-7.9c-0.2-2.9,0.1-5.9,0.7-9.3c0-0.2,0.1-0.3,0.1-0.5
			c0.9-4.9,2.1-9.2,2.6-12.4C203.9,219.7,203.9,217.7,204.2,217.7L204.2,217.7z"/>
		<path id="path1098" fill="#E0DCDC" d="M266.8,213c0.4,0,0.7,2.3,1.3,6c0.6,3.7,1.6,8.8,2.4,14.5c0,0,0,0.2,0,0.2
			c0.8,6.1,1,10.7,0.5,14.8c-0.5,3.8-1.5,6-1.8,5.9c-0.3-0.1,0-2.4,0-6c0-4.3-0.4-8.1-1.2-14.4c0,0,0-0.2,0-0.2
			c-0.9-6.3-1.5-10.2-1.7-14.7C266.1,215.4,266.5,213,266.8,213L266.8,213z"/>
		<path id="path1099" fill="#E0DCDC" d="M281.7,263.8c-0.1-0.7,3.8-1.7,8.4-1.2c0.1,0,0.3,0,0.4,0c2.2,0.2,4.1,0.6,5.4,0.7
			c1.3,0.1,2.2,0.1,2.3,0.5c0.1,0.3-0.6,1-2.1,1.3c-1.7,0.4-3.4,0.3-5.7,0.1c-0.1,0-0.3,0-0.4,0
			C285.2,264.7,281.9,264.5,281.7,263.8L281.7,263.8z"/>
		<path id="path1100" fill="#E0DCDC" d="M313,216.1c0.3-0.1,1.4,2.4,1.9,6.6c0.7,4.7,0.6,9.7,0.1,16.5c0,0,0,0.6,0,0.6
			c-0.6,8.3-1,9.9-1.1,15.8c-0.1,4,0.2,6.5-0.1,6.5c-0.3,0.1-1.2-2.4-1.7-6.5c-0.5-4.7-0.2-9.2,0.3-16.1c0,0,0-0.6,0-0.6
			c0.5-7.4,0.8-11.1,0.7-16.2C313,218.8,312.7,216.2,313,216.1L313,216.1z"/>
		<path id="path1101" fill="#E0DCDC" d="M338.9,237.2c0.7-0.1,1.8,5.3,1.5,11.8c0,0.2,0,0.5,0,0.7l0,0c-0.1,3.1-0.5,5.8-0.5,7.7
			c0,1.9,0.1,3.1-0.2,3.2c-0.3,0.1-1.1-1-1.5-3c-0.5-2.3-0.5-4.7-0.3-8l0,0c0-0.2,0-0.5,0-0.7C338.1,242.4,338.1,237.4,338.9,237.2
			L338.9,237.2z"/>
		<path id="path1102" fill="#E0DCDC" d="M372.5,231c0.3-0.1,1.4,1.2,1.8,4c0.5,2.9,0.1,6.3-1.1,10.5c-0.1,0.2-0.1,0.4-0.2,0.6
			c-0.7,2.6-1.5,5-2,7c-0.8,3.6-0.5,6-0.9,6.1c-0.5,0.2-1.8-2.3-1.2-6.5c0.3-2.4,0.9-4.6,1.6-7.3c0.1-0.2,0.1-0.4,0.2-0.6
			c1.1-4.3,1.8-6.8,1.8-9.7C372.6,232.7,372.2,231.1,372.5,231L372.5,231z"/>
		<path id="path1103" fill="#E0DCDC" d="M341.2,270.9c0.7,0,1.1,3.9,1.2,8.6c0.1,4.6,0.2,8.5-0.4,8.6c-0.8,0.2-2-3.6-2.2-8.5
			C339.7,274.7,340.5,270.8,341.2,270.9z"/>
		<path id="path1104" fill="#E0DCDC" d="M372.5,269.3c0.6,0.3-0.3,3.9-0.9,8.7c-0.7,4.8-2.3,8.8-3,8.5c-0.7-0.2-0.3-4,0.4-8.9
			C369.7,272.7,371.9,269,372.5,269.3z"/>
		<path id="path1105" fill="#E0DCDC" d="M39.8,206.8c0.7,0.1-0.4,11.7-2.1,25.9c0,0-0.2,1.4-0.2,1.5l0,0
			c-1.6,13.5-2.5,24.2-3.2,24.2c-0.7,0-0.9-11,0.6-24.5l0,0c0.1-0.5,0.1-1,0.2-1.5C36.8,218.1,39.1,206.7,39.8,206.8L39.8,206.8z"/>
		<path id="path1106" fill="#E0DCDC" d="M-12.6,214.6c0.3-0.1,1.1,2.1,1.4,5.7c0.4,4,0.1,8.2-0.5,14c0,0,0,0.2,0,0.2
			c-0.6,6.3-0.9,9.2-0.9,13.6c0,3.4,0.3,5.6,0,5.7c-0.3,0.1-1.3-1.9-1.8-5.5c-0.6-3.9-0.4-8.2,0.1-13.9c0,0,0-0.2,0-0.2
			c0.7-7,1-8.7,1.2-13.7C-12.9,216.8-13,214.6-12.6,214.6L-12.6,214.6z"/>
		<path id="path1107" fill="#E0DCDC" d="M-9.5,277.1c0.3-0.1,1.3,1.4,2.1,4.3c0.9,3.1,1.2,6.6,1.4,11.3c0,0,0,0.1,0,0.1
			c0.2,5.2,0.3,7.4,0.7,11c0.4,2.7,0.8,4.5,0.4,4.6c-0.3,0.1-1.4-1.4-2.2-4.2c-0.9-3.1-1.4-6.6-1.6-11.2c0,0,0-0.1,0-0.1
			c-0.3-5.5-0.2-7.2-0.6-11.1C-9.5,279-9.8,277.3-9.5,277.1L-9.5,277.1z"/>
		<path id="path1108" fill="#E0DCDC" d="M59.4,272.4c0.7,0.1,0.1,6.7-0.2,14.8c-0.3,8.2-0.7,14.9-1.4,14.9s-1.5-6.7-1.2-15
			C56.9,278.9,58.7,272.3,59.4,272.4L59.4,272.4z"/>
		<path id="path1109" fill="#E0DCDC" d="M-55.7,257.6c-0.3,0.1-1.4-2.3-1.8-6.4c-0.5-4.6,0.1-9.4,1.2-16.1c0-0.1,0.2-1,0.2-1
			c0.8-4.9,1.3-7.6,1.8-11.4c0.6-5.8-0.1-9.4,0.3-9.6c0.4-0.1,2.1,3.8,1.9,9.7c-0.1,3.7-0.6,7.2-1.3,11.7c-0.1,0.3-0.1,0.7-0.2,1
			c-1.1,7.1-1.8,10.7-1.9,15.6C-55.8,255-55.3,257.5-55.7,257.6L-55.7,257.6z"/>
		<path id="path1110" fill="#E0DCDC" d="M-86.2,238.8c0.4,0,0.8,1.2,1,3.4c0.2,2.6,0.1,4.7,0,8.2c0,0.1,0,0.2,0,0.2
			c0,3.3,0.1,5.5,0.6,7.6c0.4,1.8,1,3,0.7,3.2c-0.3,0.2-1.4-0.6-2.4-2.6c-1.1-2.1-1.7-4.9-1.6-8.3c0-0.1,0-0.2,0-0.2
			c0.1-2.8,0.6-6.6,0.8-8.2C-86.7,240.1-86.5,238.8-86.2,238.8L-86.2,238.8z"/>
		<path id="path1111" fill="#E0DCDC" d="M-55.7,270.9c0.3-0.1,1.1,1.2,1.5,3.7c0.5,2.6,0.4,5.6,0,9.4c0,0,0,0.1,0,0.1
			c-0.4,3.6-0.8,6.7-1,8.9c-0.2,2.2-0.1,3.7-0.5,3.8c-0.3,0.1-1-1.3-1.3-3.7c-0.3-2.6-0.2-5.5,0.3-9.3c0,0,0-0.1,0-0.1
			c0.5-4.3,0.7-6,0.8-8.9C-55.9,272.4-56,271-55.7,270.9L-55.7,270.9z"/>
		<path id="path1112" fill="#E0DCDC" d="M-86.2,271.7c0.7,0,1.3,3.2,1.3,7c0,3.9-0.6,7-1.3,7s-1.3-3.2-1.3-7
			C-87.5,274.8-86.9,271.7-86.2,271.7z"/>
		<path id="path1113" fill="#E0DCDC" d="M-117.5,257.6c-0.2,0.2-3-1.9-3.2-7.2c-0.1-2.4,0.3-4.8,1-7.5c0-0.1,0.1-0.2,0.1-0.4
			c0.7-2.8,1.5-5.2,2-7.3c0.9-3.9,0.5-6.4,0.9-6.6c0.5-0.2,1.8,2.5,1.2,7c-0.3,2.5-0.9,4.7-1.7,7.6c0,0-0.1,0.4-0.1,0.4
			c-0.7,2.7-1.1,4.7-1.2,6.9C-118.7,254.6-117.1,257.3-117.5,257.6L-117.5,257.6z"/>
		<path id="path1114" fill="#E0DCDC" d="M-114.4,272.4c0.7,0.1,0.5,5.1-0.6,10.8c0.1-0.6-0.2,1.2-0.1,0.6c-0.5,2.8-1.1,5.2-1.3,6.9
			c-0.2,1.7,0,2.8-0.4,2.9c-0.3,0.1-1.1-0.9-1.4-2.8c-0.4-2.1-0.1-4.5,0.5-7.4c0-0.2,0.1-0.4,0.1-0.6
			C-116.4,276.8-115.1,272.4-114.4,272.4L-114.4,272.4z"/>
	</g>
</g>
</svg>
