<?xml version="1.0" encoding="utf-8"?>
<!-- Generator: Adobe Illustrator 28.0.0, SVG Export Plug-In . SVG Version: 6.00 Build 0)  -->
<svg version="1.1" id="OBJECTS" xmlns="http://www.w3.org/2000/svg" xmlns:xlink="http://www.w3.org/1999/xlink" x="0px" y="0px"
	 width="500px" height="500px" viewBox="0 0 500 500" enable-background="new 0 0 500 500" xml:space="preserve">
<g id="g886" transform="matrix(0.82894289,0,0,0.82894289,144.75853,502.92053)">
	<path id="path832" fill="#EF5A58" d="M124.6-124.9c-76.1,0-168.2-11-224.3-27.8c-56.1-16.8-55-67.8-52.3-149.6h276.6h276.6
		c2.6,81.8,3.7,132.8-52.3,149.6C292.8-135.9,200.7-124.9,124.6-124.9L124.6-124.9z"/>
	<path id="path833" fill="#FA6F6B" d="M124.6-485.3c-76.1,0-168.2,11-224.3,27.8c-56.1,16.8-55,67.8-52.3,149.6h276.6h276.6
		c2.6-81.8,3.7-132.8-52.3-149.6C292.8-474.3,200.7-485.3,124.6-485.3L124.6-485.3z"/>
	<path id="path834" fill="#EF5A58" d="M100-424.5c-6.7,0.1-13.3,0.9-19.7,3c-13.9,4.6-23.9,21.1-39.7,21.1
		c-13.3,0-15.3-18.7-31.7-13.2c-12.2,4.1-17.6,15.4-26.4,19.8c-5.6,2.8-14.1-10.3-21.1-7.9c-10.5,3.5-18,14-25.1,21.1
		c-1.6,1.6-8.3-4.3-13.2-2.6c-6.6,2.2-7.7,10.5-13.2,13.2c-8.1,4-16.4-9-21.1-6.6c-10.8,5.4-14.3,21-17.2,22.4
		c-8.1,4.1-16.2-9.3-24.2-14.2c-0.7,17.8-0.1,37.8,0.6,60.3h276.6h276.6c0.7-22.5,1.3-42.6,0.6-60.3c-7.9,4.8-16.1,18.2-24.2,14.2
		c-2.9-1.5-6.4-17-17.2-22.4c-4.8-2.4-13.1,10.6-21.1,6.6c-5.5-2.7-6.6-11-13.2-13.2c-4.9-1.6-11.6,4.3-13.2,2.6
		c-7.2-7.1-14.6-17.6-25.1-21.1c-7-2.3-15.6,10.7-21.1,7.9c-8.8-4.4-14.3-15.8-26.4-19.8c-16.5-5.5-18.4,13.2-31.7,13.2
		c-15.8,0-25.8-16.5-39.7-21.1c-6.3-2.1-12.9-2.9-19.7-3c-8.2-0.1-16.5,0.9-24.6,1.9C116.5-423.6,108.2-424.6,100-424.5L100-424.5z"
		/>
	<path id="path835" fill="#A01515" d="M-141.1-290.7c0,0,5.1-5.6,12.1-7c7.1-1.4,204.2-21.5,251.2-7.5c22.2,2.3,25.8,5.6,26.3,8.9
		c0.5,3.3-0.5,11.2-0.5,11.2S-116.8-276.7-141.1-290.7L-141.1-290.7z"/>
	<path id="path860" fill="#A01515" d="M395.1-290.7c0,0-4.7-5.6-11.2-7c-6.5-1.4-188.8-21.5-232.2-7.5c-20.6,2.3-23.8,5.6-24.3,8.9
		c-0.5,3.3,0.5,11.2,0.5,11.2S372.6-276.7,395.1-290.7L395.1-290.7z"/>
	<path id="path885" fill="#FA6F6B" d="M-127.8-236.7c0,0-13.1,7.5-5.6,29.9c7.5,22.4,39.2,37.3,61.7,46.7
		c22.4,9.3,209.3,22.4,265.4,18.7c56.1-3.7,153.3-13.1,168.2-29.9c15-16.8,28-44.8,15-50.4c-13.1-5.6-18.7-14.9-44.9,1.9
		c-26.2,16.8-44.9,9.3-71,18.7c-26.2,9.3-44.9,13.1-76.6,14.9c-31.8,1.9-54.2,0-93.5,1.9s-65.4-3.7-117.7-11.2
		C-79.2-203.1-101.6-249.8-127.8-236.7L-127.8-236.7z"/>
	<path id="path886" opacity="0.15" fill="#FFFFFF" d="M-111-429.2c16.8-13.1,65.4-20.5,106.5-28s194.4-13.1,233.6-9.3
		c39.2,3.7,127.1,22.4,129,31.7c1.9,9.3,1.9,22.4-24.3,11.2c-26.2-11.2-138.3-35.5-228-29.9s-130.8,16.8-179.4,28
		S-120.3-403.1-111-429.2z"/>
	<g>
		<path fill="#FFFFFF" d="M398.5-291.8c4.2-1.1,7.2-3.4,8-6.9c1.4-6,0-42-11.2-45.2c-11.2-3.2-19.2,11.6-19.2,11.6v0
			c0,0-0.4,2.1-0.9,5.3c-1.6-13.2-4.7-25.9-10.3-28c-11.2-4.1-19.2,15.2-19.2,15.2s-1,7.3-2.1,16.2c-1.1-16-4.3-34.8-11.2-37.4
			c-8.5-3.2-15.1,7.3-17.8,12.6c-2-12-5.5-22.3-10.6-26.4v0c-9.3-7.5-17.8-7.5-29,2.8c-11.2,10.3-9.3,65.4-4.7,73.8
			c1.5,2.8,5.7,4.6,10.8,5.7c-7.4,0.7-13.9,2.3-16,5.1c-0.1,0.1-0.1,0.2-0.2,0.3c-1.7-3.2-8.2-5.3-16.5-6.5c2.9-0.4,5.3-1,6.7-1.8
			c8.2-4.7,15.1-70.9,1-85.7c-14.8-9.2-29.1-7.9-38.5,6.1c-2.6,3.9-5.2,10.9-7.4,19.1c-5.6-37.2-19.8-48.4-50.3-45.6
			c-23.9,2.2-31.3,34.9-33.1,63.2c-1.8-28.4-9.1-61-33.1-63.2c-42.8-4-53.5,19.8-53.5,104.3h0c1.1,2.2,4.5,3.9,9.5,5.1
			c-17.5-4.6-56.4-3.6-61,4.9c-0.1-0.1-0.1-0.2-0.2-0.3c-2-2.9-8.6-4.5-16-5.1c5.1-1.1,9.3-3,10.8-5.7c0.7-1.2,1.3-3.4,1.8-6.2
			c12.3,5.9,37,11.1,43,7.8c7.4-4,16.1-59.2,11.6-75.4c-4.5-16.3-17.6-22.1-34.6-18c-7.8,4.2-15,18.8-20.1,34.7
			c-1.3-7.6-3.4-13.8-6.5-16.6c-11.2-10.3-19.6-10.3-29-2.8v0c-5.7,4.6-9.3,16.9-11.2,30.5c-2.2-5.9-7.1-15.3-15.2-13.5
			c-5.6,1.2-10.5,12.7-14,25.2c-0.7-4.9-1.2-8.3-1.2-8.3s-7.9-18-19.2-14.1c-5.8,2-8.9,14.5-10.5,27.2c-0.5-2.6-0.8-4.4-0.8-4.4v0
			c0,0-7.9-14.8-19.2-11.6c-11.2,3.2-12.6,39.2-11.2,45.2c0.8,3.5,3.8,5.8,8,6.9c-4.2,0.8-7.2,2.7-8,5.4c-1.4,4.7,0,32.6,11.2,35.1
			c11.2,2.5,19.2-9,19.2-9s0.3-1.4,0.8-3.4c1.5,9.8,4.7,19.6,10.5,21.1c11.2,3,19.2-11,19.2-11s1.3-6.8,2.5-14.3
			c1.1,12.6,4.2,27.7,11.2,29.8c11.2,3.3,19.2-12,19.2-12v0c0,0,0.8-4.2,1.6-9.7c1.3,13.6,5.2,27.4,12.3,31.9l0,0
			c9.3,5.8,17.8,5.8,29-2.2c3.6-2.6,5.8-8.7,7.1-16C-4.2-217.7,8-210.9,32.8-213c17.6-1.5,23.8-21.3,25.8-40
			c4.1,36,16.2,47.1,42.5,44.7c18.5-1.7,24.4-25.9,26-47.6c1.6,21.7,7.5,45.9,26,47.6c26.3,2.4,38.4-8.7,42.5-44.7
			c1.9,18.7,8.2,38.5,25.8,40c24.8,2.2,36.9-4.7,41.7-33.1c1.2,7.4,3.5,13.5,7.1,16c11.2,8,19.6,8,29,2.2l0,0
			c7.1-4.5,11.1-18.3,12.3-31.9c0.9,5.5,1.6,9.7,1.6,9.7v0c0,0,7.9,15.2,19.2,12c7-2,10.2-17.2,11.2-29.8c1.1,7.5,2.5,14.3,2.5,14.3
			s7.9,13.9,19.2,11c5.8-1.5,8.9-11.3,10.5-21.1c0.5,2.1,0.8,3.4,0.8,3.4s7.9,11.5,19.2,9c11.2-2.5,12.6-30.4,11.2-35.1
			C405.7-289.2,402.6-291,398.5-291.8z M-119.9-288.9c-2.4-1.5-5.5-1.9-13-3c7.5-1.4,10.6-1.9,13-3.8c1.5,1.8,3.7,3.1,6.3,3.8
			C-116.2-291.3-118.4-290.3-119.9-288.9z M-88.3-286.9c-0.1-0.1-0.1-0.2-0.2-0.3c-2.8-2.6-5.6-3-14.7-4.6c4-0.9,6.8-1.5,8.9-2.2
			c1.7,2.5,4.4,4.2,7.7,5.1C-87.3-288.3-87.9-287.7-88.3-286.9z M-55.6-286.7C-55.6-286.7-55.6-286.8-55.6-286.7
			c-2.3-2.4-4.6-3.1-10.2-4.2c0.8-0.5,1.5-1,2.2-1.7c0.9-0.9,1.6-4.7,2.1-9.8c0.9,4.8,2.2,8.1,3.9,8.9c1.8,0.8,4.7,1.4,8,1.9
			c-1.1,0.2-2.1,0.4-2.8,0.7C-53.7-290.5-54.8-289-55.6-286.7z M50.5-291.8c2.4,0.6,5.2,1,8.3,1.4c-0.6,0.1-1.3,0.2-1.9,0.3
			c0,0.3,0,0.7,0,1C55.5-290.1,53.3-291,50.5-291.8z M127.3-290.1c0,0-0.2,1.6-0.3,4.2c-0.2-2.7-0.3-4.2-0.3-4.2s-5.4-0.7-13.8-1.4
			c7.7-1.2,13.1-2.8,13.6-4.6c0,0,0.3-2.9,0.6-7.7c0.3,4.8,0.6,7.7,0.6,7.7c0.5,1.8,5.9,3.4,13.6,4.6
			C132.7-290.8,127.3-290.1,127.3-290.1z M195.2-290.4c3-0.4,5.8-0.8,8.3-1.4c-2.8,0.8-5,1.7-6.3,2.7c0-0.3,0-0.7,0-1
			C196.5-290.2,195.9-290.3,195.2-290.4z M204-291.9c4.2-1,7.3-2.4,8.8-4.1c2.5,0.7,5.3,1.2,8.3,1.7
			C214.6-293.9,208.6-293.1,204-291.9z M309.6-286.8C309.6-286.8,309.6-286.7,309.6-286.8c-0.9-2.2-1.9-3.8-3.2-4.2
			c-0.8-0.3-1.8-0.5-2.8-0.7c3.3-0.4,6.1-1,8-1.9c0.6-0.3,1.2-1,1.7-1.9c2.3,1.3,5.6,2.1,11.6,3.6c-0.1,0-0.2,0-0.3,0
			C315.2-290,312.4-289.7,309.6-286.8z M342.4-287.2c-0.1,0.1-0.1,0.2-0.2,0.3c-1.4-2.4-4-4-7.4-4.8c2.9-0.8,5.3-2.4,6.9-4.7
			c0.1,1.6,0.3,2.8,0.7,3.3c1.3,1.7,2.6,2.7,4.4,3.5C345-289.2,343.7-288.4,342.4-287.2z M373.9-288.9c-0.3-0.3-0.8-0.6-1.2-0.9
			c1.4-1.3,2.4-2.9,2.9-4.9c2.3,1.1,5.4,1.7,11.3,2.8C379.4-290.7,376.3-290.4,373.9-288.9z"/>
		<path opacity="0.32" fill="#E0DCDC" d="M398.5-291.8c4.2-1.1,7.2-3.4,8-6.9c1.4-6,0-42-11.2-45.2c-11.2-3.2-19.2,11.6-19.2,11.6v0
			c0,0-0.4,2.1-0.9,5.3c-1.6-13.2-4.7-25.9-10.3-28c-11.2-4.1-19.2,15.2-19.2,15.2s-1,7.3-2.1,16.2c-1.1-16-4.3-34.8-11.2-37.4
			c-8.5-3.2-15.1,7.3-17.8,12.6c-2-12-5.5-22.3-10.6-26.4v0c-9.3-7.5-17.8-7.5-29,2.8c-11.2,10.3-9.3,65.4-4.7,73.8
			c1.5,2.8,5.7,4.6,10.8,5.7c-7.4,0.7-13.9,2.3-16,5.1c-0.1,0.1-0.1,0.2-0.2,0.3c-1.7-3.2-8.2-5.3-16.5-6.5c2.9-0.4,5.3-1,6.7-1.8
			c8.2-4.7,15.1-70.9,1-85.7c-14.8-9.2-29.1-7.9-38.5,6.1c-2.6,3.9-5.2,10.9-7.4,19.1c-5.6-37.2-19.8-48.4-50.3-45.6
			c-23.9,2.2-31.3,34.9-33.1,63.2c-1.8-28.4-9.1-61-33.1-63.2c-42.8-4-53.5,19.8-53.5,104.3h0c1.1,2.2,4.5,3.9,9.5,5.1
			c-17.5-4.6-56.4-3.6-61,4.9c-0.1-0.1-0.1-0.2-0.2-0.3c-2-2.9-8.6-4.5-16-5.1c5.1-1.1,9.3-3,10.8-5.7c0.7-1.2,1.3-3.4,1.8-6.2
			c12.3,5.9,37,11.1,43,7.8c7.4-4,16.1-59.2,11.6-75.4c-4.5-16.3-17.6-22.1-34.6-18c-7.8,4.2-15,18.8-20.1,34.7
			c-1.3-7.6-3.4-13.8-6.5-16.6c-11.2-10.3-19.6-10.3-29-2.8v0c-5.7,4.6-9.3,16.9-11.2,30.5c-2.2-5.9-7.1-15.3-15.2-13.5
			c-5.6,1.2-10.5,12.7-14,25.2c-0.7-4.9-1.2-8.3-1.2-8.3s-7.9-18-19.2-14.1c-5.8,2-8.9,14.5-10.5,27.2c-0.5-2.6-0.8-4.4-0.8-4.4v0
			c0,0-7.9-14.8-19.2-11.6c-11.2,3.2-12.6,39.2-11.2,45.2c0.8,3.5,3.8,5.8,8,6.9c-4.2,0.8-7.2,2.7-8,5.4c-1.4,4.7,0,32.6,11.2,35.1
			c11.2,2.5,19.2-9,19.2-9s0.3-1.4,0.8-3.4c1.5,9.8,4.7,19.6,10.5,21.1c11.2,3,19.2-11,19.2-11s1.3-6.8,2.5-14.3
			c1.1,12.6,4.2,27.7,11.2,29.8c11.2,3.3,19.2-12,19.2-12v0c0,0,0.8-4.2,1.6-9.7c1.3,13.6,5.2,27.4,12.3,31.9l0,0
			c9.3,5.8,17.8,5.8,29-2.2c3.6-2.6,5.8-8.7,7.1-16C-4.2-217.7,8-210.9,32.8-213c17.6-1.5,23.8-21.3,25.8-40
			c4.1,36,16.2,47.1,42.5,44.7c18.5-1.7,24.4-25.9,26-47.6c1.6,21.7,7.5,45.9,26,47.6c26.3,2.4,38.4-8.7,42.5-44.7
			c1.9,18.7,8.2,38.5,25.8,40c24.8,2.2,36.9-4.7,41.7-33.1c1.2,7.4,3.5,13.5,7.1,16c11.2,8,19.6,8,29,2.2l0,0
			c7.1-4.5,11.1-18.3,12.3-31.9c0.9,5.5,1.6,9.7,1.6,9.7v0c0,0,7.9,15.2,19.2,12c7-2,10.2-17.2,11.2-29.8c1.1,7.5,2.5,14.3,2.5,14.3
			s7.9,13.9,19.2,11c5.8-1.5,8.9-11.3,10.5-21.1c0.5,2.1,0.8,3.4,0.8,3.4s7.9,11.5,19.2,9c11.2-2.5,12.6-30.4,11.2-35.1
			C405.7-289.2,402.6-291,398.5-291.8z M-119.9-288.9c-2.4-1.5-5.5-1.9-13-3c7.5-1.4,10.6-1.9,13-3.8c1.5,1.8,3.7,3.1,6.3,3.8
			C-116.2-291.3-118.4-290.3-119.9-288.9z M-88.3-286.9c-0.1-0.1-0.1-0.2-0.2-0.3c-2.8-2.6-5.6-3-14.7-4.6c4-0.9,6.8-1.5,8.9-2.2
			c1.7,2.5,4.4,4.2,7.7,5.1C-87.3-288.3-87.9-287.7-88.3-286.9z M-55.6-286.7C-55.6-286.7-55.6-286.8-55.6-286.7
			c-2.3-2.4-4.6-3.1-10.2-4.2c0.8-0.5,1.5-1,2.2-1.7c0.9-0.9,1.6-4.7,2.1-9.8c0.9,4.8,2.2,8.1,3.9,8.9c1.8,0.8,4.7,1.4,8,1.9
			c-1.1,0.2-2.1,0.4-2.8,0.7C-53.7-290.5-54.8-289-55.6-286.7z M50.5-291.8c2.4,0.6,5.2,1,8.3,1.4c-0.6,0.1-1.3,0.2-1.9,0.3
			c0,0.3,0,0.7,0,1C55.5-290.1,53.3-291,50.5-291.8z M127.3-290.1c0,0-0.2,1.6-0.3,4.2c-0.2-2.7-0.3-4.2-0.3-4.2s-5.4-0.7-13.8-1.4
			c7.7-1.2,13.1-2.8,13.6-4.6c0,0,0.3-2.9,0.6-7.7c0.3,4.8,0.6,7.7,0.6,7.7c0.5,1.8,5.9,3.4,13.6,4.6
			C132.7-290.8,127.3-290.1,127.3-290.1z M195.2-290.4c3-0.4,5.8-0.8,8.3-1.4c-2.8,0.8-5,1.7-6.3,2.7c0-0.3,0-0.7,0-1
			C196.5-290.2,195.9-290.3,195.2-290.4z M204-291.9c4.2-1,7.3-2.4,8.8-4.1c2.5,0.7,5.3,1.2,8.3,1.7
			C214.6-293.9,208.6-293.1,204-291.9z M309.6-286.8C309.6-286.8,309.6-286.7,309.6-286.8c-0.9-2.2-1.9-3.8-3.2-4.2
			c-0.8-0.3-1.8-0.5-2.8-0.7c3.3-0.4,6.1-1,8-1.9c0.6-0.3,1.2-1,1.7-1.9c2.3,1.3,5.6,2.1,11.6,3.6c-0.1,0-0.2,0-0.3,0
			C315.2-290,312.4-289.7,309.6-286.8z M342.4-287.2c-0.1,0.1-0.1,0.2-0.2,0.3c-1.4-2.4-4-4-7.4-4.8c2.9-0.8,5.3-2.4,6.9-4.7
			c0.1,1.6,0.3,2.8,0.7,3.3c1.3,1.7,2.6,2.7,4.4,3.5C345-289.2,343.7-288.4,342.4-287.2z M373.9-288.9c-0.3-0.3-0.8-0.6-1.2-0.9
			c1.4-1.3,2.4-2.9,2.9-4.9c2.3,1.1,5.4,1.7,11.3,2.8C379.4-290.7,376.3-290.4,373.9-288.9z"/>
		<path id="path839" fill="#FFFFFF" d="M78.6-396.1c-14.2,7.5-20.8,25.2-22.5,35.5c-1.7,10.3-6.7,51.4,1.7,53.2
			c8.3,1.9,53.4,6.5,55.9-2.8c2.5-9.3,1.7-56-6.7-71.9C98.6-397.9,86.9-400.7,78.6-396.1L78.6-396.1z"/>
		<path id="path840" fill="#FFFFFF" d="M14.1-385.7c-14.6,6.7-32.8,51.7-28.3,63c4.5,11.3,17.9,11,27.7,4.4
			C23.4-325,34.8-389.4,14.1-385.7L14.1-385.7z"/>
		<path id="path842" fill="#FFFFFF" d="M-41.8-373.8c-14,8.4-15,30.8-15,47.6s0.9,25.2,15.9,19.6c15-5.6,15.8-35.7,14-49.5
			C-27.9-364.2-31.5-380.4-41.8-373.8L-41.8-373.8z"/>
		<path id="path843" fill="#FFFFFF" d="M-75-355.5c-6.2,3.8-19.3,47.2-13.2,50.4c6.1,3.3,12.8,6.1,15.7-1
			C-69.5-313.2-63.3-354.8-75-355.5z"/>
		<path id="path845" fill="#FFFFFF" d="M-113.4-347.7c-3.8,5.9-5.5,37.6-2.1,40.3c3.4,2.6,8.1,5.3,9-4
			C-105.7-320.6-106.6-353.6-113.4-347.7z"/>
		<path id="path847" fill="#FFFFFF" d="M-143.5-337.8c-4.2,4.9-6,31.1-2.3,33.3c3.7,2.2,8.8,4.4,9.7-3.3
			C-135.2-315.5-136.1-342.7-143.5-337.8z"/>
		<path id="path850" fill="#FFFFFF" d="M88.3-223.5c-11-5.2-16.1-17.6-17.4-24.7c-1.3-7.2-5.2-35.8,1.3-37.1
			c6.5-1.3,41.3-4.6,43.2,2c1.9,6.5,1.3,39-5.2,50.1C103.8-222.2,94.8-220.2,88.3-223.5z"/>
		<path id="path852" fill="#FFFFFF" d="M-36.7-228.7c-14-6.5-15-23.9-15-37c0-13,0.9-19.6,15.9-15.2c15,4.3,15.8,27.7,14,38.4
			C-22.8-236.1-26.4-223.6-36.7-228.7L-36.7-228.7z"/>
		<path id="path853" fill="#FFFFFF" d="M-76.2-239.8c-5.6-3.6-12.1-38.4-5.6-40.2c6.5-1.8,13.6-3.3,15.4,2.5
			C-64.5-271.7-64.5-239-76.2-239.8z"/>
		<path id="path855" fill="#FFFFFF" d="M-113.4-248.5c-3.8-4.6-5.5-29.2-2.1-31.3c3.4-2.1,8.1-4.1,9,3.1
			C-105.7-269.5-106.6-243.9-113.4-248.5z"/>
		<path id="path857" fill="#FFFFFF" d="M-143.5-256.1c-4.2-3.8-6-24.1-2.3-25.8c3.7-1.7,8.8-3.4,9.7,2.5
			C-135.2-273.5-136.1-252.3-143.5-256.1L-143.5-256.1z"/>
		<path id="path859" fill="#FFFFFF" d="M20.1-227.5c-11-5-16.1-16.8-17.4-23.6c-1.3-6.8-5.2-34.2,1.3-35.4
			c6.5-1.2,41.3-4.4,43.2,1.9c1.9,6.2,1.3,37.3-5.2,47.9C35.6-226.2,26.6-224.4,20.1-227.5L20.1-227.5z"/>
		<path id="path864" fill="#FFFFFF" d="M175.4-396.1c14.2,7.5,20.8,25.2,22.5,35.5c1.7,10.3,6.7,51.4-1.7,53.2
			c-8.3,1.9-53.4,6.5-55.9-2.8c-2.5-9.3-1.7-56,6.7-71.9C155.4-397.9,167.1-400.7,175.4-396.1L175.4-396.1z"/>
		<path id="path865" fill="#FFFFFF" d="M246.7-379.7c11.7,11,14.7,59.4,6.9,68.7c-7.8,9.3-20.4,4.8-27.7-4.6
			C218.7-325,228.2-389.7,246.7-379.7z"/>
		<path id="path867" fill="#FFFFFF" d="M295.8-373.8c14,8.4,15,30.8,15,47.6s-0.9,25.2-15.9,19.6c-15-5.6-15.8-35.7-14-49.5
			C281.9-364.2,285.5-380.4,295.8-373.8L295.8-373.8z"/>
		<path id="path868" fill="#FFFFFF" d="M330.6-358.9c5.6,4.7,12.1,49.5,5.6,51.8c-6.5,2.3-13.6,4.2-15.4-3.3
			C318.9-317.8,318.9-359.8,330.6-358.9L330.6-358.9z"/>
		<path id="path870" fill="#FFFFFF" d="M367.4-347.1c3.8,6.4,5.5,40.6,2.1,43.4c-3.4,2.8-8.1,5.7-9-4.3
			C359.7-317.9,360.6-353.5,367.4-347.1z"/>
		<path id="path872" fill="#FFFFFF" d="M397.5-337.8c4.2,4.9,6,31.1,2.3,33.3c-3.7,2.2-8.8,4.4-9.7-3.3
			C389.1-315.5,390.1-342.7,397.5-337.8z"/>
		<path id="path875" fill="#FFFFFF" d="M165.6-223.5c11-5.2,16.1-17.6,17.4-24.7c1.3-7.2,5.2-35.8-1.3-37.1
			c-6.5-1.3-41.3-4.6-43.2,2c-1.9,6.5-1.3,39,5.2,50.1C150.2-222.2,159.2-220.2,165.6-223.5z"/>
		<path id="path877" fill="#FFFFFF" d="M290.6-228.7c14-6.5,15-23.9,15-37c0-13-0.9-19.6-15.9-15.2c-15,4.3-15.8,27.7-14,38.4
			C276.7-236.1,280.4-223.6,290.6-228.7L290.6-228.7z"/>
		<path id="path878" fill="#FFFFFF" d="M330.1-239.8c5.6-3.6,12.1-38.4,5.6-40.2c-6.5-1.8-13.6-3.3-15.4,2.5
			C318.5-271.7,318.5-239,330.1-239.8z"/>
		<path id="path880" fill="#FFFFFF" d="M367.4-248.5c3.8-4.6,5.5-29.2,2.1-31.3c-3.4-2.1-8.1-4.1-9,3.1
			C359.7-269.5,360.6-243.9,367.4-248.5z"/>
		<path id="path882" fill="#FFFFFF" d="M397.5-256.1c4.2-3.8,6-24.1,2.3-25.8c-3.7-1.7-8.8-3.4-9.7,2.5
			C389.1-273.5,390.1-252.3,397.5-256.1L397.5-256.1z"/>
		<path id="path884" fill="#FFFFFF" d="M233.9-227.5c11-5,16.1-16.8,17.4-23.6c1.3-6.8,5.2-34.2-1.3-35.4
			c-6.5-1.2-41.3-4.4-43.2,1.9c-1.9,6.2-1.3,37.3,5.2,47.9C218.4-226.2,227.4-224.4,233.9-227.5L233.9-227.5z"/>
		<path id="path960" fill="#E0DCDC" d="M210.6-353.2c0,0,5.6,50.1,1.7,57.4C220.7-301.4,216.2-347.6,210.6-353.2z"/>
		<path id="path961" fill="#E0DCDC" d="M-15.5-355.5c0,0-9.6,33.8-10.1,40.5c-0.6,6.8,8.5,9,8.5,9s-4.5-5.6-3.9-10.7
			C-20.6-321.7-15.5-355.5-15.5-355.5z"/>
		<path id="path962" fill="#E0DCDC" d="M348.2-289c0,0,18.6,3.9,24.2,0C369.1-281.7,355.5-281.1,348.2-289z"/>
		<path id="path963" fill="#E0DCDC" d="M-61.8-342.6c0,0-0.4,35,0,39.4C-66.2-311.5-63.8-339-61.8-342.6z"/>
		<path id="path964" fill="#E0DCDC" d="M-90.9-331.4c0,0-6.8,26.3-3.6,36.2C-101.6-305.1-96.1-325.4-90.9-331.4z"/>
		<path id="path1052" fill="#E0DCDC" d="M127.5-339.4c0.3-0.1,1.3,2,1.7,5.7c0.5,4.1,0.2,8.4-0.7,14.4c0,0-0.1,0.5-0.1,0.5
			c-0.9,6.8-1.5,8.8-1.6,13.6c-0.1,3.4,0.2,5.5-0.2,5.6c-0.3,0.1-1.3-2-1.7-5.6c-0.4-4.1,0.1-8.1,0.9-14c0-0.2,0-0.3,0.1-0.5
			c0.8-6.5,1.3-9.4,1.4-13.9C127.5-337.1,127.2-339.3,127.5-339.4z"/>
		<path id="path1053" fill="#E0DCDC" d="M142.7-290.7c0.1-0.4,2.7,0.1,6.9,0.5c4.7,0.4,9.4,0.5,16.4,0.2c7.4-0.3,11.5-0.6,16.8-0.6
			c4.3,0,7,0.4,7,0.8c0,0.4-2.6,0.7-6.9,1.1c-3.6,0.4-10.9,1.1-16.8,1.4c-6.9,0.3-12.3-0.1-16.8-1
			C145-289.2,142.6-290.3,142.7-290.7z"/>
		<path id="path1054" fill="#E0DCDC" d="M65.3-289.1c0-0.4,2.7-1,7.3-1.3c5.3-0.3,10,0.1,17.6,0.5v0c7.5,0.4,12.3,0.4,17.3-0.1
			c4.4-0.4,7.1-1.1,7.2-0.8c0.1,0.3-2.4,1.7-6.9,2.6c-4.8,1-10.5,1.3-17.8,0.9v0c-5.8-0.3-11.7-1-17.5-1.3
			C68.2-288.7,65.4-288.7,65.3-289.1L65.3-289.1z"/>
		<path id="path1055" fill="#E0DCDC" d="M-11.2-283.5c0.4,0,1,2,1.4,5.4c0.5,4,0.5,7.4,0.8,13.2c0,0.2,0,0.4,0,0.6
			c0.3,5.7,0.5,8.8,1.3,12.5c0.7,3,1.5,4.8,1.2,5c-0.3,0.2-1.7-1.3-3-4.5c-1.4-3.4-2-7.5-2.2-12.9c0-0.2,0-0.4,0-0.6
			c-0.2-4.3-0.1-10.7,0-13.2C-11.6-281.3-11.6-283.4-11.2-283.5L-11.2-283.5z"/>
		<path id="path1056" fill="#E0DCDC" d="M-51.8-286.7c0.7,0.1-0.6,7.8-1.7,16.9c-1.1,9.1,0,16.3-0.7,16.5c-0.7,0.2-3.1-7.4-2-16.8
			C-55.1-279.5-52.6-286.8-51.8-286.7z"/>
		<path id="path1057" fill="#E0DCDC" d="M-86.9-283.5c0.5,0.2,0.3,3.5,0.6,7.4c0.3,4.1,0.2,7.7-0.6,7.7c-0.7,0.1-1.9-3.2-2.1-7.6
			C-89.2-280.4-87.8-283.8-86.9-283.5z"/>
		<path id="path1058" fill="#E0DCDC" d="M-121.2-295.4c-0.5,0.2-4.9-6-5.8-15.7c-0.9-9.7,2.7-16.5,3.4-16.2
			c0.7,0.3-1.6,7.2-0.8,15.9C-123.5-302.6-120.5-295.7-121.2-295.4z"/>
		<path id="path1059" fill="#E0DCDC" d="M-121.2-285.9c0.7,0.2,0.2,3.4,0.6,7.7c0.4,4.3,0.1,8.2-0.6,8.2c-0.7,0-1.7-3.4-2-8
			C-123.6-282.5-121.9-286.1-121.2-285.9z"/>
		<path id="path1060" fill="#E0DCDC" d="M265.4-285.1c0.5-0.3,3.2,2.8,3.2,9.2c0,3.1-0.4,6.2-1.2,9.8c-0.1,0.4-0.2,0.9-0.3,1.3l0,0
			c-0.9,3.8-1.8,7.2-2.3,10c-0.7,4.4,0.2,6.9-0.2,7.2c-0.6,0.4-2.4-2.4-1.9-7.4c0.3-3.3,0.9-6.3,1.8-10.3l0,0
			c0.1-0.5,0.2-0.7,0.3-1.3c0.8-3.6,1.3-6.4,1.5-9.3C266.7-281.4,265-284.8,265.4-285.1L265.4-285.1z"/>
		<path id="path1061" fill="#E0DCDC" d="M200.1-282.7c0.7,0.1,0.5,6.9-0.3,15.3c-0.8,8.4-2.2,15.1-2.9,15c-0.7-0.1-0.5-6.9,0.3-15.3
			C197.9-276,199.3-282.8,200.1-282.7z"/>
		<path id="path1062" fill="#E0DCDC" d="M124.3-281.1c0.7,0,0.8,6.5,0.3,14.4c-0.5,7.9-1.2,14.3-1.9,14.3s-1.3-6.5-0.8-14.4
			C122.5-274.8,123.6-281.1,124.3-281.1z"/>
		<path id="path1063" fill="#E0DCDC" d="M60.6-285.1c0.7,0.2-0.5,7.1-0.3,15.5c0.2,8.5,1.8,15.3,1.1,15.5c-0.7,0.2-3.5-6.4-3.7-15.5
			C57.4-278.5,59.9-285.2,60.6-285.1L60.6-285.1z"/>
		<path id="path1064" fill="#E0DCDC" d="M312.5-285.9c0.7,0.1,0.3,5.4-0.2,12c-0.5,6.6-1.5,12-2.2,11.9c-0.7-0.1-0.9-5.4-0.4-12.1
			C310.1-280.7,311.7-286,312.5-285.9L312.5-285.9z"/>
		<path id="path1065" fill="#E0DCDC" d="M312.5-300.2c-0.3-0.1,0-1.4,0.2-3.9c0.2-2.1,0.2-3.1,0.4-5.9c0.2-2.8,0.6-8.8,0.8-12.7
			c0.1-0.8,0.1-1.6,0.2-2.4c0.5-5.7,0.9-10,1.6-13.8c0.3-1.9,0.6-3.3,1.1-4.4c0.2-0.5,0.4-0.9,0.6-1.2l0,0c0.2-0.4,0.7-0.4,0.7-0.3
			s0,0.2-0.1,0.6l0,0c-0.1,0.4-0.1,0.6-0.1,1.2c-0.1,1.1-0.2,2.5-0.3,4.4c-0.1,1.6-0.5,10.3-0.8,13.8c-0.1,0.8-0.1,1.6-0.2,2.4
			c-0.4,4.8-0.8,9-1.3,12.7c-0.3,2.4-0.7,4.3-1.1,5.9C313.5-301.4,312.8-300.1,312.5-300.2L312.5-300.2z"/>
		<path id="path1066" fill="#E0DCDC" d="M342.7-325.7c0.3-0.1,1.4,1.3,2,4.1c0.7,3,0.6,6.4,0,10.8c0,0.1,0,0.3-0.1,0.4
			c-0.6,4.9-1.1,6.7-1.1,10c0,2.5,0.4,4,0.1,4.1c-0.3,0.1-1.3-1.2-1.9-4c-0.6-3-0.3-6.2,0.3-10.5c0,0,0.1-0.4,0.1-0.4
			c0.6-4.6,1-7.1,0.8-10.2C342.8-323.9,342.4-325.6,342.7-325.7L342.7-325.7z"/>
		<path id="path1067" fill="#E0DCDC" d="M374.8-327.3c0.7-0.1,2.3,7.2,2.3,16.3c0,9.1-0.8,16.4-1.5,16.4s-1.1-7.4-1.1-16.4
			C374.5-320,374.1-327.2,374.8-327.3z"/>
		<path id="path1068" fill="#E0DCDC" d="M376.2-285.9c0.8,0,1.5,3.9,0.6,8.6c-0.8,4.7-2.3,8.2-3,8.1c-0.7-0.1-0.4-4,0.4-8.6
			C375.1-282.1,375.6-285.8,376.2-285.9L376.2-285.9z"/>
		<path id="path1069" fill="#E0DCDC" d="M346.7-287.5c0.7,0.1,0.9,4.4,0.8,9.6c-0.1,5.1-0.1,9.4-0.8,9.5c-0.8,0.1-1.9-4.1-1.8-9.6
			C345-283.3,346-287.5,346.7-287.5L346.7-287.5z"/>
	</g>
</g>
</svg>
