<?xml version="1.0" encoding="utf-8"?>
<!-- Generator: Adobe Illustrator 28.0.0, SVG Export Plug-In . SVG Version: 6.00 Build 0)  -->
<svg version="1.1" id="OBJECTS" xmlns="http://www.w3.org/2000/svg" xmlns:xlink="http://www.w3.org/1999/xlink" x="0px" y="0px"
	 width="500px" height="500px" viewBox="0 0 500 500" enable-background="new 0 0 500 500" xml:space="preserve">
<g id="g959" transform="matrix(0.82894289,0,0,0.82894289,-110.07061,502.92053)">
	<path id="path905" fill="#EF5A58" d="M432-124.9c-76.1,0-168.2-11-224.3-27.8c-56.1-16.8-55-67.8-52.3-149.6H432h276.6
		c2.6,81.8,3.7,132.8-52.3,149.6C600.2-135.9,508.1-124.9,432-124.9L432-124.9z"/>
	<path id="path932" fill="#FA6F6B" d="M432-485.3c-76.1,0-168.2,11-224.3,27.8c-56.1,16.8-55,67.8-52.3,149.6H432h276.6
		c2.6-81.8,3.7-132.8-52.3-149.6C600.2-474.3,508.1-485.3,432-485.3L432-485.3z"/>
	<path id="path933" fill="#EF5A58" d="M407.4-424.5c-6.7,0.1-13.3,0.9-19.7,3c-13.9,4.6-23.9,21.1-39.7,21.1
		c-13.3,0-15.3-18.7-31.7-13.2c-12.2,4.1-17.6,15.4-26.4,19.8c-5.6,2.8-14.1-10.3-21.1-7.9c-10.5,3.5-18,14-25.1,21.1
		c-1.6,1.6-8.3-4.3-13.2-2.6c-6.6,2.2-7.7,10.5-13.2,13.2c-8.1,4-16.4-9-21.1-6.6c-10.8,5.4-14.3,21-17.2,22.4
		c-8.1,4.1-16.2-9.3-24.2-14.2c-0.7,17.8-0.1,37.8,0.6,60.3H432h276.6c0.7-22.5,1.3-42.6,0.6-60.3c-7.9,4.8-16.1,18.2-24.2,14.2
		c-2.9-1.5-6.4-17-17.2-22.4c-4.8-2.4-13.1,10.6-21.1,6.6c-5.5-2.7-6.6-11-13.2-13.2c-4.9-1.6-11.6,4.3-13.2,2.6
		c-7.2-7.1-14.6-17.6-25.1-21.1c-7-2.3-15.6,10.7-21.1,7.9c-8.8-4.4-14.3-15.8-26.4-19.8c-16.5-5.5-18.4,13.2-31.7,13.2
		c-15.8,0-25.8-16.5-39.7-21.1c-6.3-2.1-12.9-2.9-19.7-3c-8.2-0.1-16.5,0.9-24.6,1.9C423.9-423.6,415.6-424.6,407.4-424.5
		L407.4-424.5z"/>
	<path id="path958" fill="#FA6F6B" d="M179.6-253.2c0,0-13.1,8.8-5.6,35c7.5,26.3,39.2,43.8,61.7,54.7
		c22.4,10.9,209.3,26.3,265.4,21.9c56.1-4.4,153.3-15.3,168.2-35c15-19.7,28-52.5,15-59.1c-13.1-6.6-18.7-17.5-44.9,2.2
		c-26.2,19.7-44.9,10.9-71,21.9c-26.2,10.9-44.9,15.3-76.6,17.5c-31.8,2.2-54.2,0-93.5,2.2c-39.2,2.2-65.4-4.4-117.7-13.1
		C228.2-213.8,205.8-268.5,179.6-253.2L179.6-253.2z"/>
	<path id="path959" opacity="0.15" fill="#FFFFFF" d="M196.5-429.2c16.8-13.1,65.4-20.5,106.5-28c41.1-7.5,194.4-13.1,233.6-9.3
		c39.2,3.7,127.1,22.4,129,31.7c1.9,9.3,1.9,22.4-24.3,11.2c-26.2-11.2-138.3-35.5-228-29.9c-89.7,5.6-130.8,16.8-179.4,28
		C185.2-414.3,187.1-403.1,196.5-429.2z"/>
	<g>
		<path id="path906" fill="#A01515" d="M356.1-310.1c-69.9-0.2-173.6,11.4-178.5,12.4c-6.5,1.4-11.2,7-11.2,7
			c22.4,14,267.3,5.6,267.3,5.6s0.9-7.9,0.5-11.2c-0.5-3.3-3.7-6.5-24.3-8.9C398.9-308.7,379.4-310.1,356.1-310.1L356.1-310.1z
			 M512.7-310.1c-23.3,0.1-42.8,1.4-53.7,4.9c-20.6,2.3-23.8,5.6-24.3,8.9c-0.5,3.3,0.5,11.2,0.5,11.2s244.8,8.4,267.3-5.6
			c0,0-4.7-5.6-11.2-7C686.4-298.8,582.6-310.3,512.7-310.1L512.7-310.1z"/>
		<g id="g930" transform="matrix(1,0,0,0.83443502,0,143.39152)">
			<path fill="#FFFFFF" d="M713.9-535.2c-1.4-4.7-9.3-6.9-18.7-5.5c-8.2,1.2-11.3,1.6-13.9,3.1c-3.3-3.1-9.5-4.3-16.5-3
				c-9.3,1.7-12.1,2-15,4.6c-0.1,0.1-0.1,0.2-0.2,0.3c-2.7-4.5-9.7-6.5-17.7-4.9c-9.3,1.8-12.1,2.2-15,5.1c0,0,0,0,0,0.1
				c-0.8-2.3-1.9-3.8-3.1-4.3c-8.4-2.9-36.4-2.9-41.1,3.6c-0.1,0.1-0.1,0.3-0.2,0.4c-5.3-10.1-58.1-9.6-68-2.1c0-0.3,0-0.7,0-1
				c-31.6-5.1-69.8,0-69.8,0s-0.2,1.6-0.3,4.2c-0.2-2.7-0.3-4.2-0.3-4.2s-38.2-5.1-69.8,0c0,0.3,0,0.7,0,1c-9.9-7.5-62.6-8-68,2.1
				c-0.1-0.1-0.1-0.3-0.2-0.4c-4.7-6.5-32.7-6.5-41.1-3.6c-1.3,0.4-2.3,2-3.1,4.3c0,0,0,0,0-0.1c-2.8-2.9-5.6-3.3-15-5.1
				c-8.1-1.6-15.1,0.4-17.7,4.9c-0.1-0.1-0.1-0.2-0.2-0.3c-2.8-2.7-5.6-3-15-4.6c-7-1.2-13.3-0.1-16.5,3c-2.5-1.5-5.7-1.9-13.9-3.1
				c-9.3-1.4-17.3,0.8-18.7,5.5c-1.4,4.7,0,32.6,11.2,35.1c11.2,2.5,19.2-9,19.2-9s0.3-1.4,0.8-3.4c1.5,9.8,4.7,19.6,10.5,21.1
				c11.2,3,19.2-11,19.2-11s1.3-6.8,2.5-14.3c1.1,12.6,4.2,27.7,11.2,29.8c11.2,3.3,19.2-12,19.2-12v0c0,0,0.8-4.2,1.6-9.7
				c1.3,13.6,5.2,27.5,12.3,31.9l0,0c9.3,5.8,17.8,5.8,29-2.2c3.6-2.6,5.8-8.7,7.1-16.1c4.7,28.5,16.9,35.3,41.7,33.1
				c17.6-1.5,23.8-21.3,25.8-40c4.1,36,16.2,47.1,42.5,44.7c18.5-1.7,24.4-25.9,26-47.6c1.6,21.7,7.5,45.9,26,47.6
				c26.3,2.4,38.4-8.7,42.5-44.7c1.9,18.7,8.2,38.5,25.8,40c24.8,2.2,36.9-4.7,41.7-33.1c1.2,7.4,3.5,13.5,7.1,16.1
				c11.2,8,19.6,8,29,2.2h0c7.1-4.5,11.1-18.3,12.3-31.9c0.8,5.5,1.6,9.7,1.6,9.7v0c0,0,7.9,15.2,19.2,12c7-2,10.2-17.2,11.2-29.8
				c1.1,7.5,2.5,14.3,2.5,14.3s7.9,13.9,19.2,11c5.8-1.5,8.9-11.3,10.5-21.1c0.5,2.1,0.8,3.4,0.8,3.4s7.9,11.5,19.2,9
				C713.9-502.5,715.3-530.5,713.9-535.2z"/>
			<path opacity="0.32" fill="#E0DCDC" d="M713.9-535.2c-1.4-4.7-9.3-6.9-18.7-5.5c-8.2,1.2-11.3,1.6-13.9,3.1
				c-3.3-3.1-9.5-4.3-16.5-3c-9.3,1.7-12.1,2-15,4.6c-0.1,0.1-0.1,0.2-0.2,0.3c-2.7-4.5-9.7-6.5-17.7-4.9c-9.3,1.8-12.1,2.2-15,5.1
				c0,0,0,0,0,0.1c-0.8-2.3-1.9-3.8-3.1-4.3c-8.4-2.9-36.4-2.9-41.1,3.6c-0.1,0.1-0.1,0.3-0.2,0.4c-5.3-10.1-58.1-9.6-68-2.1
				c0-0.3,0-0.7,0-1c-31.6-5.1-69.8,0-69.8,0s-0.2,1.6-0.3,4.2c-0.2-2.7-0.3-4.2-0.3-4.2s-38.2-5.1-69.8,0c0,0.3,0,0.7,0,1
				c-9.9-7.5-62.6-8-68,2.1c-0.1-0.1-0.1-0.3-0.2-0.4c-4.7-6.5-32.7-6.5-41.1-3.6c-1.3,0.4-2.3,2-3.1,4.3c0,0,0,0,0-0.1
				c-2.8-2.9-5.6-3.3-15-5.1c-8.1-1.6-15.1,0.4-17.7,4.9c-0.1-0.1-0.1-0.2-0.2-0.3c-2.8-2.7-5.6-3-15-4.6c-7-1.2-13.3-0.1-16.5,3
				c-2.5-1.5-5.7-1.9-13.9-3.1c-9.3-1.4-17.3,0.8-18.7,5.5c-1.4,4.7,0,32.6,11.2,35.1c11.2,2.5,19.2-9,19.2-9s0.3-1.4,0.8-3.4
				c1.5,9.8,4.7,19.6,10.5,21.1c11.2,3,19.2-11,19.2-11s1.3-6.8,2.5-14.3c1.1,12.6,4.2,27.7,11.2,29.8c11.2,3.3,19.2-12,19.2-12v0
				c0,0,0.8-4.2,1.6-9.7c1.3,13.6,5.2,27.5,12.3,31.9l0,0c9.3,5.8,17.8,5.8,29-2.2c3.6-2.6,5.8-8.7,7.1-16.1
				c4.7,28.5,16.9,35.3,41.7,33.1c17.6-1.5,23.8-21.3,25.8-40c4.1,36,16.2,47.1,42.5,44.7c18.5-1.7,24.4-25.9,26-47.6
				c1.6,21.7,7.5,45.9,26,47.6c26.3,2.4,38.4-8.7,42.5-44.7c1.9,18.7,8.2,38.5,25.8,40c24.8,2.2,36.9-4.7,41.7-33.1
				c1.2,7.4,3.5,13.5,7.1,16.1c11.2,8,19.6,8,29,2.2h0c7.1-4.5,11.1-18.3,12.3-31.9c0.8,5.5,1.6,9.7,1.6,9.7v0c0,0,7.9,15.2,19.2,12
				c7-2,10.2-17.2,11.2-29.8c1.1,7.5,2.5,14.3,2.5,14.3s7.9,13.9,19.2,11c5.8-1.5,8.9-11.3,10.5-21.1c0.5,2.1,0.8,3.4,0.8,3.4
				s7.9,11.5,19.2,9C713.9-502.5,715.3-530.5,713.9-535.2z"/>
			<path id="path909" fill="#FFFFFF" d="M395.7-472.2c-11-5.2-16.1-17.6-17.4-24.7c-1.3-7.2-5.2-35.8,1.3-37.1
				c6.5-1.3,41.3-4.6,43.2,2c1.9,6.5,1.3,39-5.2,50.1C411.2-470.9,402.2-468.9,395.7-472.2z"/>
			<path id="path911" fill="#FFFFFF" d="M270.7-477.3c-14-6.5-15-23.9-15-37c0-13,0.9-19.6,15.9-15.2c15,4.3,15.8,27.7,14,38.4
				C284.7-484.8,281-472.3,270.7-477.3L270.7-477.3z"/>
			<path id="path912" fill="#FFFFFF" d="M231.2-488.4c-5.6-3.6-12.1-38.4-5.6-40.2c6.5-1.8,13.6-3.3,15.4,2.5
				C242.9-520.3,242.9-487.7,231.2-488.4z"/>
			<path id="path914" fill="#FFFFFF" d="M194-497.1c-3.8-4.6-5.5-29.2-2.1-31.3c3.4-2.1,8.1-4.1,9,3.1
				C201.7-518.2,200.8-492.5,194-497.1z"/>
			<path id="path916" fill="#FFFFFF" d="M163.9-504.8c-4.2-3.8-6-24.1-2.3-25.8s8.8-3.4,9.7,2.5C172.3-522.2,171.3-501,163.9-504.8
				L163.9-504.8z"/>
			<path id="path918" fill="#FFFFFF" d="M327.5-476.1c-11-5-16.1-16.8-17.4-23.6c-1.3-6.8-5.2-34.2,1.3-35.4
				c6.5-1.2,41.3-4.4,43.2,1.9c1.9,6.2,1.3,37.3-5.2,47.9C343-474.9,334-473,327.5-476.1L327.5-476.1z"/>
			<path id="path921" fill="#FFFFFF" d="M473.1-472.2c11-5.2,16.1-17.6,17.4-24.7c1.3-7.2,5.2-35.8-1.3-37.1
				c-6.5-1.3-41.3-4.6-43.2,2c-1.9,6.5-1.3,39,5.2,50.1C457.6-470.9,466.6-468.9,473.1-472.2z"/>
			<path id="path923" fill="#FFFFFF" d="M598.1-477.3c14-6.5,15-23.9,15-37c0-13-0.9-19.6-15.9-15.2c-15,4.3-15.8,27.7-14,38.4
				C584.1-484.8,587.8-472.3,598.1-477.3L598.1-477.3z"/>
			<path id="path924" fill="#FFFFFF" d="M637.6-488.4c5.6-3.6,12.1-38.4,5.6-40.2c-6.5-1.8-13.6-3.3-15.4,2.5
				C625.9-520.3,625.9-487.7,637.6-488.4z"/>
			<path id="path926" fill="#FFFFFF" d="M674.8-497.1c3.8-4.6,5.5-29.2,2.1-31.3c-3.4-2.1-8.1-4.1-9,3.1
				C667.1-518.2,668-492.5,674.8-497.1z"/>
			<path id="path928" fill="#FFFFFF" d="M704.9-504.8c4.2-3.8,6-24.1,2.3-25.8s-8.8-3.4-9.7,2.5C696.5-522.2,697.5-501,704.9-504.8
				L704.9-504.8z"/>
			<path id="path930" fill="#FFFFFF" d="M541.3-476.1c11-5,16.1-16.8,17.4-23.6c1.3-6.8,5.2-34.2-1.3-35.4
				c-6.5-1.2-41.3-4.4-43.2,1.9c-1.9,6.2-1.3,37.3,5.2,47.9C525.8-474.9,534.8-473,541.3-476.1L541.3-476.1z"/>
		</g>
		<path id="path931" opacity="0.65" fill="#E0DCDC" d="M162.5-299.1c0,0,23.2,17.8,30.3,17.8s45.2-1.2,56.3-1.2s31-1.2,39.7,0.9
			c8.7,2.1,14,0.4,30.6,0.4c16.6,0,37.3,9.4,50.7,8.4c13.4-1,60.8-2.1,75.8-2.1c15,0,52.9,1.3,66.3-2.9c13.4-4.1,40.5-3.6,62.6-4.7
			c22.1-1,48.3,3.4,65.6,2.3c17.4-1,43.9,0.6,51-2.5c7.1-3.1,30.8-8.5,15-18.8c-15.8-10.3-257.3-33.5-318.9-22.1
			C325.9-312,201.2-330.1,162.5-299.1L162.5-299.1z"/>
		<path fill="#FFFFFF" d="M702.7-343.9c-11.2-3.2-19.2,11.6-19.2,11.6v0c0,0-0.3,1.7-0.8,4.4c-1.5-12.7-4.7-25.2-10.5-27.2
			c-11.2-3.8-19.2,14.1-19.2,14.1s-1.1,7.3-2.2,15.9c-1.2-15.7-4.4-33.4-11.1-35.9c-8.5-3.2-15.1,7.3-17.8,12.6
			c-2-12-5.5-22.3-10.6-26.4l0,0c-9.3-7.5-17.8-7.5-29,2.8c-3.7,3.4-6,11.8-7.2,21.8c-2.2-14.4-6.3-27.4-12.4-32.3
			c-15.9-7.2-29.9-4-37.4,11.2c-2.9,5.9-5,18-6,30.9c-4.1-49.4-17.7-64-52-60.9c-23.9,2.2-31.3,34.9-33.1,63.2
			c-1.8-28.4-9.1-61-33.1-63.2c-34.3-3.2-47.9,11.5-52,60.9c-1-12.9-3.1-25-6-30.9c-7.5-15.1-21.5-18.4-37.4-11.2l0,0
			c-6.1,5-10.2,17.9-12.4,32.3c-1.2-10-3.5-18.4-7.2-21.8c-11.2-10.3-19.6-10.3-29-2.8h0c-5.1,4.1-8.6,14.5-10.6,26.4
			c-2.7-5.3-9.3-15.8-17.8-12.6c-6.6,2.5-9.8,20.2-11.1,35.9c-1.1-8.6-2.2-15.9-2.2-15.9s-7.9-18-19.2-14.1
			c-5.8,2-8.9,14.5-10.5,27.2c-0.5-2.6-0.8-4.4-0.8-4.4v0c0,0-7.9-14.8-19.2-11.6c-11.2,3.2-12.6,39.2-11.2,45.2
			c1.4,6,9.3,8.8,18.7,7.1c8.2-1.5,11.3-2,13.9-4c3.3,3.9,9.5,5.5,16.5,3.9c9.3-2.1,12.1-2.6,14.9-5.9c2.8,5.5,9.6,7.8,17.5,5.9
			c6.1-1.5,9.4-2.3,11.7-3.6c0.5,0.9,1.1,1.6,1.7,1.9c8.4,3.7,36.4,3.7,41.1-4.7c0.7-1.2,1.3-3.4,1.8-6.3c0.7,3.6,1.7,6.1,2.9,7
			c7.5,5.8,43.9,7.7,50.5,2.4c0.7-0.6,1.3-1.7,1.8-3.3c0,0.5,0,0.9,0,1.3l0,0c5.8,12.2,83.8,8.2,86,1c0,0,0.3-2.9,0.6-7.7
			c0.3,4.8,0.6,7.7,0.6,7.7c2.2,7.2,80.1,11.2,86-1h0c0-0.5,0-0.9,0-1.3c0.5,1.6,1.1,2.7,1.8,3.3c6.5,5.3,43,3.4,50.5-2.4
			c1.2-0.9,2.2-3.4,2.9-7c0.5,2.9,1.1,5.1,1.8,6.3c4.7,8.4,32.7,8.4,41.1,4.7c0.6-0.3,1.2-1,1.7-1.9c2.3,1.3,5.6,2.1,11.7,3.6
			c7.8,2,14.6-0.4,17.5-5.9c2.8,3.4,5.6,3.8,14.9,5.9c7,1.6,13.3,0.1,16.5-3.9c2.5,2,5.7,2.4,13.9,4c9.3,1.8,17.3-1.1,18.7-7.1
			C715.3-304.7,713.9-340.7,702.7-343.9z"/>
		<path opacity="0.32" fill="#E0DCDC" d="M702.7-343.9c-11.2-3.2-19.2,11.6-19.2,11.6v0c0,0-0.3,1.7-0.8,4.4
			c-1.5-12.7-4.7-25.2-10.5-27.2c-11.2-3.8-19.2,14.1-19.2,14.1s-1.1,7.3-2.2,15.9c-1.2-15.7-4.4-33.4-11.1-35.9
			c-8.5-3.2-15.1,7.3-17.8,12.6c-2-12-5.5-22.3-10.6-26.4l0,0c-9.3-7.5-17.8-7.5-29,2.8c-3.7,3.4-6,11.8-7.2,21.8
			c-2.2-14.4-6.3-27.4-12.4-32.3c-15.9-7.2-29.9-4-37.4,11.2c-2.9,5.9-5,18-6,30.9c-4.1-49.4-17.7-64-52-60.9
			c-23.9,2.2-31.3,34.9-33.1,63.2c-1.8-28.4-9.1-61-33.1-63.2c-34.3-3.2-47.9,11.5-52,60.9c-1-12.9-3.1-25-6-30.9
			c-7.5-15.1-21.5-18.4-37.4-11.2l0,0c-6.1,5-10.2,17.9-12.4,32.3c-1.2-10-3.5-18.4-7.2-21.8c-11.2-10.3-19.6-10.3-29-2.8h0
			c-5.1,4.1-8.6,14.5-10.6,26.4c-2.7-5.3-9.3-15.8-17.8-12.6c-6.6,2.5-9.8,20.2-11.1,35.9c-1.1-8.6-2.2-15.9-2.2-15.9
			s-7.9-18-19.2-14.1c-5.8,2-8.9,14.5-10.5,27.2c-0.5-2.6-0.8-4.4-0.8-4.4v0c0,0-7.9-14.8-19.2-11.6c-11.2,3.2-12.6,39.2-11.2,45.2
			c1.4,6,9.3,8.8,18.7,7.1c8.2-1.5,11.3-2,13.9-4c3.3,3.9,9.5,5.5,16.5,3.9c9.3-2.1,12.1-2.6,14.9-5.9c2.8,5.5,9.6,7.8,17.5,5.9
			c6.1-1.5,9.4-2.3,11.7-3.6c0.5,0.9,1.1,1.6,1.7,1.9c8.4,3.7,36.4,3.7,41.1-4.7c0.7-1.2,1.3-3.4,1.8-6.3c0.7,3.6,1.7,6.1,2.9,7
			c7.5,5.8,43.9,7.7,50.5,2.4c0.7-0.6,1.3-1.7,1.8-3.3c0,0.5,0,0.9,0,1.3l0,0c5.8,12.2,83.8,8.2,86,1c0,0,0.3-2.9,0.6-7.7
			c0.3,4.8,0.6,7.7,0.6,7.7c2.2,7.2,80.1,11.2,86-1h0c0-0.5,0-0.9,0-1.3c0.5,1.6,1.1,2.7,1.8,3.3c6.5,5.3,43,3.4,50.5-2.4
			c1.2-0.9,2.2-3.4,2.9-7c0.5,2.9,1.1,5.1,1.8,6.3c4.7,8.4,32.7,8.4,41.1,4.7c0.6-0.3,1.2-1,1.7-1.9c2.3,1.3,5.6,2.1,11.7,3.6
			c7.8,2,14.6-0.4,17.5-5.9c2.8,3.4,5.6,3.8,14.9,5.9c7,1.6,13.3,0.1,16.5-3.9c2.5,2,5.7,2.4,13.9,4c9.3,1.8,17.3-1.1,18.7-7.1
			C715.3-304.7,713.9-340.7,702.7-343.9z"/>
		<path id="path937" fill="#FFFFFF" d="M386-396.1c-14.2,7.5-20.8,25.2-22.5,35.5c-1.7,10.3-6.7,51.4,1.7,53.2
			c8.3,1.9,53.4,6.5,55.9-2.8c2.5-9.3,1.7-56-6.7-71.9C406-397.9,394.3-400.7,386-396.1L386-396.1z"/>
		<path id="path938" fill="#FFFFFF" d="M315.2-380c-13.1,9.3-22.4,57-15.9,67.2s19.6,7.5,28-0.9C335.8-322.1,334.9-387.4,315.2-380z
			"/>
		<path id="path940" fill="#FFFFFF" d="M265.6-373.8c-14,8.4-15,30.8-15,47.6c0,16.8,0.9,25.2,15.9,19.6c15-5.6,15.8-35.7,14-49.5
			C279.5-364.2,275.9-380.4,265.6-373.8L265.6-373.8z"/>
		<path id="path941" fill="#FFFFFF" d="M230.8-358.9c-5.6,4.7-12.1,49.5-5.6,51.8c6.5,2.3,13.6,4.2,15.4-3.3
			C242.5-317.8,242.5-359.8,230.8-358.9L230.8-358.9z"/>
		<path id="path943" fill="#FFFFFF" d="M194-347.7c-3.8,5.9-5.5,37.6-2.1,40.3c3.4,2.6,8.1,5.3,9-4
			C201.7-320.6,200.8-353.6,194-347.7z"/>
		<path id="path945" fill="#FFFFFF" d="M163.9-337.8c-4.2,4.9-6,31.1-2.3,33.3c3.7,2.2,8.8,4.4,9.7-3.3
			C172.3-315.5,171.3-342.7,163.9-337.8z"/>
		<path id="path949" fill="#FFFFFF" d="M482.8-396.1c14.2,7.5,20.8,25.2,22.5,35.5c1.7,10.3,6.7,51.4-1.7,53.2
			c-8.3,1.9-53.4,6.5-55.9-2.8c-2.5-9.3-1.7-56,6.7-71.9C462.8-397.9,474.5-400.7,482.8-396.1L482.8-396.1z"/>
		<path id="path950" fill="#FFFFFF" d="M553.5-380c13.1,9.3,22.4,57,15.9,67.2s-19.6,7.5-28-0.9C533-322.1,533.9-387.4,553.5-380z"
			/>
		<path id="path952" fill="#FFFFFF" d="M603.2-373.8c14,8.4,15,30.8,15,47.6c0,16.8-0.9,25.2-15.9,19.6c-15-5.6-15.8-35.7-14-49.5
			C589.3-364.2,592.9-380.4,603.2-373.8L603.2-373.8z"/>
		<path id="path953" fill="#FFFFFF" d="M638-358.9c5.6,4.7,12.1,49.5,5.6,51.8c-6.5,2.3-13.6,4.2-15.4-3.3
			C626.3-317.8,626.3-359.8,638-358.9L638-358.9z"/>
		<path id="path955" fill="#FFFFFF" d="M674.8-347.7c3.8,5.9,5.5,37.6,2.1,40.3c-3.4,2.6-8.1,5.3-9-4
			C667.1-320.6,668-353.6,674.8-347.7z"/>
		<path id="path957" fill="#FFFFFF" d="M704.9-337.8c4.2,4.9,6,31.1,2.3,33.3c-3.7,2.2-8.8,4.4-9.7-3.3
			C696.5-315.5,697.5-342.7,704.9-337.8z"/>
		<path id="path965" fill="#E0DCDC" d="M348.3-338.4c0.7,0.2-0.9,8.4-1.1,18.7c-0.2,10.3,1,18.6,0.3,18.7c-0.7,0.1-3.2-8.1-2.9-18.8
			C344.8-330.4,347.6-338.5,348.3-338.4L348.3-338.4z"/>
		<path id="path966" fill="#E0DCDC" d="M434.4-334.4c0.7-0.1,1.9,8,2.1,17.9c0.1,9.9-0.5,18-1.3,18s-1.2-8-1.4-17.9
			C433.6-326.3,433.6-334.3,434.4-334.4z"/>
		<path id="path967" fill="#E0DCDC" d="M521.2-336c0.4-0.1,1.2,1.9,1.9,5.4c0.7,3.7,0.9,8.1,0.6,13.7c-0.6,10.7-1.7,19.2-2.4,19.2
			c-0.7,0-0.8-8.8-0.2-19.3c0.3-5.8,0.4-9.4,0.2-13.3C521.1-333.8,520.9-335.9,521.2-336L521.2-336z"/>
		<path id="path968" fill="#E0DCDC" d="M576.3-347.1c0.3-0.2,1.8,2,3.1,5.9c1.4,4,2.3,9.4,1.9,15.9c-0.7,12.7-5.2,22.3-5.9,22.1
			c-0.7-0.2,2.6-10.1,3.2-22.2c0.4-6.3-0.2-11.2-1.1-15.2C576.8-344.6,575.9-347,576.3-347.1L576.3-347.1z"/>
		<path id="path969" fill="#E0DCDC" d="M622.5-344.7c0.3-0.2,2,2.3,3.1,6.7c1.2,4.8,1.6,10.7,0.6,18c0,0.3-0.1,0.5-0.1,0.8
			c-0.9,6.8-2.3,12.7-3.1,16.9c-0.7,4.3-1,6.9-1.4,6.9c-0.4,0-0.7-2.7-0.5-7.2c0.3-4.4,1.4-10.5,2.3-17c0-0.3,0.1-0.5,0.1-0.8
			c0.9-7.3,0.9-12.6,0.2-17.3C623.2-342,622.2-344.6,622.5-344.7L622.5-344.7z"/>
		<path id="path970" fill="#E0DCDC" d="M652-323.2c0.7,0,1.3,6.6,1.4,14.8c0.1,8.2-1.5,14.8-2.2,14.7c-0.7-0.1-0.4-6.6-0.5-14.7
			C650.6-316.5,651.3-323.3,652-323.2z"/>
		<path id="path971" fill="#E0DCDC" d="M684.7-324c0.3,0.2-0.2,1.8-0.6,4.5c-0.5,3.5-0.5,5.6-0.8,10.7c0,0,0,0.1,0,0.1
			c-0.2,4.6-0.7,8-1.7,11c-1,2.7-2.1,4.1-2.4,4c-0.3-0.2,0.2-1.8,0.7-4.4c0.6-3.4,0.6-5.6,0.9-10.7c0,0,0-0.1,0-0.1
			c0.2-4.6,0.6-8,1.7-11C683.2-322.8,684.4-324.2,684.7-324L684.7-324z"/>
		<path id="path972" fill="#E0DCDC" d="M292.5-344.7c0.3,0.1-0.3,2.7-0.4,6.9c-0.2,5.1,0.4,9.2,1.3,16.8c0,0.4,0.1,0.8,0.1,1.2
			c0.6,4.9,1,8.7,1,12.6c0.1,6.3-1.6,10.3-2,10.2c-0.4-0.1,0.3-4-0.2-10.1c-0.4-4.4-0.8-6.9-1.5-12.4c-0.1-0.4-0.1-0.8-0.2-1.2
			c-0.9-7.2-1.2-12.4-0.5-17.3C290.8-342.4,292.1-344.8,292.5-344.7L292.5-344.7z"/>
		<path id="path973" fill="#E0DCDC" d="M245.4-343.9c0.4,0,0.7,2.8,0.8,7.4c0.1,5.6-0.3,10-0.6,17.9c-0.3,7.5-0.2,12.5,0.1,17.5
			c0.3,4.5,0.8,7.2,0.4,7.3c-0.4,0.1-1.4-2.6-2.3-7.1c-0.9-4.8-1.2-10.5-1-17.9c0.2-6.2,1-14.1,1.3-17.9
			C244.8-341.1,245.1-343.9,245.4-343.9L245.4-343.9z"/>
		<path id="path974" fill="#E0DCDC" d="M218.3-322.4c0.7-0.1,2.1,5.4,1.8,12c0,0.2,0,0.3,0,0.5c-0.1,3.2-0.4,6-0.5,8.1
			c-0.1,2-0.1,3.3-0.5,3.4c-0.7,0.1-1.8-5.2-1.6-11.5c0-0.2,0-0.3,0-0.5C217.7-317.2,217.6-322.3,218.3-322.4L218.3-322.4z"/>
		<path id="path975" fill="#E0DCDC" d="M185.6-325.6c0.3,0.1,0,1.8-0.1,4.4c-0.2,3-0.1,5.9,0.2,10.3c0,0.4,0.1,0.9,0.1,1.3l0,0
			c0.7,7.5,2,13.3,1.4,13.5s-3.2-5.5-4-13.2l0,0c-0.1-0.4-0.1-0.9-0.1-1.3c-0.4-4.4-0.2-8,0.6-10.8
			C184.4-324.3,185.3-325.7,185.6-325.6L185.6-325.6z"/>
	</g>
</g>
</svg>
