<?xml version="1.0" encoding="utf-8"?>
<!-- Generator: Adobe Illustrator 28.0.0, SVG Export Plug-In . SVG Version: 6.00 Build 0)  -->
<svg version="1.1" id="OBJECTS" xmlns="http://www.w3.org/2000/svg" xmlns:xlink="http://www.w3.org/1999/xlink" x="0px" y="0px"
	 width="500px" height="500px" viewBox="0 0 500 500" enable-background="new 0 0 500 500" xml:space="preserve">
<g id="g776" transform="matrix(0.82894289,0,0,0.82894289,144.75853,348.74211)">
	<path id="path722" fill="#EF5A58" d="M124.6,57.8C49.9,57.8-40.5,47-95.6,30.5c-55-16.5-54-66.6-51.4-146.8h271.6h271.5
		c2.6,80.3,3.7,130.3-51.4,146.8C289.7,47,199.3,57.8,124.6,57.8L124.6,57.8z"/>
	<path id="path723" fill="#FA6F6B" d="M124.6-296c-74.7,0-165.1,10.8-220.2,27.3c-55,16.5-54,66.6-51.4,146.8h271.6h271.5
		c2.6-80.3,3.7-130.3-51.4-146.8C289.7-285.2,199.3-296,124.6-296L124.6-296z"/>
	<path id="path724" fill="#EF5A58" d="M100.5-236.3c-6.6,0.1-13.1,0.9-19.3,3c-13.6,4.5-23.5,20.7-38.9,20.7
		c-13.1,0-15-18.3-31.1-13c-12,4-17.3,15.1-26,19.4c-5.5,2.7-13.9-10.1-20.8-7.8c-10.3,3.4-17.6,13.7-24.7,20.7
		c-1.6,1.6-8.2-4.2-13-2.6c-6.5,2.2-7.6,10.3-13,13c-7.9,4-16.1-8.8-20.8-6.5c-10.6,5.3-14,20.6-16.9,22c-8,4-16-9.2-23.7-13.9
		c-0.7,17.4-0.1,37.1,0.6,59.2h271.6h271.6c0.7-22.1,1.3-41.8,0.6-59.2c-7.8,4.7-15.8,17.9-23.7,13.9c-2.9-1.4-6.2-16.7-16.9-22
		c-4.7-2.3-12.8,10.4-20.8,6.5c-5.4-2.7-6.5-10.8-13-13c-4.8-1.6-11.4,4.2-13,2.6c-7-7-14.4-17.3-24.7-20.7
		c-6.9-2.3-15.3,10.5-20.8,7.8c-8.6-4.3-14-15.5-26-19.4c-16.2-5.4-18.1,13-31.1,13c-15.5,0-25.3-16.2-38.9-20.7
		c-6.2-2.1-12.7-2.9-19.3-3c-8.1-0.1-16.2,0.9-24.1,1.9C116.7-235.4,108.5-236.4,100.5-236.3L100.5-236.3z"/>
	<path id="path725" fill="#A01515" d="M-136.2-108.7c0,0,4.8-8.1,11.5-10.1c6.7-2,193.7-31,238.3-10.8c21.1,3.4,24.5,8.1,24.9,12.8
		c0.5,4.7-0.5,16.2-0.5,16.2S-113.2-88.5-136.2-108.7L-136.2-108.7z"/>
	<path id="path750" fill="#A01515" d="M390.2-109.5c0,0-4.6-8.7-11-10.8c-6.4-2.2-185.3-33.2-228-11.5c-20.2,3.6-23.4,8.7-23.9,13.7
		c-0.5,5,0.5,17.3,0.5,17.3S368.1-87.9,390.2-109.5L390.2-109.5z"/>
	<path id="path775" fill="#FA6F6B" d="M-123.1-52c0,0-12.8,7.3-5.5,29.3c7.3,22,38.5,36.7,60.5,45.8c22,9.2,205.5,22,260.5,18.3
		c55-3.7,150.5-12.8,165.1-29.3c14.7-16.5,27.5-44,14.7-49.5c-12.8-5.5-18.3-14.7-44,1.8c-25.7,16.5-44,9.2-69.7,18.3
		c-25.7,9.2-44,12.8-75.2,14.7c-31.2,1.8-53.2,0-91.7,1.8S27.3-4.3-24-11.7C-75.4-19-97.4-64.8-123.1-52L-123.1-52z"/>
	<path id="path776" opacity="0.15" fill="#FFFFFF" d="M-106.6-240.9c16.5-12.8,64.2-20.2,104.6-27.5s190.8-12.8,229.4-9.2
		c38.5,3.7,124.8,22,126.6,31.2c1.8,9.2,1.8,22-23.9,11c-25.7-11-135.8-34.8-223.8-29.3c-88.1,5.5-128.4,16.5-176.1,27.5
		C-117.6-226.3-115.8-215.3-106.6-240.9z"/>
	<g>
		<g>
			<path fill="#FFFFFF" d="M111.3-105.8c6.8-1.2,11.5-2.7,11.9-4.5c0,0,9.3-99.4-29.4-103.3c-38.8-3.9-48.4,19.4-48.4,102.4h0
				c1.4,3.3,7.8,5.4,16.3,6.5c-0.7,0.1-1.3,0.2-2,0.3c0,64.4,9.7,83.2,41.4,80.2c31.7-3,24.1-80.2,24.1-80.2
				S119.7-105.1,111.3-105.8z"/>
			<path fill="#FFFFFF" d="M-24.5-106.7c5-1.1,9.1-2.9,10.6-5.6c4.6-8.2,6.4-62.3-4.6-72.4s-19.3-10.1-28.4-2.7v0
				c-5,4.1-8.4,14.2-10.4,25.9c-2.7-5.2-9.1-15.5-17.5-12.3c-6.5,2.4-9.7,19.8-10.9,35.2c-1-8.4-2.1-15.6-2.1-15.6
				s-7.8-17.6-18.8-13.8c-5.7,1.9-8.8,14.2-10.3,26.7c-0.4-2.6-0.8-4.3-0.8-4.3v0c0,0-7.8-14.6-18.8-11.4c-11,3.1-12.4,38.5-11,44.4
				c0.8,3.4,3.8,5.7,7.9,6.8c-4.1,0.8-7.1,2.6-7.9,5.3c-1.4,4.6,0,32,11,34.4c11,2.4,18.8-8.9,18.8-8.9s0.3-1.3,0.8-3.4
				c1.5,9.7,4.6,19.2,10.3,20.7c11,2.9,18.8-10.8,18.8-10.8s1.3-6.7,2.4-14c1,12.4,4.2,27.2,11,29.2c11,3.2,18.8-11.7,18.8-11.7v0
				c0,0,0.7-4.1,1.6-9.5c1.2,13.3,5.1,26.9,12.1,31.3l0,0c9.2,5.7,17.4,5.7,28.4-2.1c11-7.8,9.2-49.8,4.6-56.2
				C-10.8-104.5-17.2-106.1-24.5-106.7z M-115.4-103.2c-2.4-1.5-5.4-1.8-12.8-2.9c7.4-1.4,10.4-1.9,12.8-3.8
				c1.5,1.8,3.6,3.1,6.1,3.8C-111.8-105.5-113.9-104.6-115.4-103.2z M-84.4-101.3c-0.1-0.1-0.1-0.2-0.2-0.3
				c-2.7-2.6-5.5-2.9-14.5-4.5c8.9-2,11.7-2.5,14.4-5.8c1.5,2.9,4.1,4.9,7.5,5.9C-80.4-105.2-83-103.6-84.4-101.3z M-52.2-101.1
				C-52.3-101.1-52.3-101.1-52.2-101.1c-2.8-2.9-5.5-3.3-14.7-5c-0.1,0-0.2,0-0.3,0c5.9-1.5,9.1-2.2,11.4-3.5
				c0.5,0.9,1.1,1.6,1.7,1.9c1.8,0.8,4.6,1.4,7.8,1.8c-1,0.2-2,0.4-2.8,0.7C-50.4-104.8-51.4-103.3-52.2-101.1z"/>
			<path fill="#FFFFFF" d="M38.8-108.2c0.7-0.3,1.4-0.7,1.8-1.1c5.8-5.2,4.1-60-2.5-74.9c-6.6-14.8-19.1-18-33.2-11
				c-14.1,12.6-15.8,77.8-9.1,83.5c2.2,1.9,7.3,3.3,13.3,4.3c-6.6,1.3-11.5,3.4-12.5,6.5c0,61.6,9,75,38.4,72.1s22.4-72.1,22.4-72.1
				C57.5-104.6,49.2-107.1,38.8-108.2z"/>
			<path fill="#FFFFFF" d="M249.8-195.1L249.8-195.1c-14.4-7.1-27.1-3.9-33.9,11c-6.8,14.8-8.5,69.6-2.5,74.9c0.4,0.4,1.1,0.7,1.8,1
				c-10.8,1.1-19.4,3.6-19.4,7.4c0,0-7.3,69.2,22.9,72.1s39.4-10.6,39.4-72.1c-1-3.1-6-5.2-12.7-6.5c6.2-0.9,11.4-2.4,13.7-4.3
				C265.9-117.3,264.2-182.6,249.8-195.1z"/>
			<path fill="#FFFFFF" d="M191.2-104.6c8.5-1.1,14.9-3.2,16.3-6.6c0-83-9.4-106.2-47-102.4s-28.6,103.3-28.6,103.3
				c0.5,1.8,5,3.3,11.6,4.5c-8,0.6-13.1,1.4-13.1,1.4s-7.3,77.2,22.9,80.2c30.2,3,39.4-15.8,39.4-80.2l0,0
				C192.2-104.5,191.7-104.5,191.2-104.6z"/>
			<path fill="#FFFFFF" d="M393.5-106.1c4.1-1.1,7.1-3.4,7.9-6.8c1.4-5.9,0-41.2-11-44.4c-11-3.1-18.8,11.4-18.8,11.4v0
				c0,0-0.3,1.7-0.8,4.3c-1.5-12.4-4.6-24.7-10.3-26.7c-11-3.8-18.8,13.8-18.8,13.8s-1.1,7.2-2.1,15.6c-1.2-15.4-4.3-32.8-10.9-35.2
				c-8.3-3.1-14.8,7.2-17.5,12.3c-2-11.7-5.4-21.9-10.4-25.9v0c-9.2-7.3-17.4-7.3-28.4,2.7c-11,10.1-9.2,64.2-4.6,72.4
				c1.5,2.7,5.6,4.5,10.6,5.6c-7.3,0.6-13.7,2.2-15.7,5c-4.6,6.4-6.4,48.4,4.6,56.2c11,7.8,19.3,7.8,28.4,2.1l0,0
				c7-4.4,10.9-18,12.1-31.3c0.8,5.4,1.6,9.5,1.6,9.5v0c0,0,7.8,14.9,18.8,11.7c6.9-2,10-16.9,11-29.2c1.1,7.3,2.4,14,2.4,14
				s7.8,13.7,18.8,10.8c5.7-1.5,8.8-11.1,10.3-20.7c0.4,2,0.8,3.4,0.8,3.4s7.8,11.3,18.8,8.9c11-2.4,12.4-29.9,11-34.4
				C400.6-103.5,397.6-105.3,393.5-106.1z M306.2-101.1C306.2-101.1,306.2-101.1,306.2-101.1c-0.8-2.2-1.9-3.7-3.1-4.1
				c-0.8-0.3-1.7-0.5-2.8-0.7c3.2-0.4,6-1,7.8-1.8c0.6-0.3,1.2-0.9,1.7-1.9c2.3,1.3,5.5,2,11.4,3.5c-0.1,0-0.2,0-0.3,0
				C311.7-104.3,309-104,306.2-101.1z M338.5-101.6c-0.1,0.1-0.1,0.2-0.2,0.3c-1.4-2.3-4-4-7.3-4.8c3.3-0.9,6-2.9,7.5-5.9
				c2.7,3.3,5.5,3.7,14.4,5.8C344-104.5,341.2-104.2,338.5-101.6z M369.4-103.2c-1.5-1.4-3.6-2.4-6.1-2.9c2.5-0.7,4.7-2,6.1-3.8
				c2.4,1.9,5.4,2.4,12.8,3.8C374.8-105,371.8-104.6,369.4-103.2z"/>
		</g>
		<g opacity="0.32">
			<path fill="#E0DCDC" d="M111.3-105.8c6.8-1.2,11.5-2.7,11.9-4.5c0,0,9.3-99.4-29.4-103.3c-38.8-3.9-48.4,19.4-48.4,102.4h0
				c1.4,3.3,7.8,5.4,16.3,6.5c-0.7,0.1-1.3,0.2-2,0.3c0,64.4,9.7,83.2,41.4,80.2c31.7-3,24.1-80.2,24.1-80.2
				S119.7-105.1,111.3-105.8z"/>
			<path fill="#E0DCDC" d="M-24.5-106.7c5-1.1,9.1-2.9,10.6-5.6c4.6-8.2,6.4-62.3-4.6-72.4s-19.3-10.1-28.4-2.7v0
				c-5,4.1-8.4,14.2-10.4,25.9c-2.7-5.2-9.1-15.5-17.5-12.3c-6.5,2.4-9.7,19.8-10.9,35.2c-1-8.4-2.1-15.6-2.1-15.6
				s-7.8-17.6-18.8-13.8c-5.7,1.9-8.8,14.2-10.3,26.7c-0.4-2.6-0.8-4.3-0.8-4.3v0c0,0-7.8-14.6-18.8-11.4c-11,3.1-12.4,38.5-11,44.4
				c0.8,3.4,3.8,5.7,7.9,6.8c-4.1,0.8-7.1,2.6-7.9,5.3c-1.4,4.6,0,32,11,34.4c11,2.4,18.8-8.9,18.8-8.9s0.3-1.3,0.8-3.4
				c1.5,9.7,4.6,19.2,10.3,20.7c11,2.9,18.8-10.8,18.8-10.8s1.3-6.7,2.4-14c1,12.4,4.2,27.2,11,29.2c11,3.2,18.8-11.7,18.8-11.7v0
				c0,0,0.7-4.1,1.6-9.5c1.2,13.3,5.1,26.9,12.1,31.3l0,0c9.2,5.7,17.4,5.7,28.4-2.1c11-7.8,9.2-49.8,4.6-56.2
				C-10.8-104.5-17.2-106.1-24.5-106.7z M-115.4-103.2c-2.4-1.5-5.4-1.8-12.8-2.9c7.4-1.4,10.4-1.9,12.8-3.8
				c1.5,1.8,3.6,3.1,6.1,3.8C-111.8-105.5-113.9-104.6-115.4-103.2z M-84.4-101.3c-0.1-0.1-0.1-0.2-0.2-0.3
				c-2.7-2.6-5.5-2.9-14.5-4.5c8.9-2,11.7-2.5,14.4-5.8c1.5,2.9,4.1,4.9,7.5,5.9C-80.4-105.2-83-103.6-84.4-101.3z M-52.2-101.1
				C-52.3-101.1-52.3-101.1-52.2-101.1c-2.8-2.9-5.5-3.3-14.7-5c-0.1,0-0.2,0-0.3,0c5.9-1.5,9.1-2.2,11.4-3.5
				c0.5,0.9,1.1,1.6,1.7,1.9c1.8,0.8,4.6,1.4,7.8,1.8c-1,0.2-2,0.4-2.8,0.7C-50.4-104.8-51.4-103.3-52.2-101.1z"/>
			<path fill="#E0DCDC" d="M38.8-108.2c0.7-0.3,1.4-0.7,1.8-1.1c5.8-5.2,4.1-60-2.5-74.9c-6.6-14.8-19.1-18-33.2-11
				c-14.1,12.6-15.8,77.8-9.1,83.5c2.2,1.9,7.3,3.3,13.3,4.3c-6.6,1.3-11.5,3.4-12.5,6.5c0,61.6,9,75,38.4,72.1s22.4-72.1,22.4-72.1
				C57.5-104.6,49.2-107.1,38.8-108.2z"/>
			<path fill="#E0DCDC" d="M249.8-195.1L249.8-195.1c-14.4-7.1-27.1-3.9-33.9,11c-6.8,14.8-8.5,69.6-2.5,74.9c0.4,0.4,1.1,0.7,1.8,1
				c-10.8,1.1-19.4,3.6-19.4,7.4c0,0-7.3,69.2,22.9,72.1s39.4-10.6,39.4-72.1c-1-3.1-6-5.2-12.7-6.5c6.2-0.9,11.4-2.4,13.7-4.3
				C265.9-117.3,264.2-182.6,249.8-195.1z"/>
			<path fill="#E0DCDC" d="M191.2-104.6c8.5-1.1,14.9-3.2,16.3-6.6c0-83-9.4-106.2-47-102.4s-28.6,103.3-28.6,103.3
				c0.5,1.8,5,3.3,11.6,4.5c-8,0.6-13.1,1.4-13.1,1.4s-7.3,77.2,22.9,80.2c30.2,3,39.4-15.8,39.4-80.2l0,0
				C192.2-104.5,191.7-104.5,191.2-104.6z"/>
			<path fill="#E0DCDC" d="M393.5-106.1c4.1-1.1,7.1-3.4,7.9-6.8c1.4-5.9,0-41.2-11-44.4c-11-3.1-18.8,11.4-18.8,11.4v0
				c0,0-0.3,1.7-0.8,4.3c-1.5-12.4-4.6-24.7-10.3-26.7c-11-3.8-18.8,13.8-18.8,13.8s-1.1,7.2-2.1,15.6c-1.2-15.4-4.3-32.8-10.9-35.2
				c-8.3-3.1-14.8,7.2-17.5,12.3c-2-11.7-5.4-21.9-10.4-25.9v0c-9.2-7.3-17.4-7.3-28.4,2.7c-11,10.1-9.2,64.2-4.6,72.4
				c1.5,2.7,5.6,4.5,10.6,5.6c-7.3,0.6-13.7,2.2-15.7,5c-4.6,6.4-6.4,48.4,4.6,56.2c11,7.8,19.3,7.8,28.4,2.1l0,0
				c7-4.4,10.9-18,12.1-31.3c0.8,5.4,1.6,9.5,1.6,9.5v0c0,0,7.8,14.9,18.8,11.7c6.9-2,10-16.9,11-29.2c1.1,7.3,2.4,14,2.4,14
				s7.8,13.7,18.8,10.8c5.7-1.5,8.8-11.1,10.3-20.7c0.4,2,0.8,3.4,0.8,3.4s7.8,11.3,18.8,8.9c11-2.4,12.4-29.9,11-34.4
				C400.6-103.5,397.6-105.3,393.5-106.1z M306.2-101.1C306.2-101.1,306.2-101.1,306.2-101.1c-0.8-2.2-1.9-3.7-3.1-4.1
				c-0.8-0.3-1.7-0.5-2.8-0.7c3.2-0.4,6-1,7.8-1.8c0.6-0.3,1.2-0.9,1.7-1.9c2.3,1.3,5.5,2,11.4,3.5c-0.1,0-0.2,0-0.3,0
				C311.7-104.3,309-104,306.2-101.1z M338.5-101.6c-0.1,0.1-0.1,0.2-0.2,0.3c-1.4-2.3-4-4-7.3-4.8c3.3-0.9,6-2.9,7.5-5.9
				c2.7,3.3,5.5,3.7,14.4,5.8C344-104.5,341.2-104.2,338.5-101.6z M369.4-103.2c-1.5-1.4-3.6-2.4-6.1-2.9c2.5-0.7,4.7-2,6.1-3.8
				c2.4,1.9,5.4,2.4,12.8,3.8C374.8-105,371.8-104.6,369.4-103.2z"/>
		</g>
		<path id="path729" fill="#FFFFFF" d="M79.9-208.4C67-201.1,61-183.7,59.5-173.6c-1.5,10.1-6,50.4,1.5,52.2
			c7.5,1.8,48.3,6.4,50.6-2.7c2.3-9.2,1.5-55-6-70.6C98-210.2,87.4-213,79.9-208.4L79.9-208.4z"/>
		<path id="path730" fill="#FFFFFF" d="M13.3-192.6c-11.6,9.2-19.9,55.9-14.1,66c5.8,10.1,17.4,7.3,24.9-0.9
			C31.5-135.8,30.7-199.9,13.3-192.6L13.3-192.6z"/>
		<path id="path732" fill="#FFFFFF" d="M-38.7-186.6c-13.8,8.2-14.7,30.2-14.7,46.7s0.9,24.7,15.6,19.2
			c14.7-5.5,15.5-35.1,13.8-48.6C-25.1-177.1-28.6-193-38.7-186.6L-38.7-186.6z"/>
		<path id="path733" fill="#FFFFFF" d="M-72.9-171.9c-5.5,4.6-11.9,48.6-5.5,50.9c6.4,2.3,13.3,4.1,15.1-3.2
			C-61.5-131.6-61.5-172.9-72.9-171.9L-72.9-171.9z"/>
		<path id="path735" fill="#FFFFFF" d="M-109-160.9c-3.8,5.8-5.4,36.9-2.1,39.5c3.4,2.6,8,5.2,8.8-3.9
			C-101.5-134.3-102.3-166.7-109-160.9z"/>
		<path id="path737" fill="#FFFFFF" d="M-138.5-151.2c-4.1,4.8-5.9,30.5-2.3,32.6c3.6,2.1,8.6,4.3,9.5-3.2
			C-130.4-129.3-131.3-156.1-138.5-151.2z"/>
		<path id="path740" fill="#FFFFFF" d="M89.2-39c-10.3-5.1-15.1-17.2-16.3-24.3c-1.2-7-4.8-35.1,1.2-36.4c6-1.3,38.7-4.5,40.5,1.9
			c1.8,6.4,1.2,38.3-4.8,49.2C103.7-37.7,95.3-35.8,89.2-39L89.2-39z"/>
		<path id="path742" fill="#FFFFFF" d="M-33.7-44.1c-13.8-6.4-14.7-23.5-14.7-36.3s0.9-19.2,15.6-14.9C-18.1-91-17.3-68.1-19-57.6
			C-20-51.4-23.6-39.1-33.7-44.1L-33.7-44.1z"/>
		<path id="path743" fill="#FFFFFF" d="M-72.5-55C-78-58.5-84.4-92.7-78-94.5c6.4-1.8,13.3-3.2,15.1,2.5C-61-86.3-61-54.3-72.5-55z"
			/>
		<path id="path745" fill="#FFFFFF" d="M-109-63.5c-3.8-4.5-5.4-28.7-2.1-30.7c3.4-2,8-4,8.8,3C-101.5-84.2-102.3-59-109-63.5z"/>
		<path id="path747" fill="#FFFFFF" d="M-138.5-71c-4.1-3.7-5.9-23.7-2.3-25.3c3.6-1.7,8.6-3.3,9.5,2.5
			C-130.4-88.1-131.3-67.3-138.5-71L-138.5-71z"/>
		<path id="path749" fill="#FFFFFF" d="M24.1-42.9c-9.6-4.9-14-16.5-15.2-23.2c-1.1-6.7-4.5-33.6,1.1-34.8c5.6-1.2,36-4.3,37.7,1.8
			c1.7,6.1,1.1,36.6-4.5,47S29.7-39.9,24.1-42.9L24.1-42.9z"/>
		<path id="path754" fill="#FFFFFF" d="M174-208.4c12.5,7.3,18.3,24.7,19.8,34.8c1.5,10.1,5.9,50.4-1.5,52.2s-46.9,6.4-49.1-2.7
			c-2.2-9.2-1.5-55,5.9-70.6C156.4-210.2,166.6-213,174-208.4L174-208.4z"/>
		<path id="path755" fill="#FFFFFF" d="M241.3-192.6c11.9,9.2,20.3,55.9,14.4,66c-5.9,10.1-17.8,7.3-25.4-0.9
			C222.7-135.8,223.5-199.9,241.3-192.6z"/>
		<path id="path757" fill="#FFFFFF" d="M292.7-186.6c13.8,8.2,14.7,30.2,14.7,46.7s-0.9,24.7-15.6,19.2
			c-14.7-5.5-15.5-35.1-13.8-48.6C279-177.1,282.6-193,292.7-186.6L292.7-186.6z"/>
		<path id="path758" fill="#FFFFFF" d="M326.9-171.9c5.5,4.6,11.9,48.6,5.5,50.9c-6.4,2.3-13.3,4.1-15.1-3.2
			C315.4-131.6,315.4-172.9,326.9-171.9L326.9-171.9z"/>
		<path id="path760" fill="#FFFFFF" d="M363-160.9c3.8,5.8,5.4,36.9,2.1,39.5c-3.4,2.6-8,5.2-8.8-3.9
			C355.5-134.3,356.3-166.7,363-160.9z"/>
		<path id="path762" fill="#FFFFFF" d="M392.5-151.2c4.1,4.8,5.9,30.5,2.3,32.6c-3.6,2.1-8.6,4.3-9.5-3.2
			C384.3-129.3,385.2-156.1,392.5-151.2z"/>
		<path id="path765" fill="#FFFFFF" d="M164.6-39c9.8-5.1,14.4-17.2,15.6-24.3c1.2-7,4.6-35.1-1.2-36.4c-5.8-1.3-36.9-4.5-38.6,1.9
			c-1.7,6.4-1.2,38.3,4.6,49.2C150.8-37.7,158.8-35.8,164.6-39z"/>
		<path id="path767" fill="#FFFFFF" d="M287.6-44.1c13.8-6.4,14.7-23.5,14.7-36.3s-0.9-19.2-15.6-14.9C272-91,271.2-68.1,273-57.6
			C274-51.4,277.5-39.1,287.6-44.1L287.6-44.1z"/>
		<path id="path768" fill="#FFFFFF" d="M326.4-55c5.5-3.6,11.9-37.7,5.5-39.5c-6.4-1.8-13.3-3.2-15.1,2.5
			C315-86.3,315-54.3,326.4-55z"/>
		<path id="path770" fill="#FFFFFF" d="M363-63.5c3.8-4.5,5.4-28.7,2.1-30.7c-3.4-2-8-4-8.8,3C355.5-84.2,356.3-59,363-63.5z"/>
		<path id="path772" fill="#FFFFFF" d="M392.5-71c4.1-3.7,5.9-23.7,2.3-25.3c-3.6-1.7-8.6-3.3-9.5,2.5
			C384.3-88.1,385.2-67.3,392.5-71L392.5-71z"/>
		<path id="path774" fill="#FFFFFF" d="M230-42.9c9.8-4.9,14.4-16.5,15.6-23.2c1.2-6.7,4.6-33.6-1.2-34.8
			c-5.8-1.2-36.9-4.3-38.6,1.8c-1.7,6.1-1.2,36.6,4.6,47C216.2-41.7,224.2-39.9,230-42.9L230-42.9z"/>
	</g>
</g>
</svg>
