<?xml version="1.0" encoding="utf-8"?>
<!-- Generator: Adobe Illustrator 28.0.0, SVG Export Plug-In . SVG Version: 6.00 Build 0)  -->
<svg version="1.1" id="OBJECTS" xmlns="http://www.w3.org/2000/svg" xmlns:xlink="http://www.w3.org/1999/xlink" x="0px" y="0px"
	 width="500px" height="500px" viewBox="0 0 500 500" enable-background="new 0 0 500 500" xml:space="preserve">
<g id="g391" transform="matrix(0.82894289,0,0,0.82894289,-110.07061,40.385279)">
	<path id="path389" fill="#EF5A58" d="M432.1,427.6c-73.8,0-163.1-10.7-217.5-27c-54.4-16.3-53.3-65.8-50.8-145.1h268.3h268.3
		c2.6,79.3,3.6,128.8-50.8,145.1C595.2,417,505.9,427.6,432.1,427.6L432.1,427.6z"/>
	<path id="path385" fill="#FA6F6B" d="M432.1,78.1c-73.8,0-163.1,10.7-217.5,27c-54.4,16.3-53.3,65.8-50.8,145.1h268.3h268.3
		c2.6-79.3,3.6-128.8-50.8-145.1C595.2,88.8,505.9,78.1,432.1,78.1L432.1,78.1z"/>
	<path id="path388" fill="#EF5A58" d="M408.2,137.1c-6.5,0.1-12.9,0.9-19.1,2.9c-13.5,4.5-23.2,20.5-38.5,20.5
		c-12.9,0-14.8-18.1-30.8-12.8c-11.8,3.9-17.1,14.9-25.6,19.2c-5.4,2.7-13.7-10-20.5-7.7c-10.2,3.4-17.4,13.6-24.4,20.5
		c-1.6,1.6-8.1-4.1-12.8-2.6c-6.4,2.1-7.5,10.2-12.8,12.8c-7.8,3.9-15.9-8.7-20.5-6.4c-10.5,5.2-13.8,20.4-16.7,21.8
		c-7.9,3.9-15.8-9-23.5-13.7c-0.6,17.2-0.1,36.7,0.6,58.5h268.3h268.3c0.7-21.8,1.2-41.3,0.6-58.5c-7.7,4.7-15.6,17.7-23.5,13.7
		c-2.8-1.4-6.2-16.5-16.7-21.8c-4.6-2.3-12.7,10.3-20.5,6.4c-5.3-2.7-6.4-10.7-12.8-12.8c-4.7-1.6-11.2,4.1-12.8,2.6
		c-6.9-6.9-14.2-17.1-24.4-20.5c-6.8-2.3-15.1,10.4-20.5,7.7c-8.5-4.3-13.8-15.3-25.6-19.2c-16-5.3-17.9,12.8-30.8,12.8
		c-15.3,0-25-16-38.5-20.5c-6.1-2-12.6-2.8-19.1-2.9c-8-0.1-16,0.8-23.9,1.9C424.2,138,416.2,137,408.2,137.1L408.2,137.1z"/>
	<path id="path359" fill="#A01515" d="M174.4,266.8c0,0,4.5-5.4,10.9-6.8s183.1-20.8,225.2-7.2c19.9,2.3,23.1,5.4,23.6,8.6
		c0.5,3.2-0.5,10.9-0.5,10.9S196.1,280.4,174.4,266.8L174.4,266.8z"/>
	<path id="path360" fill="#A01515" d="M694.4,266.8c0,0-4.5-5.4-10.9-6.8s-183.1-20.8-225.2-7.2c-19.9,2.3-23.1,5.4-23.6,8.6
		c-0.5,3.2,0.5,10.9,0.5,10.9S672.6,280.4,694.4,266.8L694.4,266.8z"/>
	<path id="path390" fill="#FA6F6B" d="M187.3,319.2c0,0-12.7,7.2-5.4,29c7.3,21.7,38.1,36.2,59.8,45.3c21.8,9.1,203,21.7,257.4,18.1
		c54.4-3.6,148.6-12.7,163.1-29c14.5-16.3,27.2-43.5,14.5-48.9c-12.7-5.4-18.1-14.5-43.5,1.8c-25.4,16.3-43.5,9.1-68.9,18.1
		c-25.4,9.1-43.5,12.7-74.3,14.5c-30.8,1.8-52.6,0-90.6,1.8S336,366.3,285.2,359C234.5,351.8,212.7,306.5,187.3,319.2L187.3,319.2z"
		/>
	<path id="path391" opacity="0.15" fill="#FFFFFF" d="M203.6,132.5c16.3-12.7,63.4-19.9,103.3-27.2s188.5-12.7,226.6-9.1
		c38.1,3.6,123.3,21.7,125.1,30.8c1.8,9.1,1.8,21.7-23.6,10.9c-25.4-10.9-134.1-34.4-221.2-29s-126.9,16.3-174,27.2
		S194.6,157.9,203.6,132.5z"/>
	<g>
		<path fill="#FFFFFF" d="M698.3,265.6c3.7-1.1,6.4-3.3,7.1-6.5c1.4-5.8,0-40.7-10.9-43.8c-10.9-3.1-18.6,11.3-18.6,11.3v0
			c0,0-0.3,1.7-0.7,4.3c-1.5-12.3-4.6-24.4-10.2-26.3c-10.9-3.7-18.6,13.7-18.6,13.7s-1.1,7.1-2.1,15.4
			c-1.2-15.2-4.3-32.4-10.7-34.8c-8.2-3.1-14.7,7.1-17.3,12.2c-2-11.6-5.3-21.6-10.3-25.6h0c-9.1-7.2-17.2-7.2-28.1,2.7
			c-3.6,3.3-5.8,11.4-7,21.1c-2.2-14-6.1-26.6-12-31.4c-15.4-7-29-3.8-36.3,10.8c-2.8,5.7-4.8,17.5-5.8,30
			c-3.9-47.9-17.2-62.1-50.5-59c-23.2,2.1-30.3,33.8-32.1,61.3c-1.8-27.5-8.9-59.2-32.1-61.3c-33.3-3.1-46.5,11.1-50.5,59
			c-1-12.5-3-24.3-5.8-30c-7.3-14.7-20.8-17.8-36.3-10.8h0c-6,4.8-9.9,17.4-12,31.4c-1.2-9.7-3.4-17.8-7-21.1
			c-10.9-10-19-10-28.1-2.7h0c-4.9,4-8.3,14-10.3,25.6c-2.6-5.1-9-15.3-17.3-12.2c-6.4,2.4-9.5,19.6-10.7,34.8
			c-1-8.3-2.1-15.4-2.1-15.4s-7.7-17.4-18.6-13.7c-5.6,1.9-8.7,14.1-10.2,26.3c-0.4-2.6-0.7-4.3-0.7-4.3v0c0,0-7.7-14.4-18.6-11.3
			c-10.9,3.1-12.2,38-10.9,43.8c0.7,3.2,3.4,5.4,7.1,6.5c-3.7,0.8-6.4,2.3-7.1,4.5c-1.4,4,0,28.1,10.9,30.3
			c10.9,2.1,18.6-7.8,18.6-7.8v0c0,0,0.3-1.2,0.8-3c1.5,8.5,4.5,16.9,10.1,18.2c10.9,2.6,18.6-9.4,18.6-9.4s1.3-5.9,2.4-12.3
			c1,10.9,4.1,23.9,10.9,25.7c10.9,2.8,18.6-10.3,18.6-10.3s0.7-3.6,1.6-8.4c1.2,11.7,5,23.7,12,27.6h0c9.1,5,17.2,5,28.1-1.9
			c3.5-2.2,5.7-7.5,6.9-13.9c4.6,24.6,16.4,30.4,40.4,28.6c17.1-1.3,23.1-18.4,25-34.5c3.9,31,15.7,40.6,41.2,38.5
			c17.9-1.5,23.7-22.4,25.2-41.1c1.5,18.7,7.3,39.6,25.2,41.1c25.5,2.1,37.2-7.5,41.2-38.5c1.9,16.1,7.9,33.2,25,34.5
			c24,1.9,35.8-4,40.4-28.6c1.2,6.4,3.4,11.7,6.9,13.9c10.9,6.9,19,6.9,28.1,1.9l0,0c6.9-3.9,10.7-15.8,12-27.6
			c0.8,4.8,1.6,8.4,1.6,8.4s7.7,13.1,18.6,10.3c6.8-1.8,9.9-14.8,10.9-25.7c1.1,6.4,2.4,12.3,2.4,12.3s7.7,12,18.6,9.4
			c5.6-1.3,8.7-9.7,10.1-18.2c0.4,1.8,0.8,3,0.8,3v0c0,0,7.7,9.9,18.6,7.8c10.9-2.1,12.2-26.2,10.9-30.3
			C704.7,267.9,702,266.3,698.3,265.6z M520,262.6c0.4,0.4,1.1,0.7,1.8,1c-3.5,0.3-6.7,0.7-9.6,1.2c3.1-1.1,5.3-2.4,6.1-4.1h0
			c0-0.4,0-0.9,0-1.3C518.8,260.9,519.4,262,520,262.6z M433.8,261.6c0,0,0.3-2.8,0.6-7.4c0.3,4.6,0.6,7.4,0.6,7.4
			c0.5,1.6,5,3.1,11.7,4.2c-7.3,0.5-12,1.1-12,1.1s-0.2,1.4-0.3,3.7c-0.2-2.3-0.3-3.7-0.3-3.7s-4.6-0.6-12-1.1
			C428.8,264.7,433.4,263.3,433.8,261.6z M350.5,259.4c0,0.4,0,0.9,0,1.3h0c0.8,1.6,3,3,6.1,4.1c-2.9-0.5-6.1-0.9-9.6-1.2
			c0.7-0.3,1.3-0.6,1.8-1C349.4,262,350,260.9,350.5,259.4z M194.9,268c-2.3-1.2-5.1-1.6-11.7-2.4c6.6-1.2,9.4-1.8,11.7-3.5
			c1.4,1.6,3.3,2.8,5.5,3.5C198.2,266.1,196.3,266.9,194.9,268z M225.6,269.7c-0.1-0.1-0.1-0.2-0.2-0.3c-2.6-2.2-5.3-2.6-13.5-3.9
			c8.2-1.9,10.9-2.4,13.5-5.5c1.4,2.7,3.8,4.6,6.9,5.6C229.3,266.4,226.9,267.7,225.6,269.7z M257.3,269.9
			C257.3,269.9,257.3,269.8,257.3,269.9c-2.7-2.5-5.4-2.9-14.1-4.4c5.3-1.3,8.3-2,10.5-3.3c0.5,0.9,1.1,1.6,1.7,1.8
			c1.6,0.7,3.9,1.3,6.7,1.7c-0.6,0.1-1.2,0.3-1.7,0.4C259.1,266.6,258.1,267.9,257.3,269.9z M300.4,269.6c-0.1-0.1-0.1-0.2-0.2-0.3
			c-1.9-2.4-7.9-3.7-14.7-4.3c4.6-1.1,8.3-2.8,9.7-5.4c0.7-1.2,1.2-3.3,1.8-6.1c0.7,3.5,1.6,5.9,2.8,6.8c2.3,1.8,7.6,3.2,13.8,4.1
			C306.9,265.5,301.9,267.2,300.4,269.6z M363.5,266.4c1,0.2,2,0.3,3,0.5c-0.1,0-0.1,0-0.2,0c0,0.3,0,0.6,0,0.9
			C365.6,267.3,364.7,266.9,363.5,266.4z M502.3,266.9c1-0.1,2.1-0.3,3-0.5c-1.2,0.4-2.2,0.9-2.9,1.4c0-0.3,0-0.6,0-0.9
			C502.4,266.9,502.3,266.9,502.3,266.9z M568.5,269.3c-0.1,0.1-0.1,0.2-0.2,0.3c-1.4-2.4-6.5-4.2-13.2-5.2
			c6.3-0.9,11.5-2.3,13.8-4.1c1.2-0.9,2.1-3.3,2.8-6.8c0.5,2.8,1.1,4.9,1.8,6.1c1.4,2.6,5.1,4.3,9.7,5.4
			C576.4,265.6,570.4,266.9,568.5,269.3z M611.5,269.8C611.5,269.8,611.5,269.9,611.5,269.8c-0.8-1.9-1.9-3.3-3.1-3.6
			c-0.5-0.2-1.1-0.3-1.7-0.4c2.7-0.4,5.1-1,6.7-1.7c0.6-0.3,1.2-0.9,1.7-1.8c2.1,1.2,5.2,2,10.5,3.3
			C616.9,267,614.2,267.4,611.5,269.8z M643.4,269.4c-0.1,0.1-0.1,0.2-0.2,0.3c-1.3-1.9-3.7-3.3-6.7-4.1c3.1-1,5.5-2.9,6.9-5.6
			c2.6,3.1,5.3,3.7,13.5,5.5C648.6,266.9,646,267.2,643.4,269.4z M673.9,268c-1.4-1.1-3.3-1.9-5.5-2.4c2.3-0.7,4.2-1.9,5.5-3.5
			c2.3,1.8,5.1,2.3,11.7,3.5C679,266.4,676.1,266.8,673.9,268z"/>
		<path opacity="0.32" fill="#E0DCDC" d="M698.3,265.6c3.7-1.1,6.4-3.3,7.1-6.5c1.4-5.8,0-40.7-10.9-43.8
			c-10.9-3.1-18.6,11.3-18.6,11.3v0c0,0-0.3,1.7-0.7,4.3c-1.5-12.3-4.6-24.4-10.2-26.3c-10.9-3.7-18.6,13.7-18.6,13.7
			s-1.1,7.1-2.1,15.4c-1.2-15.2-4.3-32.4-10.7-34.8c-8.2-3.1-14.7,7.1-17.3,12.2c-2-11.6-5.3-21.6-10.3-25.6h0
			c-9.1-7.2-17.2-7.2-28.1,2.7c-3.6,3.3-5.8,11.4-7,21.1c-2.2-14-6.1-26.6-12-31.4c-15.4-7-29-3.8-36.3,10.8
			c-2.8,5.7-4.8,17.5-5.8,30c-3.9-47.9-17.2-62.1-50.5-59c-23.2,2.1-30.3,33.8-32.1,61.3c-1.8-27.5-8.9-59.2-32.1-61.3
			c-33.3-3.1-46.5,11.1-50.5,59c-1-12.5-3-24.3-5.8-30c-7.3-14.7-20.8-17.8-36.3-10.8h0c-6,4.8-9.9,17.4-12,31.4
			c-1.2-9.7-3.4-17.8-7-21.1c-10.9-10-19-10-28.1-2.7h0c-4.9,4-8.3,14-10.3,25.6c-2.6-5.1-9-15.3-17.3-12.2
			c-6.4,2.4-9.5,19.6-10.7,34.8c-1-8.3-2.1-15.4-2.1-15.4s-7.7-17.4-18.6-13.7c-5.6,1.9-8.7,14.1-10.2,26.3
			c-0.4-2.6-0.7-4.3-0.7-4.3v0c0,0-7.7-14.4-18.6-11.3c-10.9,3.1-12.2,38-10.9,43.8c0.7,3.2,3.4,5.4,7.1,6.5
			c-3.7,0.8-6.4,2.3-7.1,4.5c-1.4,4,0,28.1,10.9,30.3c10.9,2.1,18.6-7.8,18.6-7.8v0c0,0,0.3-1.2,0.8-3c1.5,8.5,4.5,16.9,10.1,18.2
			c10.9,2.6,18.6-9.4,18.6-9.4s1.3-5.9,2.4-12.3c1,10.9,4.1,23.9,10.9,25.7c10.9,2.8,18.6-10.3,18.6-10.3s0.7-3.6,1.6-8.4
			c1.2,11.7,5,23.7,12,27.6h0c9.1,5,17.2,5,28.1-1.9c3.5-2.2,5.7-7.5,6.9-13.9c4.6,24.6,16.4,30.4,40.4,28.6
			c17.1-1.3,23.1-18.4,25-34.5c3.9,31,15.7,40.6,41.2,38.5c17.9-1.5,23.7-22.4,25.2-41.1c1.5,18.7,7.3,39.6,25.2,41.1
			c25.5,2.1,37.2-7.5,41.2-38.5c1.9,16.1,7.9,33.2,25,34.5c24,1.9,35.8-4,40.4-28.6c1.2,6.4,3.4,11.7,6.9,13.9
			c10.9,6.9,19,6.9,28.1,1.9l0,0c6.9-3.9,10.7-15.8,12-27.6c0.8,4.8,1.6,8.4,1.6,8.4s7.7,13.1,18.6,10.3c6.8-1.8,9.9-14.8,10.9-25.7
			c1.1,6.4,2.4,12.3,2.4,12.3s7.7,12,18.6,9.4c5.6-1.3,8.7-9.7,10.1-18.2c0.4,1.8,0.8,3,0.8,3v0c0,0,7.7,9.9,18.6,7.8
			c10.9-2.1,12.2-26.2,10.9-30.3C704.7,267.9,702,266.3,698.3,265.6z M520,262.6c0.4,0.4,1.1,0.7,1.8,1c-3.5,0.3-6.7,0.7-9.6,1.2
			c3.1-1.1,5.3-2.4,6.1-4.1h0c0-0.4,0-0.9,0-1.3C518.8,260.9,519.4,262,520,262.6z M433.8,261.6c0,0,0.3-2.8,0.6-7.4
			c0.3,4.6,0.6,7.4,0.6,7.4c0.5,1.6,5,3.1,11.7,4.2c-7.3,0.5-12,1.1-12,1.1s-0.2,1.4-0.3,3.7c-0.2-2.3-0.3-3.7-0.3-3.7
			s-4.6-0.6-12-1.1C428.8,264.7,433.4,263.3,433.8,261.6z M350.5,259.4c0,0.4,0,0.9,0,1.3h0c0.8,1.6,3,3,6.1,4.1
			c-2.9-0.5-6.1-0.9-9.6-1.2c0.7-0.3,1.3-0.6,1.8-1C349.4,262,350,260.9,350.5,259.4z M194.9,268c-2.3-1.2-5.1-1.6-11.7-2.4
			c6.6-1.2,9.4-1.8,11.7-3.5c1.4,1.6,3.3,2.8,5.5,3.5C198.2,266.1,196.3,266.9,194.9,268z M225.6,269.7c-0.1-0.1-0.1-0.2-0.2-0.3
			c-2.6-2.2-5.3-2.6-13.5-3.9c8.2-1.9,10.9-2.4,13.5-5.5c1.4,2.7,3.8,4.6,6.9,5.6C229.3,266.4,226.9,267.7,225.6,269.7z
			 M257.3,269.9C257.3,269.9,257.3,269.8,257.3,269.9c-2.7-2.5-5.4-2.9-14.1-4.4c5.3-1.3,8.3-2,10.5-3.3c0.5,0.9,1.1,1.6,1.7,1.8
			c1.6,0.7,3.9,1.3,6.7,1.7c-0.6,0.1-1.2,0.3-1.7,0.4C259.1,266.6,258.1,267.9,257.3,269.9z M300.4,269.6c-0.1-0.1-0.1-0.2-0.2-0.3
			c-1.9-2.4-7.9-3.7-14.7-4.3c4.6-1.1,8.3-2.8,9.7-5.4c0.7-1.2,1.2-3.3,1.8-6.1c0.7,3.5,1.6,5.9,2.8,6.8c2.3,1.8,7.6,3.2,13.8,4.1
			C306.9,265.5,301.9,267.2,300.4,269.6z M363.5,266.4c1,0.2,2,0.3,3,0.5c-0.1,0-0.1,0-0.2,0c0,0.3,0,0.6,0,0.9
			C365.6,267.3,364.7,266.9,363.5,266.4z M502.3,266.9c1-0.1,2.1-0.3,3-0.5c-1.2,0.4-2.2,0.9-2.9,1.4c0-0.3,0-0.6,0-0.9
			C502.4,266.9,502.3,266.9,502.3,266.9z M568.5,269.3c-0.1,0.1-0.1,0.2-0.2,0.3c-1.4-2.4-6.5-4.2-13.2-5.2
			c6.3-0.9,11.5-2.3,13.8-4.1c1.2-0.9,2.1-3.3,2.8-6.8c0.5,2.8,1.1,4.9,1.8,6.1c1.4,2.6,5.1,4.3,9.7,5.4
			C576.4,265.6,570.4,266.9,568.5,269.3z M611.5,269.8C611.5,269.8,611.5,269.9,611.5,269.8c-0.8-1.9-1.9-3.3-3.1-3.6
			c-0.5-0.2-1.1-0.3-1.7-0.4c2.7-0.4,5.1-1,6.7-1.7c0.6-0.3,1.2-0.9,1.7-1.8c2.1,1.2,5.2,2,10.5,3.3
			C616.9,267,614.2,267.4,611.5,269.8z M643.4,269.4c-0.1,0.1-0.1,0.2-0.2,0.3c-1.3-1.9-3.7-3.3-6.7-4.1c3.1-1,5.5-2.9,6.9-5.6
			c2.6,3.1,5.3,3.7,13.5,5.5C648.6,266.9,646,267.2,643.4,269.4z M673.9,268c-1.4-1.1-3.3-1.9-5.5-2.4c2.3-0.7,4.2-1.9,5.5-3.5
			c2.3,1.8,5.1,2.3,11.7,3.5C679,266.4,676.1,266.8,673.9,268z"/>
		<path id="path336" fill="#FFFFFF" d="M387.4,164.7c-13.7,7.2-20.2,24.5-21.8,34.4c-1.6,10-6.5,49.8,1.6,51.6
			c8.1,1.8,51.7,6.3,54.2-2.7c2.4-9.1,1.6-54.3-6.5-69.7C406.8,162.8,395.5,160.1,387.4,164.7L387.4,164.7z"/>
		<path id="path337" fill="#FFFFFF" d="M318.8,180.3c-12.7,9.1-21.8,55.2-15.4,65.2s19,7.2,27.2-0.9
			C338.8,236.4,337.9,173,318.8,180.3z"/>
		<path id="path338" fill="#FFFFFF" d="M270.7,186.2c-13.6,8.2-14.5,29.9-14.5,46.2s0.9,24.5,15.4,19c14.5-5.4,15.3-34.6,13.6-48
			C284.2,195.6,280.7,179.9,270.7,186.2L270.7,186.2z"/>
		<path id="path340" fill="#FFFFFF" d="M236.9,200.7c-5.4,4.5-11.8,48-5.4,50.3c6.3,2.3,13.1,4.1,15-3.2
			C248.2,240.5,248.2,199.8,236.9,200.7L236.9,200.7z"/>
		<path id="path342" fill="#FFFFFF" d="M201.2,211.6c-3.7,5.8-5.4,36.5-2.1,39.1c3.3,2.6,7.9,5.1,8.7-3.8
			C208.7,237.8,207.9,205.8,201.2,211.6z"/>
		<path id="path344" fill="#FFFFFF" d="M172.1,221.1c-4,4.8-5.8,30.1-2.2,32.3c3.6,2.1,8.5,4.2,9.4-3.2
			C180.2,242.8,179.3,216.4,172.1,221.1z"/>
		<path id="path348" fill="#FFFFFF" d="M396.9,324.4c-10.6-4.5-15.6-15.2-16.9-21.3c-1.3-6.2-5-30.9,1.3-32c6.3-1.1,40-3.9,41.9,1.7
			c1.9,5.6,1.3,33.7-5,43.2C411.9,325.5,403.2,327.2,396.9,324.4L396.9,324.4z"/>
		<path id="path351" fill="#FFFFFF" d="M275.7,320c-13.6-5.6-14.5-20.6-14.5-31.9c0-11.3,0.9-16.9,15.4-13.1
			c14.5,3.8,15.3,23.9,13.6,33.2C289.2,313.5,285.6,324.3,275.7,320L275.7,320z"/>
		<path id="path352" fill="#FFFFFF" d="M237.4,310.4c-5.4-3.1-11.8-33.2-5.4-34.7c6.3-1.6,13.1-2.8,15,2.2
			C248.7,282.8,248.7,311,237.4,310.4z"/>
		<path id="path354" fill="#FFFFFF" d="M201.2,302.9c-3.7-4-5.4-25.2-2.1-27c3.3-1.8,7.9-3.5,8.7,2.7
			C208.7,284.7,207.9,306.8,201.2,302.9z"/>
		<path id="path356" fill="#FFFFFF" d="M172.1,296.3c-4-3.3-5.8-20.8-2.2-22.3c3.6-1.5,8.5-2.9,9.4,2.2
			C180.2,281.3,179.3,299.5,172.1,296.3z"/>
		<path id="path358" fill="#FFFFFF" d="M330.7,321c-10.6-4.3-15.6-14.5-16.9-20.4c-1.3-5.9-5-29.5,1.3-30.6c6.3-1.1,40-3.8,41.9,1.6
			c1.9,5.4,1.3,32.2-5,41.3C345.8,322,337,323.7,330.7,321z"/>
		<path id="path364" fill="#FFFFFF" d="M481.4,164.7c13.7,7.2,20.2,24.5,21.8,34.4c1.6,10,6.5,49.8-1.6,51.6
			c-8.1,1.8-51.7,6.3-54.2-2.7c-2.4-9.1-1.6-54.3,6.5-69.7C461.9,162.8,473.3,160.1,481.4,164.7L481.4,164.7z"/>
		<path id="path365" fill="#FFFFFF" d="M550,180.3c12.7,9.1,21.8,55.2,15.4,65.2s-19,7.2-27.2-0.9C530,236.4,530.9,173,550,180.3z"
			/>
		<path id="path367" fill="#FFFFFF" d="M598.1,186.2c13.6,8.2,14.5,29.9,14.5,46.2s-0.9,24.5-15.4,19c-14.5-5.4-15.3-34.6-13.6-48
			C584.6,195.6,588.1,179.9,598.1,186.2L598.1,186.2z"/>
		<path id="path368" fill="#FFFFFF" d="M631.9,200.7c5.4,4.5,11.8,48,5.4,50.3c-6.3,2.3-13.1,4.1-15-3.2
			C620.6,240.5,620.6,199.8,631.9,200.7L631.9,200.7z"/>
		<path id="path370" fill="#FFFFFF" d="M667.6,211.6c3.7,5.8,5.4,36.5,2.1,39.1c-3.3,2.6-7.9,5.1-8.7-3.8
			C660.1,237.8,660.9,205.8,667.6,211.6z"/>
		<path id="path372" fill="#FFFFFF" d="M696.7,221.1c4,4.8,5.8,30.1,2.2,32.3c-3.6,2.1-8.5,4.2-9.4-3.2
			C688.6,242.8,689.5,216.4,696.7,221.1z"/>
		<path id="path375" fill="#FFFFFF" d="M471.9,324.4c10.6-4.5,15.6-15.2,16.9-21.3c1.3-6.2,5-30.9-1.3-32c-6.3-1.1-40-3.9-41.9,1.7
			c-1.9,5.6-1.3,33.7,5,43.2C456.9,325.5,465.6,327.2,471.9,324.4L471.9,324.4z"/>
		<path id="path377" fill="#FFFFFF" d="M593.1,320c13.6-5.6,14.5-20.6,14.5-31.9c0-11.3-0.9-16.9-15.4-13.1
			c-14.5,3.8-15.3,23.9-13.6,33.2C579.6,313.5,583.2,324.3,593.1,320L593.1,320z"/>
		<path id="path378" fill="#FFFFFF" d="M631.4,310.4c5.4-3.1,11.8-33.2,5.4-34.7c-6.3-1.6-13.1-2.8-15,2.2
			C620.1,282.8,620.1,311,631.4,310.4z"/>
		<path id="path380" fill="#FFFFFF" d="M667.6,302.9c3.7-4,5.4-25.2,2.1-27c-3.3-1.8-7.9-3.5-8.7,2.7
			C660.1,284.7,660.9,306.8,667.6,302.9z"/>
		<path id="path382" fill="#FFFFFF" d="M696.7,296.3c4-3.3,5.8-20.8,2.2-22.3c-3.6-1.5-8.5-2.9-9.4,2.2
			C688.6,281.3,689.5,299.5,696.7,296.3z"/>
		<path id="path384" fill="#FFFFFF" d="M538.1,321c10.6-4.3,15.6-14.5,16.9-20.4c1.3-5.9,5-29.5-1.3-30.6c-6.3-1.1-40-3.8-41.9,1.6
			c-1.9,5.4-1.3,32.2,5,41.3C523,322,531.8,323.7,538.1,321z"/>
		<path id="path1019" fill="#E0DCDC" d="M435.1,224.3c0.7-0.1,2.6,8,2.2,18.1c-0.5,10.1-1.5,18.2-2.2,18.2s-0.9-8.3-0.4-18.3
			C435.2,232.3,434.4,224.4,435.1,224.3L435.1,224.3z"/>
		<path id="path1020" fill="#E0DCDC" d="M517.9,221.9c0.3,0.1,0.2,2.2,0.3,5.7c0,4.9,0.2,6.8,0.6,13.6c0,0,0,0,0,0
			c0.3,5.7,0.3,9.9-0.1,13.8c-0.4,3.5-1.2,5.6-1.5,5.6c-0.3-0.1-0.3-2.2-0.3-5.7c-0.1-5.1-0.3-6.6-0.6-13.6c0,0,0,0,0,0
			c-0.3-5.7-0.3-9.9,0.2-13.8C516.8,224,517.5,221.9,517.9,221.9L517.9,221.9z"/>
		<path id="path1021" fill="#E0DCDC" d="M571.2,210.4c0.3-0.1,1.6,2.2,2.1,6.4c0.6,4.6,0.2,9.6-1.1,16.2c0,0-0.1,0.3-0.1,0.3
			c-1.3,7.3-2.2,10.4-2.4,15.5c-0.2,3.9,0.2,6.3-0.1,6.4c-0.3,0.1-1.4-2.3-1.7-6.4c-0.3-4.7,0.4-9.3,1.7-15.9c0,0,0.1-0.3,0.1-0.3
			c1.2-6.9,1.9-11,1.8-15.7C571.5,212.9,570.9,210.5,571.2,210.4L571.2,210.4z"/>
		<path id="path1022" fill="#E0DCDC" d="M617.6,217.3c0.4,0,0.3,2.6,0.6,6.6c0.3,4,1.1,9.7,1.5,16c0,0.1,0,0.2,0,0.3
			c0.4,6.6,0,11.8-1.3,16.1c-1.2,4-2.8,6.1-3.1,5.9c-0.3-0.2,0.7-2.5,1.4-6.3c0.8-4.3,0.9-8.9,0.5-15.6c0,0,0-0.3,0-0.3
			c-0.5-7.1-0.9-11.1-0.7-16.1C616.6,219.8,617.2,217.3,617.6,217.3L617.6,217.3z"/>
		<path id="path1023" fill="#E0DCDC" d="M644.6,236.6c0.3,0,0.9,1.3,1,3.6c0.1,2.6-0.2,5.1-0.7,8.7c0,0,0,0.1,0,0.1
			c-0.5,3.8-0.9,5.6-0.9,8.2c0,2.1,0.2,3.4-0.1,3.5c-0.3,0.1-1.2-1.1-1.7-3.3c-0.5-2.4-0.4-5.2,0.1-8.7c0,0,0-0.1,0-0.1
			c0.5-3.4,1.2-6.3,1.5-8.4C644.2,238,644.3,236.6,644.6,236.6L644.6,236.6z"/>
		<path id="path1024" fill="#E0DCDC" d="M678.2,228.8c0.3-0.1,1.3,1.8,1.6,5c0.3,3.5-0.1,7.5-1.5,12.4c0,0.1,0,0.2-0.1,0.2
			c-1.2,4.6-2.6,8.7-3.3,11.6c-0.7,2.9-0.9,4.8-1.2,4.8c-0.3,0-0.8-1.9-0.6-5.1c0.3-3.7,1.2-6.9,2.6-12c0,0,0.1-0.2,0.1-0.2
			c1.3-5.1,2-8.4,2.2-11.8C678.1,230.8,677.8,228.9,678.2,228.8L678.2,228.8z"/>
		<path id="path1025" fill="#E0DCDC" d="M296,213.4c0.4,0,0.8,4.6,0.3,11.2c-0.2,3.4-0.7,8.9-0.8,13.3c0,0.2,0,0.4,0,0.6
			c-0.1,5.1,0,9.1,0.8,12.9c1.3,6,4.6,8.8,4.4,9.2c-0.2,0.3-4.6-1.6-6.5-8.7c-1.1-4-1.4-8.3-1.3-13.5c0-0.2,0-0.4,0-0.6
			c0.2-4.9,0.8-9.7,1.2-13.4C295,217.8,295.5,213.5,296,213.4L296,213.4z"/>
		<path id="path1026" fill="#E0DCDC" d="M354.7,218.8c0.7,0.2-1.8,9.1-1.9,20.4c-0.1,11.3,1.9,20.4,1.2,20.5
			c-0.6,0.2-3.9-8.7-3.7-20.6C350.4,227.4,354,218.6,354.7,218.8z"/>
		<path id="path1027" fill="#E0DCDC" d="M251.1,215c0.4,0,0.7,2.7,0.8,7.2c0.1,5.3-0.2,9.8-0.6,17.3c0,0,0,0.6,0,0.6
			c-0.3,7.3-0.4,11.8,0,16.7c0.3,4.2,0.8,6.8,0.5,6.9c-0.3,0.1-1.5-2.4-2.3-6.7c-0.9-4.7-1.1-10-0.8-17c0-0.2,0-0.4,0-0.6
			c0.3-5.7,1-14,1.3-17.2C250.5,217.7,250.8,215,251.1,215L251.1,215z"/>
		<path id="path1028" fill="#E0DCDC" d="M223.3,235.8c0.7,0.1,0.3,5.9,0.3,12.9c0,7,1.2,12.4,0.5,12.6c-0.7,0.2-3.1-5.3-3.1-12.6
			C221,241.5,222.6,235.8,223.3,235.8L223.3,235.8z"/>
		<path id="path1029" fill="#E0DCDC" d="M194.7,232c0.7,0.1,0.3,6.7,0.4,14.8c0,8,1.1,14.4,0.4,14.6s-2.9-6.3-3-14.6
			C192.4,238.5,194,231.9,194.7,232z"/>
		<path id="path1030" fill="#E0DCDC" d="M192.4,269.1c0.7,0.2-0.2,4.6,0.3,10c0.5,5.4,1.9,9.8,1.2,10.1c-0.6,0.2-3.2-3.8-3.8-9.9
			C189.5,273.2,191.6,268.8,192.4,269.1z"/>
		<path id="path1031" fill="#E0DCDC" d="M223.3,270.6c0.7,0,1.3,3.6,1.3,8.1c0,4.5-0.6,8.1-1.3,8.1s-1.3-3.6-1.3-8.1
			C222,274.2,222.6,270.6,223.3,270.6z"/>
		<path id="path1032" fill="#E0DCDC" d="M258.1,270.6c0.7,0.1,0.1,4.9,0.2,10.6c0,5.6,1.3,10,0.6,10.3c-0.7,0.3-3.1-4.1-3.2-10.3
			C255.6,275,257.5,270.5,258.1,270.6L258.1,270.6z"/>
		<path id="path1033" fill="#E0DCDC" d="M302.9,271.4c0.7,0.1-0.1,6.2,0.3,13.6c0.4,7.4,1.9,13.3,1.2,13.5
			c-0.7,0.2-3.4-5.5-3.8-13.3C300.2,277.2,302.3,271.2,302.9,271.4z"/>
		<path id="path1034" fill="#E0DCDC" d="M366.3,270.6c0.3-0.1,1.2,1.4,1.9,4.2c0.7,3.1,0.9,6.4,0.9,10.9c0,0,0,0.2,0,0.2
			c0.1,4.8,0,7.2,0.5,10.5c0.4,2.6,0.9,4.2,0.6,4.3c-0.3,0.1-1.4-1.2-2.4-3.9c-1-3-1.3-6.4-1.3-10.9c0-0.1,0-0.1,0-0.2
			c0-4.2,0.1-8-0.1-10.7C366.3,272.4,366,270.7,366.3,270.6L366.3,270.6z"/>
		<path id="path1035" fill="#E0DCDC" d="M435.1,268.3c0.3,0,0.8,1.7,1,4.6c0.2,3.3,0,6.4-0.3,11c0,0,0,0.1,0,0.1
			c-0.3,4.7-0.3,7.5-0.1,10.7c0.2,2.7,0.5,4.4,0.2,4.5c-0.3,0.1-1.3-1.4-1.9-4.2c-0.7-3-1-6.6-0.7-11.1v-0.1c0.2-3.2,0.9-9.3,1-10.9
			C434.6,270.1,434.8,268.3,435.1,268.3L435.1,268.3z"/>
		<path id="path1036" fill="#E0DCDC" d="M498.5,272.9c0.7-0.1,1.5,6,1.5,13.2c0.1,7.2,0.7,12.9,0,13.1c-0.7,0.2-2.5-5.7-2.6-13
			C497.4,278.8,497.8,273,498.5,272.9L498.5,272.9z"/>
		<path id="path1037" fill="#E0DCDC" d="M568.9,272.2c0.7,0,1.3,6.3,0.9,14c-0.3,7.7-1,13.8-1.7,13.8s-1.2-6.3-0.9-14
			C567.6,278.3,568.2,272.2,568.9,272.2z"/>
		<path id="path1038" fill="#E0DCDC" d="M612.9,269.8c0.7,0.2-0.7,6.1-1.5,13.3c0,0.2,0,0.3-0.1,0.5c-0.4,3.7-0.3,6.4,0.1,8.8
			c0.4,2.2,0.9,3.5,0.6,3.7c-0.3,0.2-1.4-0.9-2.3-3.2c-1-2.4-1.4-5.6-1-9.5c0-0.2,0-0.3,0.1-0.5
			C609.8,275.3,612.3,269.7,612.9,269.8L612.9,269.8z"/>
		<path id="path1039" fill="#E0DCDC" d="M644.6,271.4c0.7-0.1,1.6,4,1.1,8.6c0,0.1,0,0.1,0,0.2c-0.4,4.6-0.5,8-1.1,8.2
			c-0.7,0.2-1.9-3.8-1.4-8.4c0-0.1,0-0.1,0-0.2C643.7,275.1,643.9,271.5,644.6,271.4L644.6,271.4z"/>
		<path id="path1040" fill="#E0DCDC" d="M675.6,271.4c0.7,0.1,0.5,5,0.9,11.1c0.4,6.1,0.6,11.2-0.1,11.3s-2.1-4.8-2.5-11.1
			C673.5,276.3,674.9,271.3,675.6,271.4L675.6,271.4z"/>
		<path id="path1041" fill="#E0DCDC" d="M452.1,265.2c0.1-0.3,3.1,0.5,8.1,1c5.6,0.6,11.2,0.5,19.6,0c0.6,0,1.3-0.1,1.9-0.1l0,0
			c7.2-0.5,13.7-1.3,18.5-1.4c4.7-0.1,7.6,0.2,7.6,0.5c0,0.3-2.9,0.6-7.5,1.2c-3,0.4-12.7,1.8-18.4,2.2l0,0c-0.6,0-1.3,0.1-1.9,0.1
			c-8.2,0.5-14.6,0.3-20-0.8C454.9,267,452,265.5,452.1,265.2L452.1,265.2z"/>
		<path id="path1042" fill="#E0DCDC" d="M373.3,266.7c0.1-0.3,3,0.6,7.7,1.1c5.2,0.6,10.9,0.5,18.7-0.5c0.1,0,0.2,0,0.3,0
			c8.7-1.2,12.4-2.1,18.7-2.5c4.9-0.3,7.9,0.1,7.9,0.4c0,0.4-3,0.6-7.7,1.4c-4.7,0.8-11.2,2.2-18.5,3.3c-0.1,0-0.2,0-0.4,0.1
			c-7.8,1.1-14.2,0.9-19.4-0.2C375.9,268.6,373.1,267.1,373.3,266.7z"/>
		<path id="path1043" fill="#E0DCDC" d="M315.3,263.7c0.1-0.7,6.9-0.5,15.2-0.2c8.3,0.2,14.8-0.5,15,0.2c0.1,0.7-6.6,2.6-15.1,2.3
			C321.9,265.8,315.2,264.4,315.3,263.7z"/>
		<path id="path1044" fill="#E0DCDC" d="M259.6,266c0-0.4,1.8-0.8,4.7-1c3.6-0.3,6.3-0.2,11.3-0.2c0,0,0.1,0,0.1,0
			c4.7-0.1,7.9-0.4,11-1c2.7-0.5,4.4-1.1,4.6-0.8c0.1,0.3-1.3,1.5-4.1,2.5c-3,1.1-6.7,1.8-11.4,1.8l-0.1,0
			c-4.1,0.1-8.9-0.3-11.4-0.5C261.5,266.5,259.6,266.3,259.6,266L259.6,266z"/>
		<path id="path1045" fill="#E0DCDC" d="M233.3,264.4c0.2-0.5,3.3-0.3,6.8-0.6c3.7-0.2,7.1-0.1,7.1,0.6c0.1,0.7-2.9,1.8-7,2
			C236.1,266.6,233.1,265.2,233.3,264.4L233.3,264.4z"/>
		<path id="path1046" fill="#E0DCDC" d="M202.4,263.7c0.2-0.7,2.4-0.6,4.8-0.3c2.3,0.3,4.3,0.5,4.5,1.1c0.2,0.7-1.9,1.8-4.8,1.5
			C204.1,265.6,202.3,264.3,202.4,263.7L202.4,263.7z"/>
		<path id="path1047" fill="#E0DCDC" d="M173,265.2c0.1-0.3,1.4-0.2,3.4-0.1c2.6,0.1,4.2,0,8.1-0.1c0,0,0.1,0,0.1,0
			c3.4-0.2,6-0.2,8.3,0.3c2.2,0.4,3.3,1.1,3.3,1.4c-0.1,0.3-1.4,0.3-3.4,0.4c-2,0.1-4.8,0.3-8.1,0.5c0,0-0.1,0-0.1,0
			c-3.4,0.2-6.2,0-8.5-0.7C174,266.3,172.9,265.5,173,265.2L173,265.2z"/>
		<path id="path1048" fill="#E0DCDC" d="M585.9,264.4c0.1-0.6,3.9-0.6,8.5-0.5c4.6,0.1,8.5,0.6,8.5,1.3c0,0.7-3.8,1.4-8.6,1.3
			C589.5,266.3,585.8,265.2,585.9,264.4L585.9,264.4z"/>
		<path id="path1049" fill="#E0DCDC" d="M521.7,263.7c0.1-0.7,8.4,0.3,18.8-0.1c10.4-0.4,19.1-0.6,19.1,0.1c0,0.7-8.4,2.1-19,2.5
			C530,266.5,521.6,264.3,521.7,263.7z"/>
		<path id="path1050" fill="#E0DCDC" d="M654.6,265.3c0-0.7,3.3-1.2,7.3-1.3c0.2,0,0.3,0,0.5,0c3.8-0.1,7,0.5,7,1.1
			c0,0.7-3,1.2-6.9,1.4c-0.2,0-0.3,0-0.5,0C657.9,266.7,654.5,266,654.6,265.3L654.6,265.3z"/>
		<path id="path1051" fill="#E0DCDC" d="M623.6,265c-0.1-0.7,3.2-1.4,7.2-1.1c4,0.3,7.1,0.7,7.2,1.4c0.1,0.7-3.2,1.4-7.2,1.1
			C626.8,266.2,623.6,265.7,623.6,265L623.6,265z"/>
	</g>
</g>
</svg>
