<?xml version="1.0" encoding="utf-8"?>
<!-- Generator: Adobe Illustrator 28.0.0, SVG Export Plug-In . SVG Version: 6.00 Build 0)  -->
<svg version="1.1" id="OBJECTS" xmlns="http://www.w3.org/2000/svg" xmlns:xlink="http://www.w3.org/1999/xlink" x="0px" y="0px"
	 width="500px" height="500px" viewBox="0 0 500 500" enable-background="new 0 0 500 500" xml:space="preserve">
<g id="g556" transform="matrix(0.82894289,0,0,0.82894289,144.75853,194.5637)">
	<path id="path502" fill="#EF5A58" d="M124.7,240.8c-73.4,0-162.3-10.6-216.4-26.8c-54.1-16.2-53-65.4-50.5-144.3h266.9h266.9
		c2.6,78.9,3.6,128.1-50.5,144.3C287,230.1,198.1,240.8,124.7,240.8L124.7,240.8z"/>
	<path id="path503" fill="#FA6F6B" d="M124.7-107C51.2-107-37.7-96.4-91.8-80.2c-54.1,16.2-53,65.4-50.5,144.3h266.9h266.9
		c2.6-78.9,3.6-128.1-50.5-144.3C287-96.4,198.1-107,124.7-107L124.7-107z"/>
	<path id="path504" fill="#EF5A58" d="M100.9-48.3c-6.5,0.1-12.9,0.9-19,2.9C68.6-40.9,58.9-25,43.7-25C30.9-25,29-43,13.1-37.7
		c-11.7,3.9-17,14.9-25.5,19.1c-5.4,2.7-13.6-9.9-20.4-7.6C-42.9-22.9-50.1-12.8-57-5.9c-1.6,1.6-8-4.1-12.8-2.5
		c-6.4,2.1-7.5,10.1-12.8,12.7c-7.8,3.9-15.8-8.7-20.4-6.4c-10.5,5.2-13.8,20.3-16.6,21.7c-7.8,3.9-15.7-9-23.3-13.7
		c-0.6,17.1-0.1,36.5,0.6,58.2h266.9h266.9c0.7-21.7,1.2-41.1,0.6-58.2c-7.7,4.7-15.5,17.6-23.3,13.7C366,18.2,362.7,3.2,352.3-2
		c-4.6-2.3-12.6,10.3-20.4,6.4c-5.3-2.6-6.4-10.6-12.8-12.7c-4.7-1.6-11.2,4.1-12.8,2.5c-6.9-6.9-14.1-17-24.2-20.4
		c-6.8-2.3-15,10.3-20.4,7.6c-8.5-4.2-13.8-15.2-25.5-19.1C220.3-43,218.4-25,205.6-25c-15.2,0-24.9-15.9-38.3-20.4
		c-6.1-2-12.5-2.8-19-2.9c-7.9-0.1-15.9,0.8-23.7,1.9C116.9-47.5,108.9-48.4,100.9-48.3L100.9-48.3z"/>
	<path id="path505" fill="#A01515" d="M51.4,50.1C-16,49.7-116.1,70.9-120.9,72.8c-6.3,2.6-10.8,12.8-10.8,12.8
		c19.8,23.5,217,12.7,250.9,10.7c23.8,1.4,244.6,13.6,266.4-10.7c0,0-4.8-10.3-11.5-12.8c-6.7-2.6-194.1-39.3-238.8-13.7
		c-7.6,1.5-12.9,3.3-16.6,5.2c-3.5-1.9-8.4-3.7-15.6-5.2C92.7,52.7,73.9,50.2,51.4,50.1z"/>
	<path id="path555" fill="#FA6F6B" d="M-118.8,132.9c0,0-12.6,7.2-5.4,28.8c7.2,21.6,37.9,36,59.5,45c21.6,9,202,21.6,256.1,18
		c54.1-3.6,147.9-12.6,162.3-28.8c14.4-16.2,27.1-43.2,14.4-48.7c-12.6-5.4-18-14.4-43.3,1.8c-25.2,16.2-43.3,9-68.5,18
		c-25.2,9-43.3,12.6-73.9,14.4c-30.7,1.8-52.3,0-90.2,1.8s-63.1-3.6-113.6-10.8C-71.9,165.3-93.6,120.2-118.8,132.9L-118.8,132.9z"
		/>
	<path id="path556" opacity="0.15" fill="#FFFFFF" d="M-102.6-52.9c16.2-12.6,63.1-19.8,102.8-27c39.7-7.2,187.6-12.6,225.4-9
		c37.9,3.6,122.6,21.6,124.4,30.6c1.8,9,1.8,21.6-23.4,10.8c-25.2-10.8-133.5-34.2-220-28.8s-126.2,16.2-173.1,27
		S-111.6-27.6-102.6-52.9z"/>
	<g>
		<path fill="#FFFFFF" d="M388.9,79.7c4-1,7-3.3,7.7-6.7c1.4-5.8,0-40.5-10.8-43.6c-10.8-3.1-18.5,11.2-18.5,11.2v0
			c0,0-0.3,1.7-0.7,4.2c-1.5-12.2-4.5-24.3-10.1-26.2C345.7,15,338,32.3,338,32.3s-1.1,7-2.1,15.3c-1.2-15.1-4.3-32.2-10.7-34.6
			c-7.9-3-14.1,6.3-16.9,11.6c-1.9-11.4-5.3-21.4-10.5-25.3h0c-9-6.7-17.1-6.7-28,2.5c-3.1,2.6-5.2,8.6-6.4,16
			c-2-14.5-6-28-12.5-32.9c-15.3-6.6-28.9-3.6-36.1,10.2c-2.8,5.4-4.8,16.4-5.8,28.2c-3.9-45-17.1-58.4-50.2-55.5
			c-23.1,2-30.2,31.8-31.9,57.6c-1.7-25.8-8.8-55.6-31.9-57.6C62-35.2,48.8-21.9,44.9,23.2c-1-11.8-3-22.8-5.8-28.2
			C31.8-18.8,18.3-21.8,3-15.2h0C-3.5-10.3-7.5,3.3-9.5,17.7c-1.3-7.3-3.3-13.3-6.4-16c-10.8-9.2-18.9-9.2-28-2.5h0
			c-5.2,3.9-8.6,13.9-10.5,25.3c-2.8-5.2-9-14.5-16.9-11.6c-6.4,2.4-9.5,19.5-10.7,34.6c-1-8.3-2.1-15.3-2.1-15.3
			s-7.7-17.3-18.5-13.6c-5.6,1.9-8.6,14-10.1,26.2c-0.4-2.6-0.7-4.2-0.7-4.2v0c0,0-7.7-14.3-18.5-11.2
			c-10.8,3.1-12.2,37.8-10.8,43.6c0.8,3.3,3.7,5.6,7.7,6.7c-4,0.8-7,2.6-7.7,5.2c-1.4,4.5,0,31.5,10.8,33.8
			c10.8,2.4,18.5-8.7,18.5-8.7s0.3-1.3,0.7-3.3c1.5,9.5,4.5,18.9,10.1,20.4c10.8,2.9,18.5-10.6,18.5-10.6s1.3-6.5,2.4-13.8
			c1,12.2,4.1,26.8,10.8,28.7c10.8,3.1,18.5-11.5,18.5-11.5v0c0,0,0.7-4,1.5-9.3c1.2,13.1,5,26.5,11.9,30.8h0c9,5.6,17.1,5.6,28-2.1
			c3-2.1,5.1-6.9,6.3-12.8c4.2,25.9,15.9,32.1,40.7,30.2c16.5-1.2,22.6-16.7,24.7-31.7c3.7,32.7,15.4,42.8,41.1,40.7
			c17.8-1.5,23.6-22.8,25.1-41.8c1.5,19,7.3,40.3,25.1,41.8c25.8,2.1,37.4-8,41.1-40.7c2.1,15,8.2,30.5,24.7,31.7
			c24.8,1.9,36.5-4.3,40.7-30.2c1.3,5.9,3.3,10.7,6.3,12.8c10.8,7.7,18.9,7.7,28,2.1l0,0c6.9-4.3,10.7-17.7,11.9-30.8
			c0.8,5.3,1.5,9.3,1.5,9.3v0c0,0,7.7,14.7,18.5,11.5c6.7-2,9.8-16.6,10.8-28.7c1.1,7.2,2.4,13.8,2.4,13.8s7.7,13.4,18.5,10.6
			c5.6-1.5,8.6-10.9,10.1-20.4c0.4,2,0.7,3.3,0.7,3.3s7.7,11.1,18.5,8.7c10.8-2.4,12.2-29.4,10.8-33.8
			C395.9,82.3,393,80.5,388.9,79.7z M-111.3,82.5c-2.4-1.4-5.3-1.8-12.6-2.9c7.2-1.4,10.2-1.9,12.6-3.7c1.5,1.8,3.6,3,6,3.7
			C-107.7,80.2-109.8,81.2-111.3,82.5z M-80.8,84.4c-0.1-0.1-0.1-0.2-0.2-0.3c-2.7-2.5-5.4-2.9-14.2-4.4c8.8-2,11.5-2.5,14.2-5.7
			c1.5,2.9,4,4.8,7.3,5.8C-76.9,80.5-79.4,82.1-80.8,84.4z M303.2,84.6C303.2,84.6,303.2,84.6,303.2,84.6c-0.8-2.2-1.8-3.7-3.1-4.1
			c-8.1-2.8-35.2-2.8-39.7,3.5c-1.1,1.5-2,5-2.6,9.5c-11.6-6.2-54.9-5.3-63.3,0.4c-30.5-4.5-67.2,0-67.2,0s-0.2,1.4-0.3,3.7
			c-0.2-2.3-0.3-3.7-0.3-3.7s-36.7-4.5-67.2,0C51,88.1,7.8,87.3-3.9,93.5c-0.6-4.5-1.5-8-2.6-9.5c-4.5-6.3-31.6-6.3-39.7-3.5
			c-1.2,0.4-2.2,1.9-3,4.1c0,0,0,0,0-0.1c-2.7-2.8-5.4-3.1-14.4-4.9c-0.1,0-0.2,0-0.3,0c8.9-2.2,11.6-2.7,14.3-6.3
			c0.2-0.2,0.3-0.6,0.4-1.1c9.7,2.7,33.6,2.2,37.8-4.8c0.9-1.5,1.7-4.9,2.3-9.2c0.6,2,1.3,3.4,2.2,4c7.2,5.3,42.4,7,48.7,2.2
			c0.7-0.5,1.2-1.6,1.7-3c0,0.4,0,0.8,0,1.2h0c5.6,11.1,80.9,7.5,82.9,0.9c0,0,0.3-2.6,0.6-7c0.3,4.3,0.6,7,0.6,7
			c2.1,6.6,77.3,10.2,82.9-0.9h0c0-0.4,0-0.8,0-1.2c0.5,1.4,1.1,2.5,1.7,3c6.3,4.9,41.5,3.1,48.7-2.2c0.8-0.6,1.6-2,2.2-4
			c0.6,4.3,1.4,7.7,2.3,9.2c4.2,7,28.1,7.5,37.8,4.8c0.1,0.5,0.2,0.9,0.4,1.1c2.7,3.6,5.4,4.1,14.3,6.3c-0.1,0-0.2,0-0.3,0
			C308.6,81.4,305.9,81.8,303.2,84.6z M334.9,84.1c-0.1,0.1-0.1,0.2-0.2,0.3c-1.4-2.3-3.9-3.9-7.1-4.7c3.3-0.9,5.9-2.9,7.3-5.8
			c2.7,3.2,5.4,3.7,14.2,5.7C340.3,81.2,337.6,81.6,334.9,84.1z M365.2,82.5c-1.5-1.4-3.6-2.3-6-2.9c2.5-0.7,4.6-1.9,6-3.7
			c2.4,1.8,5.3,2.3,12.6,3.7C370.6,80.7,367.6,81.1,365.2,82.5z"/>
		<path opacity="0.32" fill="#E0DCDC" d="M388.9,79.7c4-1,7-3.3,7.7-6.7c1.4-5.8,0-40.5-10.8-43.6c-10.8-3.1-18.5,11.2-18.5,11.2v0
			c0,0-0.3,1.7-0.7,4.2c-1.5-12.2-4.5-24.3-10.1-26.2C345.7,15,338,32.3,338,32.3s-1.1,7-2.1,15.3c-1.2-15.1-4.3-32.2-10.7-34.6
			c-7.9-3-14.1,6.3-16.9,11.6c-1.9-11.4-5.3-21.4-10.5-25.3h0c-9-6.7-17.1-6.7-28,2.5c-3.1,2.6-5.2,8.6-6.4,16
			c-2-14.5-6-28-12.5-32.9c-15.3-6.6-28.9-3.6-36.1,10.2c-2.8,5.4-4.8,16.4-5.8,28.2c-3.9-45-17.1-58.4-50.2-55.5
			c-23.1,2-30.2,31.8-31.9,57.6c-1.7-25.8-8.8-55.6-31.9-57.6C62-35.2,48.8-21.9,44.9,23.2c-1-11.8-3-22.8-5.8-28.2
			C31.8-18.8,18.3-21.8,3-15.2h0C-3.5-10.3-7.5,3.3-9.5,17.7c-1.3-7.3-3.3-13.3-6.4-16c-10.8-9.2-18.9-9.2-28-2.5h0
			c-5.2,3.9-8.6,13.9-10.5,25.3c-2.8-5.2-9-14.5-16.9-11.6c-6.4,2.4-9.5,19.5-10.7,34.6c-1-8.3-2.1-15.3-2.1-15.3
			s-7.7-17.3-18.5-13.6c-5.6,1.9-8.6,14-10.1,26.2c-0.4-2.6-0.7-4.2-0.7-4.2v0c0,0-7.7-14.3-18.5-11.2
			c-10.8,3.1-12.2,37.8-10.8,43.6c0.8,3.3,3.7,5.6,7.7,6.7c-4,0.8-7,2.6-7.7,5.2c-1.4,4.5,0,31.5,10.8,33.8
			c10.8,2.4,18.5-8.7,18.5-8.7s0.3-1.3,0.7-3.3c1.5,9.5,4.5,18.9,10.1,20.4c10.8,2.9,18.5-10.6,18.5-10.6s1.3-6.5,2.4-13.8
			c1,12.2,4.1,26.8,10.8,28.7c10.8,3.1,18.5-11.5,18.5-11.5v0c0,0,0.7-4,1.5-9.3c1.2,13.1,5,26.5,11.9,30.8h0c9,5.6,17.1,5.6,28-2.1
			c3-2.1,5.1-6.9,6.3-12.8c4.2,25.9,15.9,32.1,40.7,30.2c16.5-1.2,22.6-16.7,24.7-31.7c3.7,32.7,15.4,42.8,41.1,40.7
			c17.8-1.5,23.6-22.8,25.1-41.8c1.5,19,7.3,40.3,25.1,41.8c25.8,2.1,37.4-8,41.1-40.7c2.1,15,8.2,30.5,24.7,31.7
			c24.8,1.9,36.5-4.3,40.7-30.2c1.3,5.9,3.3,10.7,6.3,12.8c10.8,7.7,18.9,7.7,28,2.1l0,0c6.9-4.3,10.7-17.7,11.9-30.8
			c0.8,5.3,1.5,9.3,1.5,9.3v0c0,0,7.7,14.7,18.5,11.5c6.7-2,9.8-16.6,10.8-28.7c1.1,7.2,2.4,13.8,2.4,13.8s7.7,13.4,18.5,10.6
			c5.6-1.5,8.6-10.9,10.1-20.4c0.4,2,0.7,3.3,0.7,3.3s7.7,11.1,18.5,8.7c10.8-2.4,12.2-29.4,10.8-33.8
			C395.9,82.3,393,80.5,388.9,79.7z M-111.3,82.5c-2.4-1.4-5.3-1.8-12.6-2.9c7.2-1.4,10.2-1.9,12.6-3.7c1.5,1.8,3.6,3,6,3.7
			C-107.7,80.2-109.8,81.2-111.3,82.5z M-80.8,84.4c-0.1-0.1-0.1-0.2-0.2-0.3c-2.7-2.5-5.4-2.9-14.2-4.4c8.8-2,11.5-2.5,14.2-5.7
			c1.5,2.9,4,4.8,7.3,5.8C-76.9,80.5-79.4,82.1-80.8,84.4z M303.2,84.6C303.2,84.6,303.2,84.6,303.2,84.6c-0.8-2.2-1.8-3.7-3.1-4.1
			c-8.1-2.8-35.2-2.8-39.7,3.5c-1.1,1.5-2,5-2.6,9.5c-11.6-6.2-54.9-5.3-63.3,0.4c-30.5-4.5-67.2,0-67.2,0s-0.2,1.4-0.3,3.7
			c-0.2-2.3-0.3-3.7-0.3-3.7s-36.7-4.5-67.2,0C51,88.1,7.8,87.3-3.9,93.5c-0.6-4.5-1.5-8-2.6-9.5c-4.5-6.3-31.6-6.3-39.7-3.5
			c-1.2,0.4-2.2,1.9-3,4.1c0,0,0,0,0-0.1c-2.7-2.8-5.4-3.1-14.4-4.9c-0.1,0-0.2,0-0.3,0c8.9-2.2,11.6-2.7,14.3-6.3
			c0.2-0.2,0.3-0.6,0.4-1.1c9.7,2.7,33.6,2.2,37.8-4.8c0.9-1.5,1.7-4.9,2.3-9.2c0.6,2,1.3,3.4,2.2,4c7.2,5.3,42.4,7,48.7,2.2
			c0.7-0.5,1.2-1.6,1.7-3c0,0.4,0,0.8,0,1.2h0c5.6,11.1,80.9,7.5,82.9,0.9c0,0,0.3-2.6,0.6-7c0.3,4.3,0.6,7,0.6,7
			c2.1,6.6,77.3,10.2,82.9-0.9h0c0-0.4,0-0.8,0-1.2c0.5,1.4,1.1,2.5,1.7,3c6.3,4.9,41.5,3.1,48.7-2.2c0.8-0.6,1.6-2,2.2-4
			c0.6,4.3,1.4,7.7,2.3,9.2c4.2,7,28.1,7.5,37.8,4.8c0.1,0.5,0.2,0.9,0.4,1.1c2.7,3.6,5.4,4.1,14.3,6.3c-0.1,0-0.2,0-0.3,0
			C308.6,81.4,305.9,81.8,303.2,84.6z M334.9,84.1c-0.1,0.1-0.1,0.2-0.2,0.3c-1.4-2.3-3.9-3.9-7.1-4.7c3.3-0.9,5.9-2.9,7.3-5.8
			c2.7,3.2,5.4,3.7,14.2,5.7C340.3,81.2,337.6,81.6,334.9,84.1z M365.2,82.5c-1.5-1.4-3.6-2.3-6-2.9c2.5-0.7,4.6-1.9,6-3.7
			c2.4,1.8,5.3,2.3,12.6,3.7C370.6,80.7,367.6,81.1,365.2,82.5z"/>
		<path id="path509" fill="#FFFFFF" d="M80.3-27.5c-13.7,6.8-20.1,23-21.7,32.3c-1.6,9.4-6.4,46.8,1.6,48.5c8,1.7,51.5,6,53.9-2.6
			s1.6-51.1-6.4-65.5C99.6-29.2,88.3-31.8,80.3-27.5L80.3-27.5z"/>
		<path id="path510" fill="#FFFFFF" d="M12-12.9C-0.6-4.3-9.6,39.1-3.3,48.4s18.9,6.8,27.1-0.9C31.9,39.9,30.9-19.7,12-12.9z"/>
		<path id="path512" fill="#FFFFFF" d="M-35.9,0.1c-13.5,7.5-14.4,27.5-14.4,42.5c0,15,0.9,22.5,15.3,17.5
			c14.4-5,15.2-31.8,13.5-44.1C-22.5,8.7-26-5.7-35.9,0.1L-35.9,0.1z"/>
		<path id="path513" fill="#FFFFFF" d="M-69.5,15c-5.4,4.5-11.7,47.8-5.4,50c6.3,2.3,13.1,4.1,14.9-3.2
			C-58.2,54.6-58.2,14.1-69.5,15L-69.5,15z"/>
		<path id="path515" fill="#FFFFFF" d="M-105,25.8c-3.7,5.7-5.4,36.3-2.1,38.9c3.3,2.5,7.8,5.1,8.6-3.8
			C-97.6,51.9-98.4,20.1-105,25.8z"/>
		<path id="path517" fill="#FFFFFF" d="M-134,35.3c-4,4.7-5.8,30-2.2,32.1c3.6,2.1,8.5,4.2,9.4-3.2C-126,56.9-126.9,30.6-134,35.3z"
			/>
		<path id="path520" fill="#FFFFFF" d="M89.7,152.4c-10.6-4.6-15.6-15.4-16.8-21.7c-1.2-6.3-5-31.4,1.2-32.5
			c6.2-1.1,39.8-4,41.7,1.7c1.9,5.7,1.2,34.3-5,44C104.6,153.5,95.9,155.2,89.7,152.4z"/>
		<path id="path522" fill="#FFFFFF" d="M-30.9,140.6c-13.5-6.3-14.4-23.1-14.4-35.7s0.9-18.9,15.3-14.7
			c14.4,4.2,15.2,26.8,13.5,37.1C-17.5,133.4-21,145.5-30.9,140.6L-30.9,140.6z"/>
		<path id="path523" fill="#FFFFFF" d="M-69.1,129.9c-5.4-3.5-11.7-37.1-5.4-38.8c6.3-1.7,13.1-3.1,14.9,2.4
			C-57.8,99.2-57.8,130.6-69.1,129.9z"/>
		<path id="path525" fill="#FFFFFF" d="M-105,121.5c-3.7-4.5-5.4-28.2-2.1-30.2c3.3-2,7.8-4,8.6,3C-97.6,101.2-98.4,126-105,121.5z"
			/>
		<path id="path527" fill="#FFFFFF" d="M-134,114.1c-4-3.7-5.8-23.3-2.2-24.9s8.5-3.3,9.4,2.5C-126,97.4-126.9,117.8-134,114.1
			L-134,114.1z"/>
		<path id="path529" fill="#FFFFFF" d="M23.9,144.7C13.3,140.6,8.3,130.8,7,125.2c-1.2-5.7-5-28.3,1.2-29.3c6.2-1,39.8-3.6,41.7,1.5
			c1.9,5.1,1.2,30.8-5,39.6C38.8,145.7,30.1,147.3,23.9,144.7z"/>
		<path id="path534" fill="#FFFFFF" d="M173.7-27.5c13.7,6.8,20.1,23,21.7,32.3c1.6,9.4,6.4,46.8-1.6,48.5c-8,1.7-51.5,6-53.9-2.6
			s-1.6-51.1,6.4-65.5C154.4-29.2,165.7-31.8,173.7-27.5L173.7-27.5z"/>
		<path id="path535" fill="#FFFFFF" d="M242-12.9c12.6,8.5,21.6,51.9,15.3,61.3c-6.3,9.4-18.9,6.8-27.1-0.9
			C222.1,39.9,223-19.7,242-12.9z"/>
		<path id="path537" fill="#FFFFFF" d="M289.9,0.1c13.5,7.5,14.4,27.5,14.4,42.5c0,15-0.9,22.5-15.3,17.5
			c-14.4-5-15.2-31.8-13.5-44.1C276.4,8.7,279.9-5.7,289.9,0.1L289.9,0.1z"/>
		<path id="path538" fill="#FFFFFF" d="M323.5,15c5.4,4.5,11.7,47.8,5.4,50c-6.3,2.3-13.1,4.1-14.9-3.2
			C312.2,54.6,312.2,14.1,323.5,15L323.5,15z"/>
		<path id="path540" fill="#FFFFFF" d="M359,25.8c3.7,5.7,5.4,36.3,2.1,38.9c-3.3,2.5-7.8,5.1-8.6-3.8
			C351.6,51.9,352.4,20.1,359,25.8z"/>
		<path id="path542" fill="#FFFFFF" d="M388,35.3c4,4.7,5.8,30,2.2,32.1c-3.6,2.1-8.5,4.2-9.4-3.2C379.9,56.9,380.8,30.6,388,35.3z"
			/>
		<path id="path545" fill="#FFFFFF" d="M164.3,152.4c10.6-4.6,15.6-15.4,16.8-21.7c1.2-6.3,5-31.4-1.2-32.5
			c-6.2-1.1-39.8-4-41.7,1.7c-1.9,5.7-1.2,34.3,5,44C149.3,153.5,158.1,155.2,164.3,152.4z"/>
		<path id="path547" fill="#FFFFFF" d="M284.9,140.6c13.5-6.3,14.4-23.1,14.4-35.7s-0.9-18.9-15.3-14.7
			c-14.4,4.2-15.2,26.8-13.5,37.1C271.5,133.4,275,145.5,284.9,140.6L284.9,140.6z"/>
		<path id="path548" fill="#FFFFFF" d="M323,129.9c5.4-3.5,11.7-37.1,5.4-38.8c-6.3-1.7-13.1-3.1-14.9,2.4
			C311.7,99.2,311.7,130.6,323,129.9z"/>
		<path id="path550" fill="#FFFFFF" d="M359,121.5c3.7-4.5,5.4-28.2,2.1-30.2c-3.3-2-7.8-4-8.6,3C351.6,101.2,352.4,126,359,121.5z"
			/>
		<path id="path552" fill="#FFFFFF" d="M388,114.1c4-3.7,5.8-23.3,2.2-24.9c-3.6-1.6-8.5-3.3-9.4,2.5
			C379.9,97.4,380.8,117.8,388,114.1L388,114.1z"/>
		<path id="path554" fill="#FFFFFF" d="M230.1,144.7c10.6-4.1,15.6-13.9,16.8-19.5c1.2-5.7,5-28.3-1.2-29.3
			c-6.2-1-39.8-3.6-41.7,1.5c-1.9,5.1-1.2,30.8,5,39.6C215.2,145.7,223.9,147.3,230.1,144.7z"/>
		<path id="path1070" fill="#E0DCDC" d="M45.4,23.3c0.7,0.2-0.9,8.4-1.1,18.9c-0.2,10.5-0.4,19.2-1.1,19.2c-0.7,0-1.7-8.6-1.4-19.2
			C42.1,31.5,44.8,23.1,45.4,23.3L45.4,23.3z"/>
		<path id="path1072" fill="#E0DCDC" d="M126.6,25.8c0.7,0,1.1,6.4,1.2,14.2c0,0,0,1.1,0,1.2l0,0c0,4,0,4.1,0,7.4
			c0.1,3.3,0.3,5.4-0.1,5.5c-0.5,0.2-1.4-1.9-1.9-5.3c-0.3-2.2-0.5-4.7-0.6-7.6l0,0c0-0.4,0-0.8,0-1.2
			C125.2,32.1,125.9,25.8,126.6,25.8L126.6,25.8z"/>
		<path id="path1073" fill="#E0DCDC" d="M210.4,28.5c0.3-0.1,1.1,1.7,1.6,4.9c0.5,3.4,0.4,7.3-0.2,12.3c0,0,0,0.2,0,0.2
			c-0.5,4.7-1.1,8.9-1.3,11.9c-0.2,3-0.2,4.9-0.6,4.9c-0.3,0-1-1.8-1.2-4.9c-0.3-3.5,0-7.1,0.6-12.1c0,0,0-0.2,0-0.2
			c0.6-5.5,0.9-8.2,1-11.9C210.2,30.5,210,28.6,210.4,28.5L210.4,28.5z"/>
		<path id="path1074" fill="#E0DCDC" d="M264.2,22.5c0.7,0,1,7.9,1.8,17.8c0.8,9.9,0.5,18-0.2,18c-0.7,0-1.5-7.9-2.4-17.8
			C262.7,30.6,263.5,22.5,264.2,22.5L264.2,22.5z"/>
		<path id="path1075" fill="#E0DCDC" d="M307.7,27.4c0.5-0.2,3.2,3.8,3,11c0,3.6-0.6,7.3-1.5,11.5c-0.1,0.3-0.1,0.6-0.2,0.9
			c-1,4.4-2,8.3-2.7,11.6c-1,5.7-0.4,9.3-0.8,9.5c-0.4,0.1-2-3.9-1.3-9.8c0.4-3.8,1.2-7.2,2.2-11.9c0,0.2,0.2-1.1,0.2-0.9
			c0.9-4.2,1.6-7.6,1.8-11C309,31.8,307.3,27.6,307.7,27.4L307.7,27.4z"/>
		<path id="path1076" fill="#E0DCDC" d="M337.6,52.4c0.7-0.2,2.7,5,2.2,11.6s-1.5,11.7-2.2,11.7c-0.7,0-0.9-5.5-0.4-11.9
			c0.3-3.6,0.4-5.6,0.3-8C337.5,53.9,337.3,52.5,337.6,52.4L337.6,52.4z"/>
		<path id="path1077" fill="#E0DCDC" d="M367.9,42.1c0.7-0.1,2.6,7.6,2.1,17.2c0,0.1,0,0.3,0,0.4c-0.2,5.1-0.8,8.8-2.2,12
			c-1.3,2.9-2.8,4.2-3.1,4c-0.3-0.2,0.7-1.8,1.4-4.6c0.9-3.4,1-6.2,1.4-11.6c0-0.1,0-0.3,0-0.4C368,49.8,367.3,42.2,367.9,42.1
			L367.9,42.1z"/>
		<path id="path1078" fill="#E0DCDC" d="M335.5,86.8c0.7,0,1.3,3.5,1.3,7.9c0,4.3-0.6,7.9-1.3,7.9s-1.3-3.5-1.3-7.9
			C334.2,90.3,334.8,86.8,335.5,86.8z"/>
		<path id="path1079" fill="#E0DCDC" d="M364.3,85.1c0.3-0.2,1.3,0.6,2,2.5c0.8,2,1.1,4.5,1,7.5c0,0.1,0,0.1,0,0.2
			c-0.1,2.9-0.5,5.3-0.5,7c-0.1,1.7,0,2.8-0.3,2.9c-0.3,0.1-1-0.9-1.5-2.8c-0.5-2.2-0.4-4.3-0.2-7.3c0-0.1,0-0.1,0-0.2
			c0.1-3.3,0.2-4.8-0.1-6.9C364.4,86.4,364,85.3,364.3,85.1L364.3,85.1z"/>
		<path id="path1080" fill="#E0DCDC" d="M304.5,86.8c0.7-0.1,2.4,5.9,1.9,13.4c-0.5,7.5-2.3,13.4-3,13.2c-0.7-0.1-0.1-6.1,0.4-13.4
			C304.3,92.7,303.8,86.9,304.5,86.8L304.5,86.8z"/>
		<path id="path1081" fill="#E0DCDC" d="M258.2,95.5c0.3-0.1,1.3,1.4,2,4.2c0.7,3,0.7,6.7-0.1,11.2l0,0c-0.7,4.3-1.7,7.9-2.3,10.6
			c-0.6,2.7-0.8,4.4-1.2,4.4c-0.3,0-0.7-1.7-0.6-4.6c0.1-3.4,0.8-6.2,1.6-10.8l0,0c0.8-4.5,1-7.5,0.8-10.5
			C258.3,97.2,257.9,95.6,258.2,95.5L258.2,95.5z"/>
		<path id="path1082" fill="#E0DCDC" d="M194.6,96.5c0.7-0.1,1.5,6.6,0.5,14.6c-1.1,8-1.9,14.2-2.6,14.2c-0.7,0-1-6.7,0.1-14.6
			C193.6,102.8,193.9,96.6,194.6,96.5L194.6,96.5z"/>
		<path id="path1083" fill="#E0DCDC" d="M126.6,98.2c0.3-0.1,1.3,1.4,1.6,4.3c0.4,3.2-0.1,6.5-1.2,11c0,0.2-0.1,0.3-0.1,0.5
			c-0.8,3.5-1.2,4.9-1.8,7.7c-0.7,3.9-0.3,6.4-0.7,6.5c-0.5,0.2-1.7-2.4-1.4-6.8c0.2-2.5,0.7-5,1.4-8c0-0.2,0.1-0.3,0.1-0.5
			c1.1-4.8,1.7-7,1.9-10.3C126.6,100,126.3,98.3,126.6,98.2L126.6,98.2z"/>
		<path id="path1084" fill="#E0DCDC" d="M59.7,97.7c0.7,0,1.4,6.9,1.4,15.5c-0.1,8.6-0.7,15.5-1.4,15.5s-1.2-7-1.2-15.5
			C58.6,104.6,59,97.7,59.7,97.7L59.7,97.7z"/>
		<path id="path1085" fill="#E0DCDC" d="M-4,94.9c0.7,0,0.8,6.9,0.3,15.3s-1.2,15.1-1.9,15.1c-0.7,0-1.2-6.9-0.7-15.3
			C-5.7,101.6-4.7,94.9-4,94.9L-4,94.9z"/>
		<path id="path1086" fill="#E0DCDC" d="M-10.5,54.7c-0.3,0.1-1.3-1.7-1.9-4.9c-0.6-3.4-0.7-7.5-0.2-12.6c0-0.3,0.1-0.6,0.1-0.9
			c0.4-3.7,1.6-9.8,1.9-11.7c0.5-2.9,0.8-4.7,1.1-4.7c0.3,0,0.7,1.9,0.6,4.9c-0.1,3.8-0.6,6.5-1.1,11.8c0-0.2-0.1,1-0.1,0.9
			c-0.5,5.3-0.7,8.6-0.6,12.1C-10.5,52.7-10.2,54.6-10.5,54.7L-10.5,54.7z"/>
		<path id="path1087" fill="#E0DCDC" d="M-54,27.5c0.3,0.1,0,2.8-0.1,7.2c-0.2,5-0.1,9.7,0.4,17.1c0.5,7.5,0.9,12.2,0.9,17.4
			c0,4.5-0.3,7.2-0.7,7.2c-0.4,0-0.6-2.7-1.1-7.1c-0.3-3.2-1.3-11.7-1.7-17.3c-0.5-7.1-0.3-12.7,0.3-17.4
			C-55.3,30.1-54.4,27.5-54,27.5L-54,27.5z"/>
		<path id="path1088" fill="#E0DCDC" d="M-83.4,50.4c0.7,0.1,1,4.5,1.6,10.2c0.6,5.7,0.2,10.5-0.5,10.5c-0.7,0-1.5-4.5-2.1-10.2
			C-85,55.1-84.1,50.3-83.4,50.4z"/>
		<path id="path1089" fill="#E0DCDC" d="M-81.2,92.8c0.7,0,1.3,2.8,1.4,6c0.1,3.1,0.2,5.8-0.3,6c-0.8,0.3-2.1-2.3-2.2-5.8
			C-82.5,95.4-81.9,92.8-81.2,92.8L-81.2,92.8z"/>
		<path id="path1090" fill="#E0DCDC" d="M-50.8,86.8c0.7,0.2,0.5,4.7,0.9,10.5c0,0,0,0.1,0,0.1c0.4,5.8-0.8,10.8-1.4,10.6
			c-0.4-0.1-0.4-1.3-0.5-3.1c-0.1-1.9-0.4-4.4-0.6-7.3c0,0,0-0.1,0-0.1C-52.8,91.6-51.4,86.6-50.8,86.8L-50.8,86.8z"/>
		<path id="path1091" fill="#E0DCDC" d="M-112.8,46.6c0.3-0.1,1.3,1.4,1.7,4.3c0.5,3.3,0.1,6.4-0.4,11c0,0,0,0.3,0,0.3
			c-0.4,4.8-0.8,7.2-0.4,10.3c0.3,2.5,1.1,3.9,0.8,4.1c-0.3,0.2-1.6-1-2.5-3.7c-1-3-0.9-6.4-0.4-10.9c0-0.1,0-0.2,0-0.3
			c0.4-4.2,1.1-7.9,1.1-10.6C-112.8,48.3-113.1,46.7-112.8,46.6L-112.8,46.6z"/>
		<path id="path1092" fill="#E0DCDC" d="M-110,89c0.6,0.1,0.6,4.4,0.8,9.5c0.2,5.2,0.5,9.4-0.2,9.6c-0.6,0.1-2.1-4-2.3-9.5
			C-112,93.1-110.8,88.8-110,89L-110,89z"/>
	</g>
</g>
</svg>
