<?xml version="1.0" encoding="utf-8"?>
<!-- Generator: Adobe Illustrator 28.0.0, SVG Export Plug-In . SVG Version: 6.00 Build 0)  -->
<svg version="1.1" id="OBJECTS" xmlns="http://www.w3.org/2000/svg" xmlns:xlink="http://www.w3.org/1999/xlink" x="0px" y="0px"
	 width="500px" height="500px" viewBox="0 0 500 500" enable-background="new 0 0 500 500" xml:space="preserve">
<g id="g501" transform="matrix(0.82894289,0,0,0.82894289,-110.07061,194.5637)">
	<path id="path447" fill="#EF5A58" d="M432.1,241.6c-73.8,0-163.1-10.7-217.5-27c-54.4-16.3-53.3-65.8-50.8-145.1h268.3h268.3
		c2.6,79.3,3.6,128.8-50.8,145.1C595.2,231,505.9,241.6,432.1,241.6L432.1,241.6z"/>
	<path id="path448" fill="#FA6F6B" d="M432.1-107.9c-73.8,0-163.1,10.7-217.5,27c-54.4,16.3-53.3,65.8-50.8,145.1h268.3h268.3
		c2.6-79.3,3.6-128.8-50.8-145.1C595.2-97.2,505.9-107.9,432.1-107.9L432.1-107.9z"/>
	<path id="path449" fill="#EF5A58" d="M408.2-48.9c-6.5,0.1-12.9,0.9-19.1,2.9c-13.5,4.5-23.2,20.5-38.5,20.5
		c-12.9,0-14.8-18.1-30.8-12.8c-11.8,3.9-17.1,14.9-25.6,19.2c-5.4,2.7-13.7-10-20.5-7.7c-10.2,3.4-17.4,13.6-24.4,20.5
		c-1.6,1.6-8.1-4.1-12.8-2.6c-6.4,2.1-7.5,10.2-12.8,12.8c-7.8,3.9-15.9-8.7-20.5-6.4c-10.5,5.2-13.8,20.4-16.7,21.8
		c-7.9,3.9-15.8-9-23.5-13.7c-0.6,17.2-0.1,36.7,0.6,58.5h268.3h268.3c0.7-21.8,1.2-41.3,0.6-58.5c-7.7,4.7-15.6,17.7-23.5,13.7
		c-2.8-1.4-6.2-16.5-16.7-21.8c-4.6-2.3-12.7,10.3-20.5,6.4c-5.3-2.7-6.4-10.7-12.8-12.8c-4.7-1.6-11.2,4.1-12.8,2.6
		c-6.9-6.9-14.2-17.1-24.4-20.5c-6.8-2.3-15.1,10.4-20.5,7.7c-8.5-4.3-13.8-15.3-25.6-19.2c-16-5.3-17.9,12.8-30.8,12.8
		c-15.3,0-25-16-38.5-20.5c-6.1-2-12.6-2.8-19.1-2.9c-8-0.1-16,0.8-23.9,1.9C424.2-48,416.2-49,408.2-48.9L408.2-48.9z"/>
	<path id="path500" fill="#FA6F6B" d="M187.3,133.2c0,0-12.7,7.2-5.4,29c7.3,21.7,38.1,36.2,59.8,45.3c21.8,9.1,203,21.7,257.4,18.1
		c54.4-3.6,148.6-12.7,163.1-29c14.5-16.3,27.2-43.5,14.5-48.9c-12.7-5.4-18.1-14.5-43.5,1.8c-25.4,16.3-43.5,9.1-68.9,18.1
		c-25.4,9.1-43.5,12.7-74.3,14.5c-30.8,1.8-52.6,0-90.6,1.8S336,180.3,285.2,173C234.5,165.8,212.7,120.5,187.3,133.2L187.3,133.2z"
		/>
	<path id="path501" opacity="0.15" fill="#FFFFFF" d="M203.6-53.5c16.3-12.7,63.4-19.9,103.3-27.2c39.9-7.2,188.5-12.7,226.6-9.1
		c38.1,3.6,123.3,21.7,125.1,30.8c1.8,9.1,1.8,21.7-23.6,10.9c-25.4-10.9-134.1-34.4-221.2-29S287-60.7,239.9-49.9
		S194.6-28.1,203.6-53.5z"/>
	<g>
		<path id="path450" fill="#A01515" d="M358.4,62C290.6,61.8,190,73,185.3,74c-6.3,1.4-10.9,6.8-10.9,6.8
			c21.8,13.6,259.2,5.4,259.2,5.4s0.9-7.7,0.4-10.9c-0.5-3.2-3.6-6.3-23.6-8.6C400,63.4,381,62.1,358.4,62z M510.4,62
			c-22.6,0.1-41.5,1.4-52.1,4.8c-19.9,2.3-23.1,5.4-23.6,8.6c-0.5,3.2,0.5,10.9,0.5,10.9s237.5,8.2,259.2-5.4c0,0-4.5-5.4-10.9-6.8
			C678.8,73,578.2,61.8,510.4,62z"/>
		<g id="g902" transform="matrix(1,0,0,0.83443502,0,147.00511)">
			<path fill="#FFFFFF" d="M705.5-83.3c-1.4-4.5-9.1-6.6-18.1-5.3c-7.9,1.2-11,1.5-13.5,3c-3.2-3-9.2-4.1-16-2.9
				c-9.1,1.6-11.8,1.9-14.5,4.5c-0.1,0.1-0.1,0.2-0.2,0.3c-2.6-4.4-9.4-6.3-17.2-4.8c-9.1,1.8-11.8,2.1-14.5,4.9c0,0,0,0,0,0.1
				c-0.8-2.2-1.8-3.7-3.1-4.2c-8.2-2.8-35.3-2.8-39.9,3.5c-0.1,0.1-0.1,0.3-0.2,0.4c-5.2-9.8-56.3-9.3-65.9-2c0-0.3,0-0.6,0-1
				c-30.7-5-67.7,0-67.7,0s-0.2,1.5-0.3,4.1c-0.2-2.6-0.3-4.1-0.3-4.1s-37-5-67.7,0c0,0.3,0,0.6,0,1c-9.6-7.3-60.8-7.7-65.9,2
				c-0.1-0.1-0.1-0.3-0.2-0.4c-4.5-6.3-31.7-6.3-39.9-3.5c-1.2,0.4-2.2,1.9-3.1,4.2c0,0,0,0,0-0.1c-2.7-2.8-5.4-3.2-14.5-4.9
				c-7.8-1.5-14.6,0.4-17.2,4.8c-0.1-0.1-0.1-0.2-0.2-0.3c-2.7-2.6-5.4-2.9-14.5-4.5c-6.8-1.2-12.9-0.1-16,2.9
				c-2.5-1.5-5.5-1.8-13.5-3c-9.1-1.3-16.8,0.8-18.1,5.3c-1.4,4.5,0,31.6,10.9,34c10.9,2.4,18.6-8.8,18.6-8.8s0.3-1.3,0.8-3.3
				c1.5,9.5,4.5,19,10.1,20.5c10.9,2.9,18.6-10.6,18.6-10.6s1.3-6.6,2.4-13.8c1,12.2,4.1,26.9,10.9,28.9
				c10.9,3.2,18.6-11.6,18.6-11.6v0c0,0,0.7-4.1,1.6-9.4c1.2,13.2,5,26.6,12,31h0c9.1,5.6,17.2,5.6,28.1-2.1
				c3.5-2.5,5.7-8.4,6.9-15.6C307.2-16.6,319-10,343-12c17.1-1.5,23.1-20.7,25-38.8c3.9,34.9,15.7,45.6,41.2,43.3
				c17.9-1.6,23.7-25.2,25.2-46.2c1.5,21,7.3,44.5,25.2,46.2c25.5,2.3,37.2-8.4,41.2-43.3c1.9,18.1,7.9,37.3,25,38.8
				c24,2.1,35.8-4.5,40.4-32.1c1.2,7.1,3.4,13.1,6.9,15.6c10.9,7.7,19,7.7,28.1,2.1l0,0c6.9-4.4,10.7-17.8,12-31
				c0.8,5.3,1.6,9.4,1.6,9.4v0c0,0,7.7,14.8,18.6,11.6c6.8-2,9.9-16.7,10.9-28.9c1.1,7.2,2.4,13.8,2.4,13.8s7.7,13.5,18.6,10.6
				c5.6-1.5,8.7-10.9,10.1-20.5c0.4,2,0.8,3.3,0.8,3.3s7.7,11.2,18.6,8.8C705.5-51.7,706.8-78.8,705.5-83.3z"/>
			<path opacity="0.32" fill="#E0DCDC" d="M705.5-83.3c-1.4-4.5-9.1-6.6-18.1-5.3c-7.9,1.2-11,1.5-13.5,3c-3.2-3-9.2-4.1-16-2.9
				c-9.1,1.6-11.8,1.9-14.5,4.5c-0.1,0.1-0.1,0.2-0.2,0.3c-2.6-4.4-9.4-6.3-17.2-4.8c-9.1,1.8-11.8,2.1-14.5,4.9c0,0,0,0,0,0.1
				c-0.8-2.2-1.8-3.7-3.1-4.2c-8.2-2.8-35.3-2.8-39.9,3.5c-0.1,0.1-0.1,0.3-0.2,0.4c-5.2-9.8-56.3-9.3-65.9-2c0-0.3,0-0.6,0-1
				c-30.7-5-67.7,0-67.7,0s-0.2,1.5-0.3,4.1c-0.2-2.6-0.3-4.1-0.3-4.1s-37-5-67.7,0c0,0.3,0,0.6,0,1c-9.6-7.3-60.8-7.7-65.9,2
				c-0.1-0.1-0.1-0.3-0.2-0.4c-4.5-6.3-31.7-6.3-39.9-3.5c-1.2,0.4-2.2,1.9-3.1,4.2c0,0,0,0,0-0.1c-2.7-2.8-5.4-3.2-14.5-4.9
				c-7.8-1.5-14.6,0.4-17.2,4.8c-0.1-0.1-0.1-0.2-0.2-0.3c-2.7-2.6-5.4-2.9-14.5-4.5c-6.8-1.2-12.9-0.1-16,2.9
				c-2.5-1.5-5.5-1.8-13.5-3c-9.1-1.3-16.8,0.8-18.1,5.3c-1.4,4.5,0,31.6,10.9,34c10.9,2.4,18.6-8.8,18.6-8.8s0.3-1.3,0.8-3.3
				c1.5,9.5,4.5,19,10.1,20.5c10.9,2.9,18.6-10.6,18.6-10.6s1.3-6.6,2.4-13.8c1,12.2,4.1,26.9,10.9,28.9
				c10.9,3.2,18.6-11.6,18.6-11.6v0c0,0,0.7-4.1,1.6-9.4c1.2,13.2,5,26.6,12,31h0c9.1,5.6,17.2,5.6,28.1-2.1
				c3.5-2.5,5.7-8.4,6.9-15.6C307.2-16.6,319-10,343-12c17.1-1.5,23.1-20.7,25-38.8c3.9,34.9,15.7,45.6,41.2,43.3
				c17.9-1.6,23.7-25.2,25.2-46.2c1.5,21,7.3,44.5,25.2,46.2c25.5,2.3,37.2-8.4,41.2-43.3c1.9,18.1,7.9,37.3,25,38.8
				c24,2.1,35.8-4.5,40.4-32.1c1.2,7.1,3.4,13.1,6.9,15.6c10.9,7.7,19,7.7,28.1,2.1l0,0c6.9-4.4,10.7-17.8,12-31
				c0.8,5.3,1.6,9.4,1.6,9.4v0c0,0,7.7,14.8,18.6,11.6c6.8-2,9.9-16.7,10.9-28.9c1.1,7.2,2.4,13.8,2.4,13.8s7.7,13.5,18.6,10.6
				c5.6-1.5,8.7-10.9,10.1-20.5c0.4,2,0.8,3.3,0.8,3.3s7.7,11.2,18.6,8.8C705.5-51.7,706.8-78.8,705.5-83.3z"/>
			<path id="path465" fill="#FFFFFF" d="M396.9-22.2c-10.6-5-15.6-17-16.9-24c-1.3-6.9-5-34.7,1.3-36c6.3-1.3,40-4.4,41.9,1.9
				c1.9,6.3,1.3,37.8-5,48.6C411.9-20.9,403.2-19,396.9-22.2z"/>
			<path id="path467" fill="#FFFFFF" d="M275.7-27.2c-13.6-6.3-14.5-23.2-14.5-35.9s0.9-19,15.4-14.8c14.5,4.2,15.3,26.9,13.6,37.3
				C289.2-34.4,285.6-22.3,275.7-27.2L275.7-27.2z"/>
			<path id="path468" fill="#FFFFFF" d="M237.4-38c-5.4-3.5-11.8-37.3-5.4-39c6.3-1.8,13.1-3.2,15,2.5
				C248.7-68.9,248.7-37.3,237.4-38z"/>
			<path id="path470" fill="#FFFFFF" d="M201.2-46.4c-3.7-4.5-5.4-28.3-2.1-30.3c3.3-2,7.9-4,8.7,3C208.7-66.8,207.9-42,201.2-46.4z
				"/>
			<path id="path472" fill="#FFFFFF" d="M172.1-53.8c-4-3.7-5.8-23.4-2.2-25c3.6-1.6,8.5-3.3,9.4,2.5
				C180.2-70.7,179.3-50.1,172.1-53.8L172.1-53.8z"/>
			<path id="path474" fill="#FFFFFF" d="M330.7-26.1c-10.6-4.8-15.6-16.3-16.9-22.9c-1.3-6.6-5-33.2,1.3-34.4
				c6.3-1.2,40-4.2,41.9,1.8c1.9,6,1.3,36.2-5,46.4C345.8-24.9,337-23,330.7-26.1L330.7-26.1z"/>
			<path id="path490" fill="#FFFFFF" d="M471.9-22.2c10.6-5,15.6-17,16.9-24c1.3-6.9,5-34.7-1.3-36c-6.3-1.3-40-4.4-41.9,1.9
				c-1.9,6.3-1.3,37.8,5,48.6C456.9-20.9,465.6-19,471.9-22.2z"/>
			<path id="path492" fill="#FFFFFF" d="M593.1-27.2c13.6-6.3,14.5-23.2,14.5-35.9s-0.9-19-15.4-14.8c-14.5,4.2-15.3,26.9-13.6,37.3
				C579.6-34.4,583.2-22.3,593.1-27.2L593.1-27.2z"/>
			<path id="path493" fill="#FFFFFF" d="M631.4-38c5.4-3.5,11.8-37.3,5.4-39c-6.3-1.8-13.1-3.2-15,2.5
				C620.1-68.9,620.1-37.3,631.4-38z"/>
			<path id="path495" fill="#FFFFFF" d="M667.6-46.4c3.7-4.5,5.4-28.3,2.1-30.3c-3.3-2-7.9-4-8.7,3C660.1-66.8,660.9-42,667.6-46.4z
				"/>
			<path id="path497" fill="#FFFFFF" d="M696.7-53.8c4-3.7,5.8-23.4,2.2-25c-3.6-1.6-8.5-3.3-9.4,2.5
				C688.6-70.7,689.5-50.1,696.7-53.8L696.7-53.8z"/>
			<path id="path499" fill="#FFFFFF" d="M538.1-26.1c10.6-4.8,15.6-16.3,16.9-22.9c1.3-6.6,5-33.2-1.3-34.4
				c-6.3-1.2-40-4.2-41.9,1.8c-1.9,6-1.3,36.2,5,46.4C523-24.9,531.8-23,538.1-26.1L538.1-26.1z"/>
		</g>
		<path id="path902" opacity="0.65" fill="#E0DCDC" d="M170.7,72.7c0,0,22.5,17.3,29.4,17.3s43.9-1.1,54.6-1.1s30.1-1.1,38.5,0.9
			c8.4,2,13.6,0.4,29.6,0.4c16.1,0,36.2,9.2,49.2,8.2c13-1,58.9-2,73.5-2s51.3,1.2,64.3-2.8c13-4,39.3-3.5,60.7-4.5
			c21.4-1,46.8,3.3,63.6,2.3c16.8-1,42.5,0.6,49.4-2.4c6.9-3,29.9-8.2,14.5-18.2c-15.3-10-249.5-32.5-309.3-21.5
			C329.2,60.2,208.2,42.6,170.7,72.7L170.7,72.7z"/>
		<path fill="#FFFFFF" d="M694.6,29.2C683.7,26.2,676,40.5,676,40.5v0c0,0-0.3,1.7-0.7,4.3c-1.5-12.3-4.6-24.4-10.2-26.3
			c-10.9-3.7-18.6,13.7-18.6,13.7s-1.1,7.1-2.1,15.4c-1.2-15.2-4.3-32.4-10.7-34.8c-8.2-3.1-14.7,7.1-17.3,12.2
			c-2-11.6-5.3-21.6-10.3-25.6l0,0c-9.1-7.2-17.2-7.2-28.1,2.7c-3.6,3.3-5.8,11.4-7,21.1c-2.2-14-6.1-26.6-12-31.4
			c-15.4-7-29-3.8-36.3,10.8c-2.8,5.7-4.8,17.5-5.8,30c-3.9-47.9-17.2-62.1-50.5-59c-23.2,2.1-30.3,33.8-32.1,61.3
			c-1.8-27.5-8.9-59.2-32.1-61.3c-33.3-3.1-46.5,11.1-50.5,59c-1-12.5-3-24.3-5.8-30c-7.3-14.7-20.8-17.8-36.3-10.8h0
			c-6,4.8-9.9,17.4-12,31.4c-1.2-9.7-3.4-17.8-7-21.1c-10.9-10-19-10-28.1-2.7l0,0c-4.9,4-8.3,14-10.3,25.6
			c-2.6-5.1-9-15.3-17.3-12.2c-6.4,2.4-9.5,19.6-10.7,34.8c-1-8.3-2.1-15.4-2.1-15.4s-7.7-17.4-18.6-13.7
			c-5.6,1.9-8.7,14.1-10.2,26.3c-0.4-2.6-0.7-4.3-0.7-4.3v0c0,0-7.7-14.4-18.6-11.3c-10.9,3.1-12.2,38-10.9,43.8
			c1.4,5.8,9.1,8.6,18.1,6.8c7.9-1.5,11-1.9,13.5-3.9c3.2,3.8,9.2,5.3,16,3.8c9-2.1,11.8-2.5,14.5-5.8c2.7,5.3,9.3,7.6,16.9,5.7
			c5.9-1.5,9.1-2.2,11.4-3.5c0.5,0.9,1.1,1.6,1.7,1.8c8.2,3.6,35.3,3.6,39.9-4.5c0.7-1.2,1.2-3.3,1.8-6.1c0.7,3.5,1.6,5.9,2.8,6.8
			c7.3,5.6,42.6,7.5,48.9,2.3c0.7-0.5,1.2-1.7,1.7-3.2c0,0.4,0,0.9,0,1.3h0c5.7,11.8,81.3,8,83.4,1c0,0,0.3-2.8,0.6-7.4
			c0.3,4.6,0.6,7.4,0.6,7.4c2.1,7,77.7,10.9,83.4-1h0c0-0.4,0-0.9,0-1.3c0.5,1.5,1.1,2.6,1.7,3.2c6.3,5.2,41.7,3.3,48.9-2.3
			c1.2-0.9,2.1-3.3,2.8-6.8c0.5,2.8,1.1,4.9,1.8,6.1c4.5,8.2,31.7,8.2,39.9,4.5c0.6-0.3,1.2-0.9,1.7-1.8c2.3,1.3,5.5,2,11.4,3.5
			c7.6,1.9,14.2-0.4,16.9-5.7c2.7,3.3,5.4,3.7,14.5,5.8c6.8,1.6,12.9,0.1,16-3.8c2.5,1.9,5.5,2.4,13.5,3.9c9.1,1.7,16.8-1,18.1-6.8
			C706.8,67.2,705.5,32.3,694.6,29.2z"/>
		<path opacity="0.32" fill="#E0DCDC" d="M694.6,29.2C683.7,26.2,676,40.5,676,40.5v0c0,0-0.3,1.7-0.7,4.3
			c-1.5-12.3-4.6-24.4-10.2-26.3c-10.9-3.7-18.6,13.7-18.6,13.7s-1.1,7.1-2.1,15.4c-1.2-15.2-4.3-32.4-10.7-34.8
			c-8.2-3.1-14.7,7.1-17.3,12.2c-2-11.6-5.3-21.6-10.3-25.6l0,0c-9.1-7.2-17.2-7.2-28.1,2.7c-3.6,3.3-5.8,11.4-7,21.1
			c-2.2-14-6.1-26.6-12-31.4c-15.4-7-29-3.8-36.3,10.8c-2.8,5.7-4.8,17.5-5.8,30c-3.9-47.9-17.2-62.1-50.5-59
			c-23.2,2.1-30.3,33.8-32.1,61.3c-1.8-27.5-8.9-59.2-32.1-61.3c-33.3-3.1-46.5,11.1-50.5,59c-1-12.5-3-24.3-5.8-30
			c-7.3-14.7-20.8-17.8-36.3-10.8h0c-6,4.8-9.9,17.4-12,31.4c-1.2-9.7-3.4-17.8-7-21.1c-10.9-10-19-10-28.1-2.7l0,0
			c-4.9,4-8.3,14-10.3,25.6c-2.6-5.1-9-15.3-17.3-12.2c-6.4,2.4-9.5,19.6-10.7,34.8c-1-8.3-2.1-15.4-2.1-15.4s-7.7-17.4-18.6-13.7
			c-5.6,1.9-8.7,14.1-10.2,26.3c-0.4-2.6-0.7-4.3-0.7-4.3v0c0,0-7.7-14.4-18.6-11.3c-10.9,3.1-12.2,38-10.9,43.8
			c1.4,5.8,9.1,8.6,18.1,6.8c7.9-1.5,11-1.9,13.5-3.9c3.2,3.8,9.2,5.3,16,3.8c9-2.1,11.8-2.5,14.5-5.8c2.7,5.3,9.3,7.6,16.9,5.7
			c5.9-1.5,9.1-2.2,11.4-3.5c0.5,0.9,1.1,1.6,1.7,1.8c8.2,3.6,35.3,3.6,39.9-4.5c0.7-1.2,1.2-3.3,1.8-6.1c0.7,3.5,1.6,5.9,2.8,6.8
			c7.3,5.6,42.6,7.5,48.9,2.3c0.7-0.5,1.2-1.7,1.7-3.2c0,0.4,0,0.9,0,1.3h0c5.7,11.8,81.3,8,83.4,1c0,0,0.3-2.8,0.6-7.4
			c0.3,4.6,0.6,7.4,0.6,7.4c2.1,7,77.7,10.9,83.4-1h0c0-0.4,0-0.9,0-1.3c0.5,1.5,1.1,2.6,1.7,3.2c6.3,5.2,41.7,3.3,48.9-2.3
			c1.2-0.9,2.1-3.3,2.8-6.8c0.5,2.8,1.1,4.9,1.8,6.1c4.5,8.2,31.7,8.2,39.9,4.5c0.6-0.3,1.2-0.9,1.7-1.8c2.3,1.3,5.5,2,11.4,3.5
			c7.6,1.9,14.2-0.4,16.9-5.7c2.7,3.3,5.4,3.7,14.5,5.8c6.8,1.6,12.9,0.1,16-3.8c2.5,1.9,5.5,2.4,13.5,3.9c9.1,1.7,16.8-1,18.1-6.8
			C706.8,67.2,705.5,32.3,694.6,29.2z"/>
		<g>
			<path id="path454" fill="#FFFFFF" d="M387.4-21.3c-13.7,7.2-20.2,24.5-21.8,34.4c-1.6,10-6.5,49.8,1.6,51.6
				c8.1,1.8,51.7,6.3,54.2-2.7c2.4-9.1,1.6-54.3-6.5-69.7C406.8-23.2,395.5-25.9,387.4-21.3L387.4-21.3z"/>
			<path id="path455" fill="#FFFFFF" d="M318.8-5.7c-12.7,9.1-21.8,55.2-15.4,65.2s19,7.2,27.2-0.9C338.8,50.4,337.9-13,318.8-5.7z"
				/>
			<path id="path457" fill="#FFFFFF" d="M270.7,0.2c-13.6,8.2-14.5,29.9-14.5,46.2s0.9,24.5,15.4,19c14.5-5.4,15.3-34.6,13.6-48
				C284.2,9.6,280.7-6.1,270.7,0.2L270.7,0.2z"/>
			<path id="path458" fill="#FFFFFF" d="M236.9,14.7c-5.4,4.5-11.8,48-5.4,50.3c6.3,2.3,13.1,4.1,15-3.2
				C248.2,54.5,248.2,13.8,236.9,14.7L236.9,14.7z"/>
			<path id="path460" fill="#FFFFFF" d="M201.2,25.6c-3.7,5.8-5.4,36.5-2.1,39.1c3.3,2.6,7.9,5.1,8.7-3.8
				C208.7,51.8,207.9,19.8,201.2,25.6z"/>
			<path id="path462" fill="#FFFFFF" d="M172.1,35.1c-4,4.8-5.8,30.1-2.2,32.3c3.6,2.1,8.5,4.2,9.4-3.2
				C180.2,56.8,179.3,30.4,172.1,35.1z"/>
			<path id="path479" fill="#FFFFFF" d="M481.4-21.3c13.7,7.2,20.2,24.5,21.8,34.4c1.6,10,6.5,49.8-1.6,51.6
				c-8.1,1.8-51.7,6.3-54.2-2.7s-1.6-54.3,6.5-69.7C461.9-23.2,473.3-25.9,481.4-21.3L481.4-21.3z"/>
			<path id="path480" fill="#FFFFFF" d="M550-5.7c12.7,9.1,21.8,55.2,15.4,65.2s-19,7.2-27.2-0.9C530,50.4,530.9-13,550-5.7z"/>
			<path id="path482" fill="#FFFFFF" d="M598.1,0.2c13.6,8.2,14.5,29.9,14.5,46.2s-0.9,24.5-15.4,19c-14.5-5.4-15.3-34.6-13.6-48
				C584.6,9.6,588.1-6.1,598.1,0.2L598.1,0.2z"/>
			<path id="path483" fill="#FFFFFF" d="M631.9,14.7c5.4,4.5,11.8,48,5.4,50.3c-6.3,2.3-13.1,4.1-15-3.2
				C620.6,54.5,620.6,13.8,631.9,14.7L631.9,14.7z"/>
			<path id="path485" fill="#FFFFFF" d="M667.6,25.6c3.7,5.8,5.4,36.5,2.1,39.1c-3.3,2.6-7.9,5.1-8.7-3.8
				C660.1,51.8,660.9,19.8,667.6,25.6z"/>
			<path id="path487" fill="#FFFFFF" d="M696.7,35.1c4,4.8,5.8,30.1,2.2,32.3c-3.6,2.1-8.5,4.2-9.4-3.2
				C688.6,56.8,689.5,30.4,696.7,35.1z"/>
			<path id="path997" fill="#E0DCDC" d="M434.3,37.7c0.5,0,0.9,3.5,0.8,8.7c-0.1,3.2-0.3,5.9-0.5,9.8c0,0.3,0,0.7-0.1,1l0,0
				c-0.2,4.1-0.3,6.9-0.1,10l0,0c0.4,4.3,1.7,6.5,1.4,6.8c-0.5,0.5-2.7-1.8-3.5-6.6l0,0c-0.5-3.1-0.6-6.4-0.4-10.4l0,0
				c0-0.3,0-0.7,0-1c0.2-3.5,0.6-7.1,0.9-9.8C433.5,41.1,433.9,37.8,434.3,37.7L434.3,37.7z"/>
			<path id="path998" fill="#E0DCDC" d="M517.1,37.7c0.7-0.1,2.2,7.7,2.3,17.3c0,9.7-0.8,17.4-1.5,17.4c-0.7,0-1.1-7.9-1.1-17.4
				C516.7,45.5,516.4,37.8,517.1,37.7z"/>
			<path id="path999" fill="#E0DCDC" d="M571.2,26.9c0.3-0.1,1.6,2.1,2.6,6c1,4.1,1.4,9.3,0.8,15.7c0,0,0,0.1,0,0.1
				c-0.5,4.5-1.8,12.8-2.2,15.2c-0.6,3.8-0.9,6.3-1.2,6.3c-0.3,0-0.7-2.4-0.6-6.4c0.2-5.1,0.7-8.3,1.4-15.3c0,0,0-0.1,0-0.1
				c0.6-6.3,0.5-11,0-15.1C571.5,29.4,570.9,27,571.2,26.9L571.2,26.9z"/>
			<path id="path1000" fill="#E0DCDC" d="M616.8,30c0.4,0,0.5,2.8,0.8,7.3c0.2,3.8,0.7,11.5,0.6,17.7l0,0.1
				c-0.1,7.3-0.9,13-2.3,17.7c-1.3,4.4-2.7,6.9-3.1,6.7c-0.3-0.1,0.5-2.8,1.3-7.1c0.9-4.8,1.4-10,1.5-17.3c0,0,0-0.1,0-0.1
				c0.1-6.8-0.1-13.1,0.1-17.6C616,32.8,616.4,30,616.8,30L616.8,30z"/>
			<path id="path1001" fill="#E0DCDC" d="M647.7,53.2c0.7-0.1,1.8,5.2,1.1,11.8c-0.7,6.6-2.7,11.5-3.4,11.4
				c-0.7-0.2,0.1-5.3,0.8-11.6C646.9,58.5,647.1,53.2,647.7,53.2L647.7,53.2z"/>
			<path id="path1002" fill="#E0DCDC" d="M677.9,45.5c0.7-0.1,2,6.5,0.6,14.8c-1.4,8.2-4.7,14.1-5.3,13.8c-0.7-0.3,1.4-6.5,2.7-14.3
				C677.3,52,677.2,45.5,677.9,45.5L677.9,45.5z"/>
			<path id="path1003" fill="#E0DCDC" d="M297.5,23.8c0.3,0,0.9,2.6,0.9,7c0.1,5.2-0.3,9.4-0.8,16.8c0,0,0,0.1,0,0.1
				c-0.4,7.1-0.5,11.7-0.1,16.5c0.4,4.2,1,6.7,0.7,6.8c-0.3,0.1-1.6-2.3-2.5-6.6c-1-4.6-1.2-9.9-0.7-16.9c0,0,0-0.1,0-0.1
				c0.4-6.6,1.2-12.4,1.5-16.7C297,26.5,297.1,23.9,297.5,23.8L297.5,23.8z"/>
			<path id="path1004" fill="#E0DCDC" d="M355.5,37c0.4,0.1,0.4,1.9,0.1,4.8c-0.3,2.9-1.1,6.9-1.7,11.2V53c-0.7,4.7-0.9,7.8-0.8,11
				c0.1,2.8,0.5,4.5,0.1,4.6c-0.3,0.1-1.3-1.5-1.9-4.4c-0.6-3.1-0.7-6.9,0-11.6l0-0.1C352.7,43.6,354.8,36.9,355.5,37L355.5,37z"/>
			<path id="path1005" fill="#E0DCDC" d="M253.4,29.2c0.3,0,0.8,2.5,0.8,6.7c0,4.9-0.6,9-1.4,15.9c0,0,0,0.1,0,0.1
				c-0.7,6.7-1,11.1-0.7,15.6c0.3,3.9,0.9,6.4,0.5,6.5c-0.3,0.1-1.6-2.2-2.3-6.3c-0.8-4.4-0.8-9.5-0.1-16.1c0,0,0-0.1,0-0.1
				c0.7-6.2,1.7-11.8,2.2-15.8C252.9,31.8,253.1,29.3,253.4,29.2L253.4,29.2z"/>
			<path id="path1006" fill="#E0DCDC" d="M221.7,47.8c0.7-0.2,2.8,4.7,3.2,11.2c0.4,6.6-1.7,11.5-2.5,11.2c-0.7-0.2,0.4-5-0.1-11
				C221.9,53.1,221,47.9,221.7,47.8L221.7,47.8z"/>
			<path id="path1007" fill="#E0DCDC" d="M190.8,47c0.4,0,0.7,1.9,0.7,5c0.1,3.1-0.2,7.4-0.2,12c0,0.3,0,0.5,0,0.8
				c0.1,3.4,0.3,6,1,8.5c1.1,4,3.3,5.8,3.1,6.1c-0.2,0.3-3.4-0.6-5.1-5.5c-1-2.6-1.4-5.6-1.5-9.1c0-0.3,0-0.5,0-0.8
				c0-4.5,0.6-9.4,0.9-12.1C190.1,48.9,190.5,47,190.8,47L190.8,47z"/>
		</g>
		<path id="path1008" fill="#E0DCDC" d="M370.2,84.9c0.7,0,1.4,3.8,2,8.8s-0.5,9.1-1.2,9c-0.7-0.1-0.7-3.8-1.3-8.7
			C369,89.1,369.5,84.8,370.2,84.9z"/>
		<path id="path1009" fill="#E0DCDC" d="M429.7,80.2c0.7-0.2,3.1,5.9,3.5,13.7c0.4,7.8,0.3,14-0.4,14.1c-0.7,0.1-1.8-6.3-2.2-14
			S429,80.4,429.7,80.2z"/>
		<path id="path1010" fill="#E0DCDC" d="M497.7,83.3c0.7,0,1,3.7,1.1,8.1c0.2,4.4,0.3,8-0.4,8.1c-0.7,0.1-2-3.4-2.2-8
			C496.1,86.9,497.1,83.3,497.7,83.3z"/>
		<path id="path1011" fill="#E0DCDC" d="M567.3,82.5c0.7-0.2,2.6,5.8,2.8,13.4c0.2,7.6-0.6,13.6-1.3,13.6c-0.7,0-1.1-6.2-1.3-13.6
			C567.4,88.6,566.6,82.7,567.3,82.5z"/>
		<path id="path1012" fill="#E0DCDC" d="M612.2,84.9c0.6,0.1,0.6,4.6,1.4,10c0.7,5.4,1.6,9.9,1,10.1c-0.6,0.2-2.7-4-3.5-9.8
			C610.2,89.3,611.4,84.8,612.2,84.9z"/>
		<path id="path1013" fill="#E0DCDC" d="M646.2,81.8c0.5,0.2,0.4,2.8,0.6,5.7c0.2,3.1,0.1,5.8-0.6,5.9c-0.7,0.1-1.8-2.4-2-5.8
			C644,84,645.4,81.5,646.2,81.8z"/>
		<path id="path1014" fill="#E0DCDC" d="M683.3,81.8c0.7,0.2,0.3,3.3-0.4,6.8c-0.6,3.3-0.7,6.2-1.2,6.4c-0.8,0.2-2-2.8-1.3-6.8
			C681,84.3,682.6,81.6,683.3,81.8L683.3,81.8z"/>
		<path id="path1015" fill="#E0DCDC" d="M298.3,79.4c0.7,0,1.6,5.4,2.2,12.3c0.6,6.8,0.1,12.5-0.6,12.5c-0.7,0-1.4-5.5-1.9-12.3
			C297.3,85.1,297.6,79.5,298.3,79.4L298.3,79.4z"/>
		<path id="path1016" fill="#E0DCDC" d="M255.7,83.3c0.5,0.1,0.3,4.1,0.5,8.8c0.2,4.8,0.2,8.9-0.5,9c-0.7,0.1-1.9-3.8-2.1-8.9
			C253.4,87,254.9,83.1,255.7,83.3z"/>
		<path id="path1017" fill="#E0DCDC" d="M224.8,81c0.3,0.2,0.4,1.1,0.3,3.1l0,0c0,1,0.1,3.3,0.1,4.9c0,0,0,0,0,0
			c0,4.4-0.4,8.2-1.1,8.2s-1.5-3.6-1.4-8.2l0,0c0-1.9,0.2-3.6,0.5-5.1l0,0C223.4,81.9,224.3,80.6,224.8,81L224.8,81z"/>
		<path id="path1018" fill="#E0DCDC" d="M192.3,81c0.7-0.1,1.5,4,1.9,8.9c0.4,4.8,0.9,8.7,0.4,8.9c-0.7,0.2-2.5-3.6-3-8.7
			C191.2,85.1,191.6,81.1,192.3,81L192.3,81z"/>
	</g>
</g>
</svg>
