<?xml version="1.0" encoding="utf-8"?>
<!-- Generator: Adobe Illustrator 28.0.0, SVG Export Plug-In . SVG Version: 6.00 Build 0)  -->
<svg version="1.1" id="OBJECTS" xmlns="http://www.w3.org/2000/svg" xmlns:xlink="http://www.w3.org/1999/xlink" x="0px" y="0px"
	 width="500px" height="500px" viewBox="0 0 500 500" enable-background="new 0 0 500 500" xml:space="preserve">
<g id="g721" transform="matrix(0.82894289,0,0,0.82894289,-110.07061,348.74211)">
	<path id="path667" fill="#EF5A58" d="M432,60.3c-75.8,0-167.5-11-223.3-27.7c-55.8-16.7-54.7-67.5-52.1-148.9H432h275.4
		c2.6,81.4,3.7,132.2-52.1,148.9C599.5,49.4,507.8,60.3,432,60.3L432,60.3z"/>
	<path id="path668" fill="#FA6F6B" d="M432-298.6c-75.8,0-167.5,11-223.3,27.7c-55.8,16.7-54.7,67.5-52.1,148.9H432h275.4
		c2.6-81.4,3.7-132.2-52.1-148.9C599.5-287.6,507.8-298.6,432-298.6L432-298.6z"/>
	<path id="path669" fill="#EF5A58" d="M407.5-238c-6.7,0.1-13.3,0.9-19.6,3c-13.8,4.6-23.8,21-39.5,21c-13.2,0-15.2-18.6-31.6-13.1
		c-12.1,4-17.6,15.3-26.3,19.7c-5.5,2.8-14.1-10.2-21.1-7.9c-10.4,3.5-17.9,13.9-25,21c-1.6,1.6-8.3-4.2-13.2-2.6
		c-6.6,2.2-7.7,10.4-13.2,13.1c-8,4-16.3-8.9-21.1-6.6c-10.8,5.4-14.2,20.9-17.1,22.4c-8.1,4-16.2-9.3-24.1-14.1
		c-0.7,17.7-0.1,37.7,0.6,60.1H432h275.4c0.7-22.4,1.3-42.4,0.6-60.1c-7.9,4.8-16,18.1-24.1,14.1c-2.9-1.4-6.3-17-17.1-22.4
		c-4.8-2.4-13,10.6-21.1,6.6c-5.4-2.7-6.6-11-13.2-13.1c-4.9-1.6-11.5,4.2-13.2,2.6c-7.1-7.1-14.6-17.6-25-21
		c-7-2.3-15.5,10.7-21.1,7.9c-8.8-4.4-14.2-15.7-26.3-19.7c-16.4-5.5-18.3,13.1-31.6,13.1c-15.7,0-25.7-16.4-39.5-21
		c-6.3-2.1-12.9-2.9-19.6-3c-8.2-0.1-16.4,0.9-24.5,1.9C424-237.1,415.7-238.1,407.5-238L407.5-238z"/>
	<path id="path670" fill="#A01515" d="M356.4-124.1c-69.6-0.2-172.9,11.3-177.8,12.4c-6.5,1.4-11.2,7-11.2,7
		c22.3,13.9,266.1,5.6,266.1,5.6s0.9-7.9,0.5-11.2c-0.5-3.3-3.7-6.5-24.2-8.8C399-122.7,379.6-124,356.4-124.1z M512.4-124.1
		c-23.2,0.1-42.7,1.4-53.5,4.9c-20.5,2.3-23.7,5.6-24.2,8.8c-0.5,3.3,0.5,11.2,0.5,11.2s243.8,8.4,266.1-5.6c0,0-4.6-5.6-11.2-7
		C685.3-112.8,582-124.3,512.4-124.1z"/>
	<g id="g904" transform="matrix(1,0,0,1.0200246,0,-15.163769)">
		<path fill="#FFFFFF" d="M701.5-134.3c-11.2-3.2-19.1,11.6-19.1,11.6v0c0,0-0.3,1.7-0.8,4.4c-1.5-12.6-4.7-25.1-10.4-27
			c-11.2-3.8-19.1,14-19.1,14s-1.1,7.3-2.2,15.8c-1.2-15.6-4.4-33.3-11-35.7c-8.5-3.2-15.1,7.3-17.7,12.5
			c-2-11.9-5.5-22.2-10.5-26.3v0c-9.3-7.4-17.7-7.4-28.8,2.8c-3.7,3.4-6,11.8-7.2,21.7c-2.2-14.3-6.2-27.3-12.4-32.2
			c-15.8-7.2-29.8-3.9-37.2,11.1c-2.9,5.9-5,18-6,30.8c-4.1-49.2-17.6-63.8-51.8-60.6c-23.8,2.2-31.1,34.7-32.9,62.9
			c-1.8-28.2-9.1-60.7-32.9-62.9c-34.2-3.2-47.7,11.4-51.8,60.6c-1-12.8-3.1-24.9-6-30.8c-7.4-15.1-21.4-18.3-37.2-11.1l0,0
			c-6.1,4.9-10.1,17.9-12.4,32.2c-1.2-9.9-3.5-18.3-7.2-21.7c-11.2-10.2-19.5-10.2-28.8-2.8v0c-5.1,4.1-8.5,14.4-10.5,26.3
			c-2.7-5.2-9.3-15.7-17.7-12.5c-6.6,2.5-9.8,20.1-11,35.7c-1-8.6-2.2-15.8-2.2-15.8s-7.9-17.9-19.1-14c-5.7,2-8.9,14.4-10.4,27
			c-0.4-2.6-0.8-4.4-0.8-4.4v0c0,0-7.9-14.8-19.1-11.6c-11.2,3.2-12.6,39-11.2,45c1.4,6,9.3,8.8,18.6,7c8.1-1.5,11.3-2,13.8-4
			c3.2,3.9,9.4,5.5,16.4,3.9c9.3-2.1,12.1-2.6,14.8-5.9c2.8,5.5,9.6,7.8,17.4,5.9c6-1.5,9.3-2.2,11.7-3.6c0.5,0.9,1.1,1.6,1.7,1.9
			c8.4,3.7,36.3,3.7,40.9-4.6c0.7-1.2,1.3-3.4,1.8-6.3c0.7,3.6,1.6,6.1,2.8,7c7.4,5.8,43.7,7.7,50.2,2.4c0.7-0.6,1.3-1.7,1.8-3.3
			c0,0.5,0,0.9,0,1.3h0c5.8,12.2,83.5,8.2,85.6,1c0,0,0.3-2.9,0.6-7.6c0.3,4.7,0.6,7.6,0.6,7.6c2.1,7.2,79.8,11.2,85.6-1l0,0
			c0-0.5,0-0.9,0-1.3c0.5,1.6,1.1,2.7,1.8,3.3c6.5,5.3,42.8,3.4,50.2-2.4c1.2-0.9,2.2-3.4,2.8-7c0.5,2.9,1.1,5.1,1.8,6.3
			c4.7,8.4,32.6,8.4,40.9,4.6c0.6-0.3,1.2-1,1.7-1.9c2.3,1.3,5.6,2.1,11.7,3.6c7.8,1.9,14.6-0.4,17.4-5.9c2.8,3.4,5.6,3.8,14.8,5.9
			c7,1.6,13.2,0.1,16.4-3.9c2.5,2,5.7,2.4,13.8,4c9.3,1.8,17.2-1.1,18.6-7C714.1-95.3,712.7-131.1,701.5-134.3z"/>
		<path opacity="0.32" fill="#E0DCDC" d="M701.5-134.3c-11.2-3.2-19.1,11.6-19.1,11.6v0c0,0-0.3,1.7-0.8,4.4
			c-1.5-12.6-4.7-25.1-10.4-27c-11.2-3.8-19.1,14-19.1,14s-1.1,7.3-2.2,15.8c-1.2-15.6-4.4-33.3-11-35.7
			c-8.5-3.2-15.1,7.3-17.7,12.5c-2-11.9-5.5-22.2-10.5-26.3v0c-9.3-7.4-17.7-7.4-28.8,2.8c-3.7,3.4-6,11.8-7.2,21.7
			c-2.2-14.3-6.2-27.3-12.4-32.2c-15.8-7.2-29.8-3.9-37.2,11.1c-2.9,5.9-5,18-6,30.8c-4.1-49.2-17.6-63.8-51.8-60.6
			c-23.8,2.2-31.1,34.7-32.9,62.9c-1.8-28.2-9.1-60.7-32.9-62.9c-34.2-3.2-47.7,11.4-51.8,60.6c-1-12.8-3.1-24.9-6-30.8
			c-7.4-15.1-21.4-18.3-37.2-11.1l0,0c-6.1,4.9-10.1,17.9-12.4,32.2c-1.2-9.9-3.5-18.3-7.2-21.7c-11.2-10.2-19.5-10.2-28.8-2.8v0
			c-5.1,4.1-8.5,14.4-10.5,26.3c-2.7-5.2-9.3-15.7-17.7-12.5c-6.6,2.5-9.8,20.1-11,35.7c-1-8.6-2.2-15.8-2.2-15.8s-7.9-17.9-19.1-14
			c-5.7,2-8.9,14.4-10.4,27c-0.4-2.6-0.8-4.4-0.8-4.4v0c0,0-7.9-14.8-19.1-11.6c-11.2,3.2-12.6,39-11.2,45c1.4,6,9.3,8.8,18.6,7
			c8.1-1.5,11.3-2,13.8-4c3.2,3.9,9.4,5.5,16.4,3.9c9.3-2.1,12.1-2.6,14.8-5.9c2.8,5.5,9.6,7.8,17.4,5.9c6-1.5,9.3-2.2,11.7-3.6
			c0.5,0.9,1.1,1.6,1.7,1.9c8.4,3.7,36.3,3.7,40.9-4.6c0.7-1.2,1.3-3.4,1.8-6.3c0.7,3.6,1.6,6.1,2.8,7c7.4,5.8,43.7,7.7,50.2,2.4
			c0.7-0.6,1.3-1.7,1.8-3.3c0,0.5,0,0.9,0,1.3h0c5.8,12.2,83.5,8.2,85.6,1c0,0,0.3-2.9,0.6-7.6c0.3,4.7,0.6,7.6,0.6,7.6
			c2.1,7.2,79.8,11.2,85.6-1l0,0c0-0.5,0-0.9,0-1.3c0.5,1.6,1.1,2.7,1.8,3.3c6.5,5.3,42.8,3.4,50.2-2.4c1.2-0.9,2.2-3.4,2.8-7
			c0.5,2.9,1.1,5.1,1.8,6.3c4.7,8.4,32.6,8.4,40.9,4.6c0.6-0.3,1.2-1,1.7-1.9c2.3,1.3,5.6,2.1,11.7,3.6c7.8,1.9,14.6-0.4,17.4-5.9
			c2.8,3.4,5.6,3.8,14.8,5.9c7,1.6,13.2,0.1,16.4-3.9c2.5,2,5.7,2.4,13.8,4c9.3,1.8,17.2-1.1,18.6-7
			C714.1-95.3,712.7-131.1,701.5-134.3z"/>
		<path id="path674" fill="#FFFFFF" d="M386.2-186.2c-14.1,7.4-20.8,25.1-22.4,35.3c-1.7,10.2-6.6,51.1,1.7,53
			c8.3,1.9,53.1,6.5,55.6-2.8s1.7-55.8-6.6-71.6C406.1-188.1,394.5-190.8,386.2-186.2L386.2-186.2z"/>
		<path id="path675" fill="#FFFFFF" d="M315.8-170.2c-13,9.3-22.3,56.7-15.8,66.9s19.5,7.4,27.9-0.9
			C336.2-112.5,335.3-177.6,315.8-170.2z"/>
		<path id="path677" fill="#FFFFFF" d="M266.3-164c-14,8.4-14.9,30.7-14.9,47.4s0.9,25.1,15.8,19.5c14.9-5.6,15.7-35.6,14-49.3
			C280.2-154.5,276.6-170.6,266.3-164L266.3-164z"/>
		<path id="path678" fill="#FFFFFF" d="M231.6-149.2c-5.6,4.6-12.1,49.3-5.6,51.6c6.5,2.3,13.5,4.2,15.4-3.3
			C243.3-108.3,243.3-150.1,231.6-149.2L231.6-149.2z"/>
		<path id="path680" fill="#FFFFFF" d="M195-138c-3.8,5.9-5.5,37.5-2.1,40.1c3.4,2.6,8.1,5.3,8.9-3.9
			C202.7-111.1,201.8-143.9,195-138z"/>
		<path id="path682" fill="#FFFFFF" d="M165.1-128.2c-4.1,4.9-6,30.9-2.3,33.1c3.7,2.2,8.8,4.3,9.7-3.3
			C173.4-106,172.4-133.1,165.1-128.2z"/>
		<path id="path699" fill="#FFFFFF" d="M482.6-186.2c14.1,7.4,20.8,25.1,22.4,35.3c1.7,10.2,6.6,51.1-1.7,53
			c-8.3,1.9-53.1,6.5-55.6-2.8c-2.5-9.3-1.7-55.8,6.6-71.6C462.7-188.1,474.3-190.8,482.6-186.2L482.6-186.2z"/>
		<path id="path700" fill="#FFFFFF" d="M553-170.2c13,9.3,22.3,56.7,15.8,66.9s-19.5,7.4-27.9-0.9
			C532.6-112.5,533.5-177.6,553-170.2z"/>
		<path id="path702" fill="#FFFFFF" d="M602.5-164c14,8.4,14.9,30.7,14.9,47.4s-0.9,25.1-15.8,19.5c-14.9-5.6-15.7-35.6-14-49.3
			C588.6-154.5,592.2-170.6,602.5-164L602.5-164z"/>
		<path id="path703" fill="#FFFFFF" d="M637.2-149.2c5.6,4.6,12.1,49.3,5.6,51.6c-6.5,2.3-13.5,4.2-15.4-3.3
			C625.5-108.3,625.5-150.1,637.2-149.2L637.2-149.2z"/>
		<path id="path705" fill="#FFFFFF" d="M673.8-138c3.8,5.9,5.5,37.5,2.1,40.1c-3.4,2.6-8.1,5.3-8.9-3.9
			C666.1-111.1,667-143.9,673.8-138z"/>
		<path id="path707" fill="#FFFFFF" d="M703.7-128.2c4.1,4.9,6,30.9,2.3,33.1c-3.7,2.2-8.8,4.3-9.7-3.3
			C695.4-106,696.4-133.1,703.7-128.2z"/>
	</g>
	<path id="path904" opacity="0.65" fill="#E0DCDC" d="M164.7-109.3c0,0,19.1-3.4,30.3-2.2c11.2,1.1,35.9,0,49.4-1.1
		c13.5-1.1,81.9,1.1,105.5-1.1c23.6-2.2,87.6,1.1,121.2,0c33.7-1.1,73-1.1,85.3-1.1s76.3-3.4,97.7,0c21.3,3.4,47.1,9,47.1,9
		S620.5-79,547.5-73.4c-73,5.6-281.8,2.2-305.3-2.2C218.6-80.1,167-95.8,167-95.8L164.7-109.3z"/>
	<g id="g903" transform="matrix(1,0,0,1.0165467,0,-14.733707)">
		<path fill="#FFFFFF" d="M712.7-84.3c-1.4-4.6-9.3-6.8-18.6-5.5c-8.1,1.2-11.3,1.6-13.8,3.1c-3.2-3.1-9.4-4.2-16.4-3
			c-9.3,1.7-12.1,2-14.9,4.6c-0.1,0.1-0.1,0.2-0.2,0.3c-2.7-4.5-9.6-6.4-17.7-4.9c-9.3,1.8-12.1,2.2-14.9,5.1c0,0,0,0,0,0.1
			c-0.8-2.3-1.9-3.8-3.1-4.3c-8.4-2.9-36.3-2.9-40.9,3.6c-0.1,0.1-0.1,0.2-0.2,0.3c-5.4-10-57.8-9.5-67.7-2.1c0-0.3,0-0.7,0-1
			c-31.5-5.1-69.5,0-69.5,0s-0.2,1.6-0.3,4.2c-0.2-2.7-0.3-4.2-0.3-4.2s-38-5.1-69.5,0c0,0.3,0,0.7,0,1c-9.8-7.5-62.3-7.9-67.7,2.1
			c-0.1-0.1-0.1-0.2-0.2-0.3c-4.7-6.5-32.6-6.5-40.9-3.6c-1.3,0.4-2.3,2-3.1,4.3c0,0,0,0,0-0.1c-2.8-2.9-5.6-3.2-14.9-5.1
			c-8-1.6-15,0.4-17.7,4.9c-0.1-0.1-0.1-0.2-0.2-0.3c-2.8-2.6-5.6-3-14.9-4.6c-7-1.2-13.2-0.1-16.4,3c-2.5-1.5-5.7-1.9-13.8-3.1
			c-9.3-1.4-17.2,0.8-18.6,5.5c-1.4,4.6,0,32.5,11.2,34.9c11.2,2.5,19.1-9,19.1-9s0.3-1.4,0.8-3.4c1.5,9.8,4.7,19.5,10.4,21
			c11.2,3,19.1-10.9,19.1-10.9s1.3-6.8,2.4-14.2c1.1,12.6,4.2,27.6,11.2,29.7c11.2,3.2,19.1-11.9,19.1-11.9s0.7-4.1,1.6-9.6
			c1.3,13.5,5.2,27.3,12.3,31.8l0,0c9.3,5.8,17.7,5.8,28.8-2.2c3.6-2.5,5.8-8.6,7.1-16c4.7,28.3,16.8,35.1,41.5,33
			c17.5-1.5,23.7-21.2,25.6-39.8c4.1,35.8,16.1,46.9,42.3,44.5c18.4-1.7,24.3-25.8,25.9-47.4c1.6,21.6,7.5,45.7,25.9,47.4
			c26.2,2.4,38.2-8.7,42.3-44.5c1.9,18.6,8.1,38.3,25.6,39.8c24.7,2.1,36.8-4.6,41.5-33c1.2,7.3,3.5,13.4,7.1,16
			c11.2,7.9,19.5,7.9,28.8,2.2l0,0c7.1-4.5,11-18.3,12.3-31.8c0.8,5.5,1.6,9.6,1.6,9.6s7.9,15.2,19.1,11.9c7-2,10.1-17.1,11.2-29.7
			c1.1,7.4,2.4,14.2,2.4,14.2s7.9,13.9,19.1,10.9c5.8-1.5,8.9-11.2,10.4-21c0.5,2.1,0.8,3.4,0.8,3.4s7.9,11.5,19.1,9
			C712.7-51.8,714.1-79.7,712.7-84.3z"/>
		<path opacity="0.32" fill="#E0DCDC" d="M712.7-84.3c-1.4-4.6-9.3-6.8-18.6-5.5c-8.1,1.2-11.3,1.6-13.8,3.1
			c-3.2-3.1-9.4-4.2-16.4-3c-9.3,1.7-12.1,2-14.9,4.6c-0.1,0.1-0.1,0.2-0.2,0.3c-2.7-4.5-9.6-6.4-17.7-4.9
			c-9.3,1.8-12.1,2.2-14.9,5.1c0,0,0,0,0,0.1c-0.8-2.3-1.9-3.8-3.1-4.3c-8.4-2.9-36.3-2.9-40.9,3.6c-0.1,0.1-0.1,0.2-0.2,0.3
			c-5.4-10-57.8-9.5-67.7-2.1c0-0.3,0-0.7,0-1c-31.5-5.1-69.5,0-69.5,0s-0.2,1.6-0.3,4.2c-0.2-2.7-0.3-4.2-0.3-4.2s-38-5.1-69.5,0
			c0,0.3,0,0.7,0,1c-9.8-7.5-62.3-7.9-67.7,2.1c-0.1-0.1-0.1-0.2-0.2-0.3c-4.7-6.5-32.6-6.5-40.9-3.6c-1.3,0.4-2.3,2-3.1,4.3
			c0,0,0,0,0-0.1c-2.8-2.9-5.6-3.2-14.9-5.1c-8-1.6-15,0.4-17.7,4.9c-0.1-0.1-0.1-0.2-0.2-0.3c-2.8-2.6-5.6-3-14.9-4.6
			c-7-1.2-13.2-0.1-16.4,3c-2.5-1.5-5.7-1.9-13.8-3.1c-9.3-1.4-17.2,0.8-18.6,5.5c-1.4,4.6,0,32.5,11.2,34.9c11.2,2.5,19.1-9,19.1-9
			s0.3-1.4,0.8-3.4c1.5,9.8,4.7,19.5,10.4,21c11.2,3,19.1-10.9,19.1-10.9s1.3-6.8,2.4-14.2c1.1,12.6,4.2,27.6,11.2,29.7
			c11.2,3.2,19.1-11.9,19.1-11.9s0.7-4.1,1.6-9.6c1.3,13.5,5.2,27.3,12.3,31.8l0,0c9.3,5.8,17.7,5.8,28.8-2.2
			c3.6-2.5,5.8-8.6,7.1-16c4.7,28.3,16.8,35.1,41.5,33c17.5-1.5,23.7-21.2,25.6-39.8c4.1,35.8,16.1,46.9,42.3,44.5
			c18.4-1.7,24.3-25.8,25.9-47.4c1.6,21.6,7.5,45.7,25.9,47.4c26.2,2.4,38.2-8.7,42.3-44.5c1.9,18.6,8.1,38.3,25.6,39.8
			c24.7,2.1,36.8-4.6,41.5-33c1.2,7.3,3.5,13.4,7.1,16c11.2,7.9,19.5,7.9,28.8,2.2l0,0c7.1-4.5,11-18.3,12.3-31.8
			c0.8,5.5,1.6,9.6,1.6,9.6s7.9,15.2,19.1,11.9c7-2,10.1-17.1,11.2-29.7c1.1,7.4,2.4,14.2,2.4,14.2s7.9,13.9,19.1,10.9
			c5.8-1.5,8.9-11.2,10.4-21c0.5,2.1,0.8,3.4,0.8,3.4s7.9,11.5,19.1,9C712.7-51.8,714.1-79.7,712.7-84.3z"/>
		<path id="path685" fill="#FFFFFF" d="M395.9-21.6c-10.9-5.2-16.1-17.5-17.3-24.6c-1.3-7.1-5.1-35.6,1.3-36.9
			c6.4-1.3,41.1-4.5,43,1.9c1.9,6.5,1.3,38.9-5.1,49.9C411.3-20.3,402.3-18.3,395.9-21.6z"/>
		<path id="path687" fill="#FFFFFF" d="M271.4-26.7c-14-6.5-14.9-23.8-14.9-36.8s0.9-19.5,15.8-15.2c14.9,4.3,15.7,27.6,14,38.3
			C285.3-34.2,281.7-21.7,271.4-26.7L271.4-26.7z"/>
		<path id="path688" fill="#FFFFFF" d="M232.1-37.8c-5.6-3.6-12.1-38.3-5.6-40.1c6.5-1.8,13.5-3.2,15.4,2.5
			C243.7-69.5,243.7-37.1,232.1-37.8z"/>
		<path id="path690" fill="#FFFFFF" d="M195-46.5c-3.8-4.6-5.5-29.1-2.1-31.1c3.4-2,8.1-4.1,8.9,3.1C202.7-67.4,201.8-41.9,195-46.5
			z"/>
		<path id="path692" fill="#FFFFFF" d="M165.1-54.1c-4.1-3.8-6-24-2.3-25.7s8.8-3.4,9.7,2.5C173.4-71.4,172.4-50.3,165.1-54.1
			L165.1-54.1z"/>
		<path id="path694" fill="#FFFFFF" d="M328-25.6c-10.9-5-16.1-16.7-17.3-23.5c-1.3-6.8-5.1-34,1.3-35.3c6.4-1.2,41.1-4.3,43,1.9
			c1.9,6.2,1.3,37.1-5.1,47.7C343.4-24.3,334.4-22.5,328-25.6L328-25.6z"/>
		<path id="path710" fill="#FFFFFF" d="M472.9-21.6c10.9-5.2,16.1-17.5,17.3-24.6c1.3-7.1,5.1-35.6-1.3-36.9
			c-6.4-1.3-41.1-4.5-43,1.9c-1.9,6.5-1.3,38.9,5.1,49.9C457.5-20.3,466.5-18.3,472.9-21.6z"/>
		<path id="path712" fill="#FFFFFF" d="M597.4-26.7c14-6.5,14.9-23.8,14.9-36.8s-0.9-19.5-15.8-15.2c-14.9,4.3-15.7,27.6-14,38.3
			C583.5-34.2,587.1-21.7,597.4-26.7L597.4-26.7z"/>
		<path id="path713" fill="#FFFFFF" d="M636.7-37.8c5.6-3.6,12.1-38.3,5.6-40.1c-6.5-1.8-13.5-3.2-15.4,2.5
			C625.1-69.5,625.1-37.1,636.7-37.8z"/>
		<path id="path715" fill="#FFFFFF" d="M673.8-46.5c3.8-4.6,5.5-29.1,2.1-31.1c-3.4-2-8.1-4.1-8.9,3.1
			C666.1-67.4,667-41.9,673.8-46.5z"/>
		<path id="path717" fill="#FFFFFF" d="M703.7-54.1c4.1-3.8,6-24,2.3-25.7c-3.7-1.7-8.8-3.4-9.7,2.5
			C695.4-71.4,696.4-50.3,703.7-54.1L703.7-54.1z"/>
		<path id="path719" fill="#FFFFFF" d="M540.8-25.6c10.9-5,16.1-16.7,17.3-23.5c1.3-6.8,5.1-34-1.3-35.3c-6.4-1.2-41.1-4.3-43,1.9
			c-1.9,6.2-1.3,37.1,5.1,47.7C525.4-24.3,534.4-22.5,540.8-25.6L540.8-25.6z"/>
	</g>
	<path id="path720" fill="#FA6F6B" d="M180.7-51c0,0-13,7.4-5.6,29.8c7.4,22.3,39.1,37.2,61.4,46.5c22.3,9.3,208.4,22.3,264.3,18.6
		c55.8-3.7,152.6-13,167.5-29.8c14.9-16.7,27.9-44.6,14.9-50.2c-13-5.6-18.6-14.9-44.7,1.9c-26.1,16.7-44.7,9.3-70.7,18.6
		c-26.1,9.3-44.7,13-76.3,14.9c-31.6,1.9-54,0-93.1,1.9s-65.1-3.7-117.2-11.2C229.1-17.6,206.8-64,180.7-51L180.7-51z"/>
	<path id="path721" opacity="0.15" fill="#FFFFFF" d="M197.5-242.7c16.8-13,65.1-20.5,106.1-27.9s193.6-13,232.6-9.3
		c39.1,3.7,126.6,22.3,128.4,31.6c1.9,9.3,1.9,22.3-24.2,11.2c-26.1-11.2-137.7-35.3-227.1-29.8S283.1-250.1,234.7-239
		C186.3-227.8,188.2-216.6,197.5-242.7z"/>
	<path id="path976" fill="#E0DCDC" d="M297-97.8c0.3,0,1,2.1,1.3,5.7c0.3,4,0.1,8.1-0.4,13.9c0,0,0,0.6,0,0.6
		c-0.5,6.4-0.8,8.8-0.8,13.2c0,3.3,0.3,5.4-0.1,5.5c-0.3,0.1-1.3-1.9-1.8-5.3c-0.6-3.9-0.5-7.9,0-13.5c0-0.2,0-0.4,0-0.6
		c0.4-5.4,0.9-10.2,1.1-13.7C296.6-95.5,296.6-97.7,297-97.8L297-97.8z"/>
	<path id="path977" fill="#E0DCDC" d="M252.5-99.3c0.7,0.1,0,6.1-0.6,13.5c-0.6,7.4-1.1,13.4-1.8,13.4s-1.4-6.1-0.8-13.7
		C250-93.6,251.8-99.5,252.5-99.3z"/>
	<path id="path978" fill="#E0DCDC" d="M216.8-98.6c0.8,0,1.3,1.9,0.8,4.3c-0.6,2.3-1.7,3.8-2.4,3.6c-0.8-0.2-0.7-2.1-0.2-4.3
		C215.5-96.8,216.2-98.5,216.8-98.6L216.8-98.6z"/>
	<path id="path979" fill="#E0DCDC" d="M187.4-100.1c0.7,0.1-0.3,5.8-1,12.3c-0.4,3.5-0.4,5.8-0.1,8c0.3,2,0.7,3.3,0.3,3.5
		c-0.7,0.3-3.6-4.8-2.9-11.8C184.5-95.1,186.7-100.3,187.4-100.1L187.4-100.1z"/>
	<path id="path980" fill="#E0DCDC" d="M365.2-99.3c0.5-0.1,1.3,3.9,0.9,9.6c-0.3,3.6-0.7,6.5-1.2,10.9c0,0.3-0.1,0.6-0.1,0.9
		c-0.5,4.4-0.8,7.5-0.5,10.8c0.5,4.8,2.8,7,2.6,7.4c-0.2,0.3-3.8-1.1-4.7-7.1c-0.6-3.4-0.5-7,0-11.4c0-0.3,0.1-0.6,0.1-1
		c0.4-3.7,1.2-8.1,1.6-10.9C364.8-95.7,364.8-99.3,365.2-99.3L365.2-99.3z"/>
	<path id="path981" fill="#E0DCDC" d="M435.9-99.3c0.4,0.1,0.1,2.1,0.1,5.4c0,3.3,0.4,7.8,0.6,13c0,0,0,0.2,0,0.2
		c0.2,5.4-0.1,9.6-1.3,13.2c-1,3.3-2.4,4.9-2.7,4.8c-0.3-0.2,0.4-2.1,0.9-5.2c0.6-3.6,0.6-7.1,0.4-12.6c0,0,0-0.2,0-0.2
		c-0.2-5.6-0.4-9.3,0.2-13.2C434.7-97.5,435.5-99.4,435.9-99.3L435.9-99.3z"/>
	<path id="path982" fill="#E0DCDC" d="M502.6-97c0.7,0.2-0.8,7.3-0.9,16.2c-0.2,8.9,0.9,16.1,0.2,16.3c-0.7,0.1-3-7-2.8-16.3
		C499.2-90.2,501.8-97.2,502.6-97L502.6-97z"/>
	<path id="path983" fill="#E0DCDC" d="M573.2-97.8c0.4,0.1,0.3,2.3-0.3,5.8c-0.6,3.5-1.8,8.2-2.9,13.4l0,0.1
		c-1.1,5.8-1.7,9.4-1.7,13.3c0,3.4,0.5,5.4,0.2,5.6c-0.3,0.1-1.5-1.8-2-5.4c-0.6-3.9-0.2-8.3,0.9-13.9l0-0.1
		c1-4.9,2.7-10.4,3.6-13.3C572.1-95.8,572.9-97.8,573.2-97.8L573.2-97.8z"/>
	<path id="path984" fill="#E0DCDC" d="M614.5-100.1c0.3-0.2,1.4,1,2.3,3.5c1,2.6,1.5,5.8,1.4,9.9c0,0.2,0,0.3,0,0.5
		c-0.1,2.8-0.6,7.9-0.7,9.3c-0.2,2.3-0.3,3.8-0.6,3.8c-0.3,0-0.9-1.4-1.2-3.8c-0.3-2.9-0.2-5.3-0.1-9.4c0-0.2,0-0.3,0-0.5
		c0-4-0.1-6.7-0.6-9.3C614.6-98.5,614.1-100,614.5-100.1L614.5-100.1z"/>
	<path id="path985" fill="#E0DCDC" d="M650.2-100.9c0.7,0.1,0.8,3.8,0.5,8.1c-0.3,4.1-0.1,7.6-0.5,7.8c-0.8,0.3-2.4-3.2-2.1-7.9
		C648.3-97.6,649.5-101,650.2-100.9z"/>
	<path id="path986" fill="#E0DCDC" d="M680.4-101.7c0.7-0.2,2.3,4.4,2.1,10c0,0.1,0,0.1,0,0.2c-0.1,2.7-0.2,5.1-0.2,6.8
		c0,1.7,0.1,2.8-0.3,2.9c-0.7,0.2-2.3-4.4-2.1-9.8c0-0.1,0-0.1,0-0.2c0.1-2.8,0.2-5.2,0.2-6.9C680.1-100.5,680-101.6,680.4-101.7
		L680.4-101.7z"/>
	<path id="path987" fill="#E0DCDC" d="M681.2-134.2c0.3-0.1,1,1.1,1.1,3.3c0.2,2.3-0.3,5-1.3,8.2v0c-1,3-2,5.6-2.6,7.5
		c-0.6,1.9-0.9,3.1-1.2,3.1c-0.4,0-0.7-1.3-0.6-3.4c0.2-2.4,0.8-4.8,1.9-8c0,0,0,0,0,0c1.1-3.3,1.6-5.2,2-7.5
		C680.8-132.9,680.8-134.2,681.2-134.2L681.2-134.2z"/>
	<path id="path988" fill="#E0DCDC" d="M647.8-132.7c0.6,0.3,0,3.1-0.6,6.4c-0.6,3.4-1,6.3-1.8,6.3c-0.7,0-1.4-3-0.8-6.7
		C645.3-130.5,647.1-133,647.8-132.7L647.8-132.7z"/>
	<path id="path989" fill="#E0DCDC" d="M620-155.7c0.7,0,1.5,7.4,0.7,16.4c-0.8,9-1.6,16.2-2.3,16.2s-1.1-7.4-0.3-16.4
		C618.9-148.5,619.3-155.6,620-155.7L620-155.7z"/>
	<path id="path990" fill="#E0DCDC" d="M573.2-155.7c0.7,0,2.1,10.3,2.1,23c0,0.4,0,0.9,0,1.3l0,0c0,6.4-0.3,11.3-1,15.5
		c-0.7,3.9-1.5,6.2-1.8,6.2c-0.3-0.1-0.1-2.5,0-6.4c0.2-5,0.2-8.1,0.2-15.3l0,0c0,0,0-1.3,0-1.3
		C572.6-145.3,572.5-155.6,573.2-155.7L573.2-155.7z"/>
	<path id="path991" fill="#E0DCDC" d="M516.8-152.5c0.4,0.1,0.2,2,0,5.1c-0.2,4.8-0.2,5.6-0.3,12c0,0,0,0.1,0,0.1
		c-0.1,5-0.4,8.8-1.1,12.1c-0.7,3.1-1.5,4.9-1.8,4.8c-0.4-0.1-0.2-2,0-5c0.2-4.6,0.2-5.6,0.3-12c0,0,0-0.1,0-0.1
		c0.1-5,0.4-8.8,1.1-12.2C515.7-150.8,516.5-152.6,516.8-152.5L516.8-152.5z"/>
	<path id="path992" fill="#E0DCDC" d="M434.3-143.8c0.7,0.1,0.5,5.4,0.5,11.9c-0.1,6.5-0.5,11.9-1.3,11.9c-0.7,0-1.5-5.3-1.4-11.9
		C432.2-138.5,433.6-143.9,434.3-143.8z"/>
	<path id="path993" fill="#E0DCDC" d="M351.7-147.7c0.7,0,0.9,5.3,0.4,11.6s-1.2,11.4-1.9,11.4c-0.7,0-1.2-5.3-0.7-11.6
		C350-142.7,351-147.8,351.7-147.7z"/>
	<path id="path994" fill="#E0DCDC" d="M292.2-161.2c0.7,0.2-1,9.3-2.5,20.7c-0.1,0.4-0.1,0.8-0.2,1.3l0,0c-0.8,6.4-1.2,9.3-1.3,13.7
		c0,3.4,0.3,5.6-0.1,5.6c-0.3,0.1-1.3-2-1.7-5.5c-0.5-4-0.3-8.2,0.5-14.1l0,0c0-0.4,0.1-0.9,0.2-1.3
		C288.6-152.4,291.5-161.4,292.2-161.2L292.2-161.2z"/>
	<path id="path995" fill="#E0DCDC" d="M246.2-154.1c0.7,0.1,0.2,8.9,0.9,20.1c0.8,11.1,0.6,20.4-0.1,20.4c-0.7,0-1.7-9-2.5-20.2
		C243.7-145.1,245.4-154.2,246.2-154.1L246.2-154.1z"/>
	<path id="path996" fill="#E0DCDC" d="M216.8-133.4c0.4-0.1,1,1.6,1.4,4.5c0.5,3.3,0.5,6.4,0.5,11.2c0,0,0,0.4,0,0.4
		c0.1,4.6,0.4,7.5,1,10.5c0.6,2.6,1.3,4.1,0.9,4.3c-0.3,0.2-1.6-1.1-2.7-3.8c-1.2-2.9-1.9-6.4-1.9-11c0-0.1,0-0.3,0-0.4
		c0-2.9,0.2-9.8,0.2-11.1C216.5-131.6,216.4-133.4,216.8-133.4L216.8-133.4z"/>
</g>
</svg>
