<?xml version="1.0" encoding="utf-8"?> 
<svg version="1.1" color='white' id="Glyph" xmlns="http://www.w3.org/2000/svg" xmlns:xlink="http://www.w3.org/1999/xlink" x="0px" y="0px"
	 viewBox="0 0 64 64" enable-background="new 0 0 64 64" xml:space="preserve">
<g>
	<path d="M27.5,46c0.90625,0,1.32422-2.04688,1.66113-3.69141c0.44434-2.17285,0.90332-4.41992,2.83887-4.41992
		s2.39453,2.24707,2.83887,4.41992C35.17578,43.95312,35.59375,46,36.5,46c2.22461,0,4.14258-7.6709,4.14258-11.4375
		c0-2.51562-1.98438-4.5625-4.42383-4.5625c-1.33594,0-2.58789,0.61572-3.43359,1.68848c-0.37891,0.48145-1.19141,0.48145-1.57031,0
		C30.36914,30.61572,29.11719,30,27.78125,30c-2.43945,0-4.42383,2.04688-4.42383,4.5625C23.35742,38.3291,25.27539,46,27.5,46z"/>
	<path d="M18,50h34V26H12v18h5c0.54999,0,1,0.45001,1,1V50z M27.78125,28c1.57129,0,3.05859,0.57812,4.21875,1.61475
		C33.16016,28.57812,34.64746,28,36.21875,28c3.54199,0,6.42383,2.94385,6.42383,6.5625C42.64258,37.4082,41.10645,48,36.5,48
		c-2.53809,0-3.13867-2.93359-3.62012-5.29102c-0.1875-0.91406-0.53516-2.61621-0.89844-2.82715
		c-0.32617,0.21094-0.67383,1.91309-0.86133,2.82715C30.63867,45.06641,30.03809,48,27.5,48
		c-4.60645,0-6.14258-10.5918-6.14258-13.4375C21.35742,30.94385,24.23926,28,27.78125,28z"/>
	<path d="M47,15c1.10303,0,2-0.89697,2-2V9c0-1.10303-0.89697-2-2-2s-2,0.89697-2,2v4C45,14.10303,45.89697,15,47,15z"/>
	<path d="M32,15c1.10303,0,2-0.89697,2-2V9c0-1.10303-0.89697-2-2-2s-2,0.89697-2,2v4C30,14.10303,30.89697,15,32,15z"/>
	<path d="M17,15c1.10303,0,2-0.89697,2-2V9c0-1.10303-0.89697-2-2-2s-2,0.89697-2,2v4C15,14.10303,15.89697,15,17,15z"/>
	<path d="M7,44h3V25c0-0.55225,0.44775-1,1-1h42c0.55225,0,1,0.44775,1,1v26c0,0.55225-0.44775,1-1,1H18v3h36c1.6543,0,3-1.3457,3-3
		V21H7V44z"/>
	<path d="M54,11h-3v2c0,2.20557-1.79443,4-4,4s-4-1.79443-4-4v-2h-7v2c0,2.20557-1.79443,4-4,4s-4-1.79443-4-4v-2h-7v2
		c0,2.20557-1.79443,4-4,4s-4-1.79443-4-4v-2h-3c-1.6543,0-3,1.3457-3,3v5h50v-5C57,12.3457,55.6543,11,54,11z"/>
	<polygon points="16,54.41406 16,46 7.58594,46 	"/>
</g>
</svg>
